<?xml version="1.0" encoding="UTF-8"?>
<!DOCTYPE svg PUBLIC "-//W3C//DTD SVG 1.1//EN" "http://www.w3.org/Graphics/SVG/1.1/DTD/svg11.dtd">
<!-- Creator: CorelDRAW 2020 (64-Bit) -->
<svg xmlns="http://www.w3.org/2000/svg" xml:space="preserve" width="27.5987mm" height="21.3589mm" version="1.1" style="shape-rendering:geometricPrecision; text-rendering:geometricPrecision; image-rendering:optimizeQuality; fill-rule:evenodd; clip-rule:evenodd"
viewBox="0 0 720.33 557.47"
 xmlns:xlink="http://www.w3.org/1999/xlink"
 xmlns:xodm="http://www.corel.com/coreldraw/odm/2003">
 <defs>
  <style type="text/css">
   <![CDATA[
    .fil0 {fill:#E31E24}
    .fil1 {fill:#FEFEFE;fill-rule:nonzero}
   ]]>
  </style>
 </defs>
 <g id="Слой_x0020_1">
  <metadata id="CorelCorpID_0Corel-Layer"/>
  <g id="_2626028326176">
   <polygon class="fil0" points="720.33,0 93.59,0 -0,93.59 -0,557.47 720.33,557.47 "/>
   <path class="fil1" d="M335.33 398.6c-23.02,29.95 -55.15,44.92 -96.39,44.92 -41.24,0 -73.37,-14.97 -96.39,-44.92 -23.03,-29.95 -34.54,-69.9 -34.54,-119.87 0,-49.96 11.51,-89.92 34.54,-119.87 23.03,-29.95 55.15,-44.92 96.39,-44.92 41.23,0 73.37,14.98 96.39,44.92 23.03,29.95 34.54,69.9 34.54,119.87 0,49.96 -11.51,89.92 -34.54,119.87zm-146.5 -119.87c0,57.49 16.7,86.23 50.11,86.23 33.41,0 50.11,-28.74 50.11,-86.23 0,-57.49 -16.7,-86.23 -50.11,-86.23 -33.41,0 -50.11,28.74 -50.11,86.23zm355.76 -29.34c20.47,6.32 36.87,17.08 49.21,32.28 12.34,15.2 18.51,33.79 18.51,55.76 0,34.01 -11.14,60.2 -33.41,78.56 -22.27,18.36 -49.81,27.54 -82.62,27.54 -32.81,0 -60.35,-9.48 -82.62,-28.44 -22.27,-18.96 -33.41,-45.45 -33.41,-79.46l80.36 0c0,19.56 11.89,29.35 35.67,29.35 11.74,0 20.62,-2.71 26.64,-8.13 6.02,-5.42 9.03,-12.64 9.03,-21.67 0,-19.56 -11.89,-29.34 -35.67,-29.34l-45.6 0 0 -49.66 47.41 -58.24 -107 0 0 -77.2 205.42 0 0 63.66 -51.92 65.01z"/>
  </g>
 </g>
</svg>
