<?xml version="1.0" encoding="UTF-8"?>
<!DOCTYPE svg PUBLIC "-//W3C//DTD SVG 1.1//EN" "http://www.w3.org/Graphics/SVG/1.1/DTD/svg11.dtd">
<!-- Creator: CorelDRAW 2020 (64-Bit) -->
<svg xmlns="http://www.w3.org/2000/svg" xml:space="preserve" width="65.3403mm" height="78.5167mm" version="1.1" style="shape-rendering:geometricPrecision; text-rendering:geometricPrecision; image-rendering:optimizeQuality; fill-rule:evenodd; clip-rule:evenodd"
viewBox="0 0 5270.63 6333.49"
 xmlns:xlink="http://www.w3.org/1999/xlink"
 xmlns:xodm="http://www.corel.com/coreldraw/odm/2003">
 <defs>
  <style type="text/css">
   <![CDATA[
    .fil0 {fill:}
   ]]>
  </style>
 </defs>
 <g id="Слой_x0020_1">
  <metadata id="CorelCorpID_0Corel-Layer"/>
  <path class="fil0" d="M136.91 5878.62c85.44,-33.14 236.52,-90.89 398.7,-120.22 162.18,-29.32 335.47,-30.22 512.32,-1.33 176.84,28.88 357.25,87.53 503.43,141.29 146.18,53.76 258.16,102.65 315.48,130.64 57.32,27.99 59.98,35.11 60.43,40.88 0.44,5.78 -1.34,10.22 -21.34,53.93 -20,43.71 -58.2,126.7 -78.2,176.02 -5.52,13.59 -9.64,24.63 -12.53,33.66l176.82 0 3.22 -7c8,-17.33 20.44,-41.66 33.33,-69.38 12.88,-27.72 26.22,-58.81 34.66,-79.26 8.44,-20.43 11.99,-30.21 15.34,-36.86 3.35,-6.65 6.49,-10.2 14.79,-9.28 8.29,0.92 21.73,6.3 75.15,25.11 53.42,18.82 146.83,51.08 249.3,77.28 102.47,26.21 214.02,46.37 329.37,52.06 115.34,5.69 234.47,-3.07 332.3,-23.3 97.82,-20.22 174.32,-51.91 248.5,-112.19 74.19,-60.26 146.06,-149.14 188.96,-253.08 42.88,-103.93 56.79,-222.94 62.97,-348.51 6.18,-125.58 4.63,-257.72 -0.4,-330.76 -5.03,-73.02 -13.52,-86.92 -21.63,-93.11 -8.11,-6.18 -15.85,-4.64 -22.42,5.41 -6.57,10.04 -11.98,28.59 -14.68,80.75 -2.71,52.16 -2.71,137.94 -12.36,236.85 -9.66,98.92 -28.99,210.98 -60.28,306.4 -31.3,95.44 -74.57,174.27 -142.58,236.08 -68,61.83 -160.73,106.65 -259.65,128.68 -98.92,22.02 -204.01,21.26 -334.6,5.8 -130.6,-15.46 -286.7,-45.6 -388.32,-67.63 -101.62,-22.01 -148.75,-35.93 -171.16,-44.43 -22.42,-8.49 -20.1,-11.59 7.72,-63.37 27.82,-51.77 81.14,-152.23 176.58,-268.92 95.43,-116.69 232.98,-249.61 367.84,-360.11 134.84,-110.51 266.99,-198.6 426.96,-295.2 159.96,-96.6 347.74,-201.68 518.91,-316.07 171.16,-114.37 325.72,-238.01 440.48,-352.77 114.75,-114.75 189.72,-220.62 215.61,-306.01 25.89,-85.39 2.7,-150.31 -49.84,-211.74 -52.55,-61.43 -134.47,-119.39 -225.65,-162.28 -91.19,-42.88 -191.65,-70.71 -294.05,-89.25 -102.4,-18.54 -206.71,-27.82 -270.46,-32.85 -63.76,-5.03 -86.94,-5.79 -100.46,-8.11 -13.53,-2.32 -17.4,-6.18 -62.98,-64.52 -45.6,-58.34 -132.93,-171.16 -217.16,-295.97 -84.23,-124.8 -165.38,-261.59 -232.22,-397.98 -66.85,-136.39 -119.39,-272.4 -152.23,-375.95 -32.85,-103.55 -45.98,-174.65 -39.41,-234.15 6.57,-59.5 32.84,-107.41 69.94,-140.25 37.09,-32.84 85,-50.62 138.71,-59.51 53.71,-8.88 113.21,-8.88 161.89,-10.82 48.68,-1.93 86.55,-5.8 104.72,-13.53 18.15,-7.72 16.6,-19.32 1.53,-31.3 -15.07,-11.98 -43.66,-24.34 -117.84,-30.52 -74.19,-6.18 -193.97,-6.18 -280.91,7.73 -86.94,13.91 -141.03,41.73 -178.5,76.12 -37.48,34.39 -58.34,75.35 -65.69,132.14 -7.34,56.8 -1.15,129.45 21.26,219.86 22.41,90.42 61.05,198.6 108.96,295.19 47.91,96.6 105.09,181.61 187.4,303.7 82.29,122.09 189.71,281.29 265.05,391.03 75.35,109.73 118.62,170.01 140.26,200.14 21.63,30.14 21.63,30.14 18.93,30.14 -2.7,0 -8.11,0 -83.08,1.93 -74.95,1.94 -219.46,5.81 -323.01,17.78 -103.55,11.98 -166.15,32.07 -197.05,44.82 -30.91,12.75 -30.14,18.17 -10.44,20.09 19.71,1.94 58.34,0.39 156.49,-2.32 98.14,-2.7 255.79,-6.57 351.23,-8.89 95.43,-2.32 128.66,-3.09 145.28,-3.48 16.61,-0.39 16.61,-0.39 22.03,7.72 5.4,8.12 16.21,24.35 38.63,57.19 22.41,32.85 56.42,82.3 84.24,150.69 27.82,68.4 49.46,155.72 68.77,235.7 19.32,79.98 36.32,152.62 63.37,213.67 27.05,61.05 64.13,110.5 106.25,140.64 42.11,30.14 89.25,40.96 112.83,46.37 23.57,5.41 23.57,5.41 18.54,-3.86 -5.03,-9.27 -15.07,-27.81 -40.95,-66.45 -25.89,-38.64 -67.62,-97.38 -99.3,-176.59 -31.68,-79.2 -53.33,-178.89 -71.1,-258.48 -17.77,-79.59 -31.69,-139.1 -52.17,-189.34 -20.48,-50.22 -47.52,-91.18 -61.05,-111.66 -13.53,-20.47 -13.53,-20.47 12.37,-17.77 25.89,2.7 77.66,8.11 153.78,25.11 76.12,17 176.58,45.6 267.38,85 90.8,39.41 171.94,89.65 222.17,147.99 50.23,58.34 69.55,124.8 71.48,175.03 1.93,50.23 -13.53,84.24 -59.51,139.48 -45.98,55.26 -122.47,131.76 -204.01,196.29 -81.53,64.52 -168.07,117.08 -300.6,189.33 -132.53,72.26 -311.04,164.22 -462.12,245.74 -151.08,81.54 -274.72,152.62 -384.7,223.73 -109.98,71.12 -206.3,142.24 -312.6,241.79 -106.3,99.55 -222.58,227.52 -307.02,340.58 -84.44,113.07 -137.02,211.24 -163.32,260.33 -26.3,49.08 -26.3,49.08 -37.98,43.53 -11.7,-5.55 -35.06,-16.65 -130.61,-51.42 -95.54,-34.77 -263.23,-93.21 -409.9,-142 -146.67,-48.79 -272.3,-87.94 -409.61,-118.04 -137.31,-30.09 -286.33,-51.12 -419.84,-49.72 -133.52,1.4 -251.54,25.24 -337.14,60.51 -85.59,35.27 -138.76,81.96 -175.68,121.34 -36.93,39.37 -57.6,71.42 -68.45,95.71 -10.87,24.3 -11.9,40.84 -10.09,48.33 1.81,7.49 6.47,5.95 18.71,0.91 12.23,-5.03 32.04,-13.54 117.49,-46.68zm3563.24 -5780.43c-25.48,-32.21 -62.8,-71.35 -128.78,-88.19 -65.98,-16.83 -160.63,-11.37 -240.27,8.64 -79.64,20.03 -144.25,54.61 -212.06,107.4 -67.81,52.79 -138.79,123.77 -189.29,217.06 -50.52,93.29 -80.55,208.88 -94.21,300.35 -13.65,91.47 -10.92,158.81 1.36,255.29 12.29,96.47 34.14,222.07 50.52,316.26 16.37,94.2 27.3,157 34.12,215.24 6.83,58.25 9.57,111.95 5.01,165.64 -4.55,53.7 -16.38,107.39 -25.48,143.79 -9.11,36.4 -15.47,55.52 -15.93,65.53 -0.45,10.01 5.01,10.92 12.29,10.01 7.28,-0.9 16.38,-3.65 31.85,-17.75 15.47,-14.11 37.31,-39.59 55.97,-95.56 18.66,-55.97 34.12,-142.44 32.76,-228.44 -1.36,-86 -19.56,-171.56 -45.89,-272.81 -26.33,-101.25 -60.77,-218.2 -70.15,-330.58 -9.38,-112.38 6.32,-220.18 34.58,-315.43 28.25,-95.24 69.07,-177.93 136.58,-245.44 67.51,-67.51 161.71,-119.83 256.42,-146 94.72,-26.17 189.96,-26.17 256.43,-12.04 66.46,14.13 104.13,42.39 127.16,55.99 23.02,13.61 31.4,12.57 35.58,5.76 4.19,-6.8 4.19,-19.36 -2.64,-38.29 -6.82,-18.92 -20.47,-44.23 -45.95,-76.44zm-563.81 1721.11c12.29,-24.12 30.49,-59.6 40.05,-121.5 9.55,-61.89 10.46,-150.16 12.74,-231.17 2.27,-80.99 5.9,-154.71 40.49,-228.43 34.58,-73.72 100.1,-147.45 168.82,-199.32 68.71,-51.88 140.61,-81.91 197.5,-119.68 56.88,-37.77 98.74,-83.27 123.76,-143.34 25.03,-60.06 33.23,-134.69 34.14,-179.29 0.9,-44.59 -5.46,-59.16 -13.65,-64.16 -8.2,-5 -18.21,-0.46 -30.04,16.83 -11.83,17.29 -25.49,47.33 -49.61,86.46 -24.12,39.14 -58.69,87.38 -108.29,147.9 -49.6,60.52 -114.22,133.33 -185.21,202.95 -70.99,69.62 -148.35,136.06 -197.95,214.78 -49.6,78.73 -71.45,169.74 -78.28,263.47 -6.82,93.75 1.37,190.21 1.83,255.75 0.45,65.53 -6.83,100.1 -8.66,119.67 -1.81,19.57 1.82,24.13 7.28,26.39 5.46,2.28 12.74,2.28 19.56,-4.09 6.82,-6.36 13.2,-19.12 25.49,-43.24zm1261.52 -293.67c21.34,-12.04 57.8,-40.94 83.96,-70.53 26.14,-29.59 41.97,-59.86 50.57,-89.46 8.61,-29.59 9.98,-58.49 4.82,-83.26 -5.16,-24.78 -16.87,-45.42 -42.67,-71.23 -25.8,-25.8 -65.72,-56.77 -93.93,-108.39 -28.22,-51.6 -44.72,-123.86 -55.73,-206.79 -11.02,-82.91 -16.52,-176.5 -30.62,-277.32 -14.12,-100.81 -36.82,-208.86 -70.89,-295.22 -34.06,-86.36 -79.48,-151.05 -113.54,-189.24 -34.06,-38.19 -56.78,-49.88 -79.49,-55.39 -22.71,-5.5 -45.41,-4.82 -71.56,6.53 -26.15,11.35 -55.75,33.38 -78.11,56.78 -22.37,23.39 -37.5,48.16 -40.6,63.31 -3.1,15.14 5.85,20.64 27.18,20.99 21.33,0.35 55.05,-4.48 83.61,-4.82 28.56,-0.34 51.96,3.79 77.07,20.3 25.11,16.52 51.95,45.42 81.88,99.78 29.93,54.37 62.97,134.19 87.05,228.12 24.08,93.93 39.23,201.98 46.45,279.74 7.22,77.76 6.53,125.24 6.53,165.49 0,40.26 0.69,73.29 9.29,105.98 8.6,32.69 25.11,65.02 49.54,92.55 24.43,27.52 56.77,50.24 75.7,73.99 18.92,23.74 24.42,48.51 17.54,80.51 -6.88,32 -26.16,71.22 -37.86,99.09 -11.7,27.87 -15.83,44.39 -14.79,55.05 1.02,10.67 7.22,15.48 28.56,3.44zm-1092.08 124.47c19.92,24.29 51.56,66.9 88.39,97.03 36.82,30.14 78.83,47.78 115.66,57.22 36.82,9.44 68.48,10.66 109.86,0 41.4,-10.65 92.53,-33.17 140.32,-78.52 47.79,-45.36 92.22,-113.53 126.61,-202.1 34.39,-88.56 58.74,-197.51 70.92,-317.44 12.17,-119.92 12.17,-250.79 -8.22,-358.54 -20.39,-107.74 -61.18,-192.35 -101.65,-252.01 -40.48,-59.65 -80.66,-94.34 -103.79,-115.34 -23.13,-21 -29.22,-28.31 -28.91,-35.01 0.31,-6.69 6.99,-12.78 31.65,-16.43 24.65,-3.65 67.27,-4.87 104.4,10.35 37.13,15.22 68.78,46.87 95.57,94.05 26.78,47.18 48.69,109.87 64.52,189.31 15.83,79.44 25.57,175.61 25.91,292.29 0.33,116.68 -8.74,253.85 -38.48,382.99 -29.73,129.14 -80.14,250.24 -130.54,334.6 -50.4,84.36 -100.81,131.96 -163.45,162.05 -62.66,30.1 -137.56,42.7 -205.11,21.35 -67.56,-21.35 -127.76,-76.65 -166.96,-129.15 -39.2,-52.5 -57.4,-102.2 -64.4,-130.55 -7,-28.35 -2.8,-35.36 3.4,-35.87 6.19,-0.52 14.37,5.44 34.31,29.72zm1517.73 3564.5c-34.28,-51.63 -92.67,-142.04 -128.46,-247.52 -35.79,-105.48 -48.97,-226.01 -46.14,-354.09 2.82,-128.08 21.65,-263.68 65.44,-429.9 43.79,-166.22 112.53,-363.04 183.16,-557.51 70.63,-194.47 143.15,-386.58 208.61,-592.83 65.45,-206.23 123.83,-426.61 149.26,-630.49 25.43,-203.89 17.89,-391.29 -14.12,-541.5 -32.02,-150.2 -88.53,-263.22 -147.85,-332.43 -59.33,-69.22 -121.49,-94.64 -178.94,-105.47 -57.44,-10.83 -110.18,-7.07 -166.22,8.47 -56.03,15.54 -115.37,42.85 -187.41,80.99 -72.05,38.15 -156.8,87.11 -234.02,131.37 -77.23,44.27 -146.91,83.81 -211.42,110.18 -64.52,26.38 -123.84,39.56 -153.97,51.33 -30.14,11.78 -31.09,22.13 -18.84,27.31 12.24,5.18 37.66,5.18 89.46,0.47 51.79,-4.71 129.95,-14.12 221.78,-48.02 91.82,-33.91 197.29,-92.29 285.82,-138.91 88.52,-46.62 160.09,-81.45 221.3,-103.59 61.21,-22.13 112.07,-31.55 165.76,-22.6 53.67,8.95 110.17,36.26 150.2,86.64 40.03,50.38 63.56,123.84 80.52,205.3 16.95,81.46 27.31,170.93 19.12,316.54 -8.2,145.62 -34.94,347.38 -75.48,531.47 -40.54,184.08 -94.89,350.5 -163.25,556.69 -68.36,206.19 -150.76,452.14 -226.08,656.89 -75.32,204.75 -143.54,368.28 -187.94,502.04 -44.41,133.76 -64.98,237.72 -71.15,341.69 -6.16,103.99 2.08,207.99 29.95,291.93 27.87,83.93 75.36,147.8 132.28,195.3 56.92,47.5 123.25,78.62 167.06,95.82 43.81,17.2 65.1,20.47 77.4,16.78 12.28,-3.68 15.55,-14.32 12.09,-26.08 -3.45,-11.75 -13.65,-24.63 -47.94,-76.27zm-2794.21 -41.36c-67.91,-29.99 -200.4,-84.99 -303.52,-166.23 -103.12,-81.25 -176.86,-188.74 -221.87,-306.23 -44.99,-117.5 -61.24,-244.99 -58.12,-365.6 3.12,-120.62 25.63,-234.37 99.38,-346.24 73.74,-111.87 198.73,-221.86 324.35,-292.48 125.62,-70.61 251.87,-101.86 397.71,-144.67 145.85,-42.8 311.31,-97.15 410.33,-159.03 99.03,-61.88 131.64,-131.27 140.84,-197.74 9.19,-66.47 -5.03,-130.01 -24.25,-186.87 -19.23,-56.85 -43.49,-107.02 -57.7,-131.26 -14.21,-24.24 -18.39,-22.57 -20.89,-17.13 -2.52,5.44 -3.35,14.62 0,56.43 3.33,41.81 10.87,116.21 7.52,185.19 -3.35,68.98 -17.56,132.53 -56.43,186.87 -38.88,54.35 -102.43,99.49 -167.64,131.68 -65.22,32.19 -132.1,51.43 -209.44,61.46 -77.34,10.03 -165.12,10.87 -234.93,15.47 -69.82,4.6 -121.65,12.95 -183.94,40.13 -62.29,27.18 -135.03,73.15 -204.84,142.97 -69.81,69.81 -136.7,163.45 -188.12,274.65 -51.42,111.2 -87.38,239.96 -106.19,378.75 -18.81,138.79 -20.49,287.6 1.26,411.35 21.74,123.74 66.89,222.4 130.85,302.66 63.96,80.27 146.73,142.14 241.21,170.56 94.47,28.43 200.66,23.4 262.44,17.05 61.78,-6.36 79.15,-14.06 86.18,-20.41 7.03,-6.34 3.71,-11.32 -64.19,-41.32z"/>
 </g>
</svg>
