<?xml version="1.0" encoding="UTF-8"?>
<!DOCTYPE svg PUBLIC "-//W3C//DTD SVG 1.1//EN" "http://www.w3.org/Graphics/SVG/1.1/DTD/svg11.dtd">
<!-- Creator: CorelDRAW 2020 (64-Bit) -->
<svg xmlns="http://www.w3.org/2000/svg" xml:space="preserve" width="100.513mm" height="22.5888mm" version="1.1" style="shape-rendering:geometricPrecision; text-rendering:geometricPrecision; image-rendering:optimizeQuality; fill-rule:evenodd; clip-rule:evenodd"
viewBox="0 0 10034.91 2255.2"
 xmlns:xlink="http://www.w3.org/1999/xlink"
 xmlns:xodm="http://www.corel.com/coreldraw/odm/2003">
 <defs>
  <style type="text/css">
   <![CDATA[
    .fil0 {fill:#FEFEFE;fill-rule:nonzero}
    .fil1 {fill:#D3A12F;fill-rule:nonzero}
   ]]>
  </style>
 </defs>
 <g id="Слой_x0020_1">
  <metadata id="CorelCorpID_0Corel-Layer"/>
  <g id="_2625039864704">
   <path class="fil0" d="M-0 615.93l505.78 0c114.14,0 201.09,5.37 260.88,16.32 80.25,14.75 149.31,41.03 206.53,78.88 57.56,37.65 101.04,83.85 131.08,138.63 29.74,54.58 44.76,122.1 44.76,202.17 0,70.51 -14.05,131.07 -42.19,182.05 -34.21,62.35 -83.12,112.75 -146.75,151.18 -47.95,29.28 -112.86,51.99 -194.38,68.32 -61.06,12.15 -142.6,18.13 -244.9,18.13l-520.81 0 0 -855.69zm278.15 144.6l0 566.49 206.21 0c77.04,0 132.68,-2.8 166.9,-8.17 45.08,-6.98 82.16,-18.93 111.58,-35.66 29.73,-16.73 53.7,-44.22 72.26,-82.46 18.86,-38.25 28.12,-90.63 28.12,-156.76 0,-66.13 -9.26,-116.72 -28.12,-152.17 -18.56,-35.46 -44.78,-62.95 -78.33,-82.86 -33.58,-19.72 -76.11,-33.27 -127.89,-40.23 -38.37,-5.38 -114.13,-8.17 -226.68,-8.17l-124.05 0zm1107.18 711.09l0 -855.69 584.11 0c146.75,0 253.53,7.77 320.03,23.1 66.83,15.33 119.9,42.62 159.85,81.87 39.97,39.44 60.11,84.25 60.11,134.85 0,64.34 -30.04,117.32 -90.47,159.14 -60.43,41.83 -150.58,68.13 -270.79,79.08 59.77,21.71 109.01,45.62 147.7,71.7 39.01,26.1 91.44,72.5 157.3,139.03l167.52 166.92 -331.54 0 -198.87 -186.84c-71.29,-66.33 -120.2,-108.15 -146.74,-125.49 -26.22,-17.13 -54.03,-29.08 -83.44,-35.45 -29.74,-6.38 -76.43,-9.56 -140.36,-9.56l-56.26 0 0 357.34 -278.15 0zm278.15 -493.58l205.25 0c133,0 215.81,-3.58 249.05,-10.55 32.94,-6.97 59.15,-19.12 77.69,-36.25 18.86,-17.13 28.14,-38.65 28.14,-64.34 0,-28.88 -12.47,-51.99 -37.09,-69.92 -24.61,-17.73 -59.46,-28.88 -104.22,-33.47 -22.71,-1.99 -90.16,-2.99 -202.38,-2.99l-216.45 0 0 217.51zm1097.58 493.58l0 -855.69 278.14 0 0 855.69 -278.14 0zm542.55 0l0 -855.69 444.7 0c168.51,0 278.17,4.17 329.31,12.74 78.65,12.95 144.51,40.83 197.59,83.86 53.06,43.02 79.6,98.59 79.6,166.72 0,52.58 -15.34,96.6 -45.73,132.45 -30.69,35.85 -69.37,63.94 -116.37,84.45 -47,20.32 -94.95,33.86 -143.56,40.43 -66.18,8.17 -161.77,12.35 -287.1,12.35l-180.31 0 0 322.68 -278.15 0zm278.15 -711.09l0 243.8 151.22 0c109.02,0 181.59,-4.58 218.35,-13.55 36.78,-8.97 65.54,-22.9 86.33,-42.22 20.79,-19.13 31.33,-41.23 31.33,-66.73 0,-31.27 -14.72,-56.97 -43.8,-77.28 -29.42,-20.32 -66.18,-33.07 -111.26,-38.24 -32.94,-3.79 -99.12,-5.78 -198.88,-5.78l-133.3 0z"/>
   <path class="fil1" d="M4709.62 1003.28l284.64 -28.26c17.16,95.21 51.48,164.86 103.62,209.61 52.15,44.75 122.47,66.95 210.96,66.95 93.54,0 164.18,-19.85 211.62,-59.54 47.44,-39.71 71.32,-86.14 71.32,-139.29 0,-34.31 -10.09,-63.26 -29.94,-87.48 -19.85,-23.89 -54.84,-44.75 -104.63,-62.24 -33.98,-12.12 -111.37,-32.98 -232.49,-63.26 -155.78,-39.03 -265.12,-86.8 -328.03,-143.67 -88.49,-79.74 -132.56,-176.97 -132.56,-291.69 0,-73.69 20.87,-143 62.25,-207.25 41.71,-64.27 101.6,-113.05 180,-146.69 78.39,-33.65 172.6,-50.47 283.63,-50.47 180.68,0 316.93,40.03 408.11,120.44 91.51,80.41 139.28,187.4 144,321.65l-292.71 10.09c-12.45,-74.69 -39.03,-128.19 -79.74,-160.82 -40.7,-32.64 -101.94,-49.13 -183.36,-49.13 -84.11,0 -150.06,17.5 -197.5,52.49 -30.61,22.53 -46.08,52.48 -46.08,90.16 0,34.31 14.47,63.59 43.4,87.82 36.67,31.29 125.83,63.59 267.47,97.23 141.65,33.31 246.28,68.3 313.91,103.96 67.96,36 121.12,84.78 159.48,147.03 38.35,62.24 57.53,138.95 57.53,230.12 0,82.77 -22.87,160.49 -68.97,232.83 -46.09,72.33 -111.03,126.16 -195.14,161.16 -84.11,35.32 -189.08,52.82 -314.58,52.82 -182.69,0 -322.99,-42.06 -420.9,-126.51 -97.9,-84.1 -156.11,-206.91 -175.28,-368.07zm1423.17 468.34l0 -1445.38 1069.9 0 0 244.26 -777.19 0 0 320.98 722.69 0 0 244.26 -722.69 0 0 391.62 805.46 0 0 244.26 -1098.17 0zm1346.46 0l0 -1445.38 1069.9 0 0 244.26 -777.19 0 0 320.98 722.69 0 0 244.26 -722.69 0 0 391.62 805.46 0 0 244.26 -1098.17 0zm1346.46 -1445.38l532.26 0c120.11,0 211.62,9.09 274.54,27.59 84.45,24.89 157.12,69.31 217.35,133.23 60.56,63.59 106.32,141.64 137.94,234.17 31.29,92.18 47.1,206.24 47.1,341.49 0,119.1 -14.81,221.38 -44.41,307.51 -36,105.31 -87.48,190.43 -154.43,255.36 -50.47,49.46 -118.77,87.82 -204.57,115.4 -64.26,20.53 -150.06,30.62 -257.72,30.62l-548.08 0 0 -1445.38zm292.71 244.26l0 956.86 217.01 0c81.09,0 139.63,-4.71 175.63,-13.8 47.43,-11.77 86.46,-31.96 117.42,-60.22 31.29,-28.26 56.52,-74.69 76.04,-139.29 19.85,-64.59 29.61,-153.08 29.61,-264.78 0,-111.7 -9.76,-197.16 -29.61,-257.05 -19.52,-59.88 -47.1,-106.32 -82.43,-139.96 -35.33,-33.31 -80.08,-56.19 -134.58,-67.96 -40.37,-9.09 -120.11,-13.8 -238.54,-13.8l-130.55 0z"/>
  </g>
  <path class="fil0" d="M164.1 1938.9l0 28.92 -46.99 0 0 197.01 -29.82 0 0 -197.01 -47.44 0 0 -28.92 47.44 0 0 -72.29 29.82 0 0 72.29 46.99 0zm221.18 197.24c-23.04,22.74 -51.14,34.11 -84.27,34.11 -33.14,0 -61.22,-11.37 -84.26,-34.11 -23.05,-22.74 -34.57,-50.84 -34.57,-84.27 0,-33.44 11.52,-61.53 34.57,-84.27 23.04,-22.74 51.13,-34.11 84.26,-34.11 33.14,0 61.23,11.37 84.27,34.11 23.04,22.74 34.57,50.84 34.57,84.27 0,33.44 -11.53,61.53 -34.57,84.27zm-147.53 -20.79c17.17,17.32 38.26,25.99 63.26,25.99 25.01,0 46.09,-8.67 63.27,-25.99 17.17,-17.32 25.76,-38.48 25.76,-63.49 0,-25 -8.59,-46.16 -25.76,-63.49 -17.17,-17.32 -38.26,-25.98 -63.27,-25.98 -25,0 -46.08,8.66 -63.26,25.98 -17.17,17.32 -25.76,38.49 -25.76,63.49 0,25.01 8.59,46.16 25.76,63.49zm344.77 -221.63l0 -45.19 29.82 0 0 45.19 -29.82 0zm0 271.11l0 -225.93 29.82 0 0 225.93 -29.82 0zm310.87 -231.35c20.19,0 37.13,6.93 50.84,20.79 13.7,13.86 20.56,33.29 20.56,58.29l0 152.27 -29.82 0 0 -152.27c0,-16.87 -4.22,-29.45 -12.65,-37.73 -8.44,-8.29 -19.13,-12.43 -32.09,-12.43 -14.16,0 -26.89,5.19 -38.18,15.58 -11.3,10.39 -16.94,27.19 -16.94,50.39l0 136.46 -29.83 0 0 -152.27c0,-16.87 -4.21,-29.45 -12.65,-37.73 -8.44,-8.29 -19.13,-12.43 -32.08,-12.43 -14.16,0 -26.89,5.19 -38.19,15.58 -11.29,10.39 -16.94,27.19 -16.94,50.39l0 136.46 -29.82 0 0 -225.93 29.82 0 0 26.22c14.47,-21.1 34.64,-31.64 60.55,-31.64 12.65,0 24.4,3.31 35.24,9.94 10.84,6.63 19.28,15.96 25.31,28.01 14.76,-25.3 37.05,-37.96 66.87,-37.96zm250.33 0c32.23,0 59.71,11.45 82.46,34.34 22.74,22.89 34.11,50.91 34.11,84.04 0,33.14 -11.37,61.15 -34.11,84.04 -22.74,22.9 -50.23,34.34 -82.46,34.34 -40.06,0 -70.49,-16.56 -91.28,-49.7l0 134.65 -29.82 0 0 -316.3 29.82 0 0 44.29c20.79,-33.14 51.22,-49.71 91.28,-49.71zm-65.52 181.87c17.17,17.32 38.26,25.99 63.26,25.99 25.01,0 46.09,-8.67 63.27,-25.99 17.16,-17.32 25.75,-38.48 25.75,-63.49 0,-25 -8.59,-46.16 -25.75,-63.49 -17.17,-17.32 -38.26,-25.98 -63.27,-25.98 -25,0 -46.08,8.66 -63.26,25.98 -17.17,17.32 -25.76,38.49 -25.76,63.49 0,25.01 8.59,46.16 25.76,63.49zm261.62 -142.11c15.36,-25.3 39.17,-37.96 71.39,-37.96l0 28.92c-20.49,0 -37.5,6.02 -51.06,18.07 -13.56,12.05 -20.34,31.03 -20.34,56.94l0 125.62 -29.82 0 0 -225.93 29.82 0 0 34.34zm288.06 162.89c-23.04,22.74 -51.14,34.11 -84.27,34.11 -33.14,0 -61.22,-11.37 -84.26,-34.11 -23.05,-22.74 -34.57,-50.84 -34.57,-84.27 0,-33.44 11.52,-61.53 34.57,-84.27 23.04,-22.74 51.13,-34.11 84.26,-34.11 33.14,0 61.23,11.37 84.27,34.11 23.04,22.74 34.57,50.84 34.57,84.27 0,33.44 -11.53,61.53 -34.57,84.27zm-147.53 -20.79c17.17,17.32 38.26,25.99 63.26,25.99 25.01,0 46.09,-8.67 63.27,-25.99 17.17,-17.32 25.76,-38.48 25.76,-63.49 0,-25 -8.59,-46.16 -25.76,-63.49 -17.17,-17.32 -38.26,-25.98 -63.27,-25.98 -25,0 -46.08,8.66 -63.26,25.98 -17.17,17.32 -25.76,38.49 -25.76,63.49 0,25.01 8.59,46.16 25.76,63.49zm369.62 -176.45l31.63 0 -83.59 225.93 -29.82 0 -6.32 0 -83.59 -225.93 31.63 0 70.04 193.39 70.04 -193.39zm167.64 -5.42c33.14,0 59.71,11.75 79.75,35.25 20.03,23.49 30.05,51.51 30.05,84.04 0,3.31 -0.31,7.98 -0.91,14.01l-29.82 0 -164.02 0c3.02,22.89 12.28,41.04 27.78,54.45 15.51,13.4 34.72,20.11 57.62,20.11 16.26,0 30.42,-3.54 42.47,-10.62 12.05,-7.08 20.64,-16.34 25.76,-27.78l32.99 0c-6.33,19.88 -18.68,36.07 -37.05,48.57 -18.38,12.5 -39.91,18.75 -64.61,18.75 -34.34,0 -62.21,-11.14 -83.59,-33.44 -21.4,-22.29 -32.09,-50.61 -32.09,-84.95 0,-33.73 10.69,-61.9 32.09,-84.49 21.39,-22.59 49.25,-33.89 83.59,-33.89zm0 28.92c-23.5,0 -42.85,6.93 -58.07,20.79 -15.22,13.86 -24.17,32.08 -26.89,54.67l164.02 0c-2.72,-23.79 -11.45,-42.32 -26.21,-55.58 -14.76,-13.25 -32.39,-19.88 -52.86,-19.88zm369.61 -23.5l0 28.92 -46.99 0 0 197.01 -29.82 0 0 -197.01 -47.44 0 0 -28.92 47.44 0 0 -72.29 29.82 0 0 72.29 46.99 0zm140.08 -5.42c21.69,0 39.91,7.61 54.67,22.82 14.77,15.22 22.14,35.47 22.14,60.77l0 147.76 -29.82 0 0 -147.76c0,-17.47 -4.82,-30.95 -14.46,-40.43 -9.64,-9.49 -22.29,-14.24 -37.96,-14.24 -17.77,0 -32.91,6.02 -45.42,18.07 -12.5,12.05 -18.75,31.03 -18.75,56.94l0 127.42 -29.82 0 0 -316.29 29.82 0 0 120.19c15.66,-23.5 38.86,-35.25 69.59,-35.25zm236.77 0c33.14,0 59.71,11.75 79.75,35.25 20.03,23.49 30.05,51.51 30.05,84.04 0,3.31 -0.31,7.98 -0.91,14.01l-29.82 0 -164.02 0c3.02,22.89 12.28,41.04 27.78,54.45 15.51,13.4 34.72,20.11 57.62,20.11 16.26,0 30.42,-3.54 42.47,-10.62 12.05,-7.08 20.64,-16.34 25.76,-27.78l32.99 0c-6.33,19.88 -18.68,36.07 -37.05,48.57 -18.38,12.5 -39.91,18.75 -64.61,18.75 -34.34,0 -62.21,-11.14 -83.59,-33.44 -21.4,-22.29 -32.09,-50.61 -32.09,-84.95 0,-33.73 10.69,-61.9 32.09,-84.49 21.39,-22.59 49.25,-33.89 83.59,-33.89zm0 28.92c-23.5,0 -42.85,6.93 -58.07,20.79 -15.22,13.86 -24.17,32.08 -26.89,54.67l164.02 0c-2.72,-23.79 -11.45,-42.32 -26.21,-55.58 -14.76,-13.25 -32.39,-19.88 -52.86,-19.88zm462.25 -23.5l29.82 0 0 316.3 -29.82 0 0 -134.65c-20.79,33.14 -51.22,49.7 -91.28,49.7 -32.23,0 -59.72,-11.44 -82.47,-34.34 -22.74,-22.89 -34.11,-50.91 -34.11,-84.04 0,-33.14 11.37,-61.15 34.11,-84.04 22.74,-22.89 50.24,-34.34 82.47,-34.34 40.06,0 70.49,16.57 91.28,49.71l0 -44.29zm-152.28 176.45c17.17,17.32 38.26,25.99 63.26,25.99 25.01,0 46.09,-8.67 63.27,-25.99 17.17,-17.32 25.76,-38.48 25.76,-63.49 0,-25 -8.59,-46.16 -25.76,-63.49 -17.17,-17.32 -38.26,-25.98 -63.27,-25.98 -25,0 -46.08,8.66 -63.26,25.98 -17.17,17.32 -25.76,38.49 -25.76,63.49 0,25.01 8.59,46.16 25.76,63.49zm386.34 -176.45l29.82 0 0 225.93 -29.82 0 0 -29.82c-15.66,23.49 -38.86,35.24 -69.59,35.24 -21.68,0 -39.91,-7.61 -54.67,-22.81 -14.77,-15.22 -22.14,-35.47 -22.14,-60.78l0 -147.76 29.82 0 0 147.76c0,17.47 4.82,30.95 14.46,40.44 9.64,9.48 22.29,14.24 37.96,14.24 17.77,0 32.92,-6.03 45.42,-18.08 12.5,-12.05 18.75,-31.03 18.75,-56.93l0 -127.43zm174.42 -5.42c25.6,0 46.31,7.61 62.13,22.82 15.81,15.22 23.72,35.77 23.72,61.68l0 146.85 -29.82 0 0 -25.31c-14.46,20.49 -37.81,30.73 -70.04,30.73 -22.29,0 -41.34,-6.33 -57.17,-18.98 -15.81,-12.65 -23.72,-30.57 -23.72,-53.77 0,-23.19 7.91,-41.11 23.72,-53.76 15.82,-12.66 34.87,-18.98 57.17,-18.98 31.33,0 54.67,9.78 70.04,29.37l0 -36.15c0,-18.98 -5.35,-32.99 -16.04,-42.02 -10.69,-9.04 -24.02,-13.56 -39.98,-13.56 -15.66,0 -28.92,3.99 -39.77,11.97 -10.84,7.99 -16.26,19.51 -16.26,34.57l-29.82 0c0,-21.69 7.98,-39.7 23.94,-54 15.96,-14.31 36.6,-21.46 61.91,-21.46zm-6.78 208.76c18.07,0 33.06,-4.21 44.96,-12.65 11.9,-8.44 17.85,-19.13 17.85,-32.09 0,-13.55 -5.88,-24.4 -17.62,-32.53 -11.75,-8.14 -26.82,-12.2 -45.19,-12.2 -19.28,0 -33.81,4.06 -43.61,12.2 -9.78,8.13 -14.69,18.98 -14.69,32.53 0,13.56 4.9,24.4 14.69,32.54 9.79,8.14 24.33,12.2 43.61,12.2zm249.87 -208.76c21.69,0 39.91,7.61 54.67,22.82 14.77,15.22 22.14,35.47 22.14,60.77l0 147.76 -29.82 0 0 -147.76c0,-17.47 -4.82,-30.95 -14.46,-40.43 -9.64,-9.49 -22.29,-14.24 -37.96,-14.24 -17.77,0 -32.91,6.02 -45.42,18.07 -12.5,12.05 -18.75,31.03 -18.75,56.94l0 127.42 -29.82 0 0 -225.93 29.82 0 0 29.83c15.66,-23.5 38.86,-35.25 69.59,-35.25zm236.31 5.42l0 28.92 -46.99 0 0 197.01 -29.82 0 0 -197.01 -47.44 0 0 -28.92 47.44 0 0 -72.29 29.82 0 0 72.29 46.99 0zm40.67 -45.18l0 -45.19 29.82 0 0 45.19 -29.82 0zm0 271.11l0 -225.93 29.82 0 0 225.93 -29.82 0zm194.74 -225.93l0 28.92 -46.99 0 0 197.01 -29.82 0 0 -197.01 -47.44 0 0 -28.92 47.44 0 0 -72.29 29.82 0 0 72.29 46.99 0zm185.27 0l31.63 0 -112.51 316.3 -31.63 0 32.53 -92.18 -91.72 -224.12 31.63 0 75.01 182.55 65.06 -182.55zm262.08 -5.42c25.6,0 46.31,7.61 62.13,22.82 15.81,15.22 23.72,35.77 23.72,61.68l0 146.85 -29.82 0 0 -25.31c-14.46,20.49 -37.81,30.73 -70.04,30.73 -22.29,0 -41.34,-6.33 -57.17,-18.98 -15.81,-12.65 -23.72,-30.57 -23.72,-53.77 0,-23.19 7.91,-41.11 23.72,-53.76 15.82,-12.66 34.87,-18.98 57.17,-18.98 31.33,0 54.67,9.78 70.04,29.37l0 -36.15c0,-18.98 -5.35,-32.99 -16.04,-42.02 -10.69,-9.04 -24.02,-13.56 -39.98,-13.56 -15.66,0 -28.92,3.99 -39.77,11.97 -10.84,7.99 -16.26,19.51 -16.26,34.57l-29.82 0c0,-21.69 7.98,-39.7 23.94,-54 15.96,-14.31 36.6,-21.46 61.91,-21.46zm-6.78 208.76c18.07,0 33.06,-4.21 44.96,-12.65 11.9,-8.44 17.85,-19.13 17.85,-32.09 0,-13.55 -5.88,-24.4 -17.62,-32.53 -11.75,-8.14 -26.82,-12.2 -45.19,-12.2 -19.28,0 -33.81,4.06 -43.61,12.2 -9.78,8.13 -14.69,18.98 -14.69,32.53 0,13.56 4.9,24.4 14.69,32.54 9.79,8.14 24.33,12.2 43.61,12.2zm249.87 -208.76c21.69,0 39.91,7.61 54.67,22.82 14.77,15.22 22.14,35.47 22.14,60.77l0 147.76 -29.82 0 0 -147.76c0,-17.47 -4.82,-30.95 -14.46,-40.43 -9.64,-9.49 -22.29,-14.24 -37.96,-14.24 -17.77,0 -32.91,6.02 -45.42,18.07 -12.5,12.05 -18.75,31.03 -18.75,56.94l0 127.42 -29.82 0 0 -225.93 29.82 0 0 29.83c15.66,-23.5 38.86,-35.25 69.59,-35.25zm328.95 -84.94l29.82 0 0 316.29 -29.82 0 0 -44.28c-20.79,33.14 -51.22,49.7 -91.28,49.7 -32.23,0 -59.72,-11.44 -82.47,-34.34 -22.74,-22.89 -34.11,-50.91 -34.11,-84.04 0,-33.14 11.37,-61.15 34.11,-84.04 22.74,-22.89 50.24,-34.34 82.47,-34.34 40.06,0 70.49,16.57 91.28,49.71l0 -134.65zm-152.28 266.81c17.17,17.32 38.26,25.99 63.26,25.99 25.01,0 46.09,-8.67 63.27,-25.99 17.17,-17.32 25.76,-38.48 25.76,-63.49 0,-25 -8.59,-46.16 -25.76,-63.49 -17.17,-17.32 -38.26,-25.98 -63.27,-25.98 -25,0 -46.08,8.66 -63.26,25.98 -17.17,17.32 -25.76,38.49 -25.76,63.49 0,25.01 8.59,46.16 25.76,63.49zm552.63 -176.45l29.82 0 0 316.3 -29.82 0 0 -134.65c-20.79,33.14 -51.22,49.7 -91.28,49.7 -32.23,0 -59.72,-11.44 -82.47,-34.34 -22.74,-22.89 -34.11,-50.91 -34.11,-84.04 0,-33.14 11.37,-61.15 34.11,-84.04 22.74,-22.89 50.24,-34.34 82.47,-34.34 40.06,0 70.49,16.57 91.28,49.71l0 -44.29zm-152.28 176.45c17.17,17.32 38.26,25.99 63.26,25.99 25.01,0 46.09,-8.67 63.27,-25.99 17.17,-17.32 25.76,-38.48 25.76,-63.49 0,-25 -8.59,-46.16 -25.76,-63.49 -17.17,-17.32 -38.26,-25.98 -63.27,-25.98 -25,0 -46.08,8.66 -63.26,25.98 -17.17,17.32 -25.76,38.49 -25.76,63.49 0,25.01 8.59,46.16 25.76,63.49zm386.34 -176.45l29.82 0 0 225.93 -29.82 0 0 -29.82c-15.66,23.49 -38.86,35.24 -69.59,35.24 -21.68,0 -39.91,-7.61 -54.67,-22.81 -14.77,-15.22 -22.14,-35.47 -22.14,-60.78l0 -147.76 29.82 0 0 147.76c0,17.47 4.82,30.95 14.46,40.44 9.64,9.48 22.29,14.24 37.96,14.24 17.77,0 32.92,-6.03 45.42,-18.08 12.5,-12.05 18.75,-31.03 18.75,-56.93l0 -127.43zm174.42 -5.42c25.6,0 46.31,7.61 62.13,22.82 15.81,15.22 23.72,35.77 23.72,61.68l0 146.85 -29.82 0 0 -25.31c-14.46,20.49 -37.81,30.73 -70.04,30.73 -22.29,0 -41.34,-6.33 -57.17,-18.98 -15.81,-12.65 -23.72,-30.57 -23.72,-53.77 0,-23.19 7.91,-41.11 23.72,-53.76 15.82,-12.66 34.87,-18.98 57.17,-18.98 31.33,0 54.67,9.78 70.04,29.37l0 -36.15c0,-18.98 -5.35,-32.99 -16.04,-42.02 -10.69,-9.04 -24.02,-13.56 -39.98,-13.56 -15.66,0 -28.92,3.99 -39.77,11.97 -10.84,7.99 -16.26,19.51 -16.26,34.57l-29.82 0c0,-21.69 7.98,-39.7 23.94,-54 15.96,-14.31 36.6,-21.46 61.91,-21.46zm-6.78 208.76c18.07,0 33.06,-4.21 44.96,-12.65 11.9,-8.44 17.85,-19.13 17.85,-32.09 0,-13.55 -5.88,-24.4 -17.62,-32.53 -11.75,-8.14 -26.82,-12.2 -45.19,-12.2 -19.28,0 -33.81,4.06 -43.61,12.2 -9.78,8.13 -14.69,18.98 -14.69,32.53 0,13.56 4.9,24.4 14.69,32.54 9.79,8.14 24.33,12.2 43.61,12.2zm150.46 22.59l0 -325.33 29.82 0 0 325.33 -29.82 0zm93.08 -271.11l0 -45.19 29.82 0 0 45.19 -29.82 0zm0 271.11l0 -225.93 29.82 0 0 225.93 -29.82 0zm194.74 -225.93l0 28.92 -46.99 0 0 197.01 -29.82 0 0 -197.01 -47.44 0 0 -28.92 47.44 0 0 -72.29 29.82 0 0 72.29 46.99 0zm185.27 0l31.63 0 -112.51 316.3 -31.63 0 32.53 -92.18 -91.72 -224.12 31.63 0 75.01 182.55 65.06 -182.55zm370.3 197.24c-23.04,22.74 -51.14,34.11 -84.27,34.11 -33.14,0 -61.22,-11.37 -84.26,-34.11 -23.05,-22.74 -34.57,-50.84 -34.57,-84.27 0,-33.44 11.52,-61.53 34.57,-84.27 23.04,-22.74 51.13,-34.11 84.26,-34.11 33.14,0 61.23,11.37 84.27,34.11 23.04,22.74 34.57,50.84 34.57,84.27 0,33.44 -11.53,61.53 -34.57,84.27zm-147.53 -20.79c17.17,17.32 38.26,25.99 63.26,25.99 25.01,0 46.09,-8.67 63.27,-25.99 17.17,-17.32 25.76,-38.48 25.76,-63.49 0,-25 -8.59,-46.16 -25.76,-63.49 -17.17,-17.32 -38.26,-25.98 -63.27,-25.98 -25,0 -46.08,8.66 -63.26,25.98 -17.17,17.32 -25.76,38.49 -25.76,63.49 0,25.01 8.59,46.16 25.76,63.49zm337.99 -243.32c-21.99,-1.81 -38.34,1.96 -49.03,11.3 -10.69,9.33 -16.04,24.85 -16.04,46.53l0 9.04 65.07 0 0 28.92 -65.07 0 0 197.01 -29.82 0 0 -197.01 -38.41 0 0 -28.92 38.41 0 0 -9.04c0,-29.52 8.21,-51.89 24.63,-67.1 16.41,-15.21 39.84,-21.76 70.27,-19.65l0 28.91zm167.64 126.06c0,10.54 4.59,18.83 13.79,24.86 9.19,6.02 20.26,10.61 33.21,13.78 12.96,3.16 25.91,6.7 38.87,10.62 12.95,3.91 24.02,10.69 33.21,20.33 9.19,9.64 13.78,22.29 13.78,37.96 0,18.68 -7.75,34.11 -23.26,46.31 -15.51,12.2 -35.62,18.3 -60.32,18.3 -25.31,0 -45.57,-6.4 -60.78,-19.2 -15.21,-12.81 -22.81,-30.05 -22.81,-51.75l29.82 0c0,14.77 4.97,25.46 14.91,32.09 9.94,6.63 22.89,9.94 38.87,9.94 15.35,0 28.16,-2.95 38.41,-8.82 10.23,-5.87 15.35,-14.84 15.35,-26.89 0,-10.54 -4.59,-18.83 -13.78,-24.85 -9.19,-6.03 -20.26,-10.62 -33.22,-13.79 -12.95,-3.15 -25.9,-6.7 -38.86,-10.61 -12.95,-3.91 -24.02,-10.69 -33.21,-20.34 -9.19,-9.63 -13.79,-22.29 -13.79,-37.96 0,-18.67 7.46,-34.11 22.37,-46.31 14.91,-12.2 33.8,-18.3 56.71,-18.3 23.19,0 42.17,6.48 56.93,19.44 14.77,12.95 22.14,30.12 22.14,51.51l-29.82 0c0,-14.46 -4.74,-25.08 -14.24,-31.86 -9.48,-6.78 -21.16,-10.16 -35.01,-10.16 -13.26,0 -24.78,3.02 -34.57,9.04 -9.78,6.03 -14.69,14.92 -14.69,26.66zm305.91 -64.61c32.23,0 59.71,11.45 82.46,34.34 22.74,22.89 34.11,50.91 34.11,84.04 0,33.14 -11.37,61.15 -34.11,84.04 -22.74,22.9 -50.23,34.34 -82.46,34.34 -40.06,0 -70.49,-16.56 -91.28,-49.7l0 134.65 -29.82 0 0 -316.3 29.82 0 0 44.29c20.79,-33.14 51.22,-49.71 91.28,-49.71zm-65.52 181.87c17.17,17.32 38.26,25.99 63.26,25.99 25.01,0 46.09,-8.67 63.27,-25.99 17.16,-17.32 25.75,-38.48 25.75,-63.49 0,-25 -8.59,-46.16 -25.75,-63.49 -17.17,-17.32 -38.26,-25.98 -63.27,-25.98 -25,0 -46.08,8.66 -63.26,25.98 -17.17,17.32 -25.76,38.49 -25.76,63.49 0,25.01 8.59,46.16 25.76,63.49zm333.93 -181.87c33.14,0 59.71,11.75 79.75,35.25 20.03,23.49 30.05,51.51 30.05,84.04 0,3.31 -0.31,7.98 -0.91,14.01l-29.82 0 -164.02 0c3.02,22.89 12.28,41.04 27.78,54.45 15.51,13.4 34.72,20.11 57.62,20.11 16.26,0 30.42,-3.54 42.47,-10.62 12.05,-7.08 20.64,-16.34 25.76,-27.78l32.99 0c-6.33,19.88 -18.68,36.07 -37.05,48.57 -18.38,12.5 -39.91,18.75 -64.61,18.75 -34.34,0 -62.21,-11.14 -83.59,-33.44 -21.4,-22.29 -32.09,-50.61 -32.09,-84.95 0,-33.73 10.69,-61.9 32.09,-84.49 21.39,-22.59 49.25,-33.89 83.59,-33.89zm0 28.92c-23.5,0 -42.85,6.93 -58.07,20.79 -15.22,13.86 -24.17,32.08 -26.89,54.67l164.02 0c-2.72,-23.79 -11.45,-42.32 -26.21,-55.58 -14.76,-13.25 -32.39,-19.88 -52.86,-19.88zm184.8 10.84c15.36,-25.3 39.17,-37.96 71.39,-37.96l0 28.92c-20.49,0 -37.5,6.02 -51.06,18.07 -13.56,12.05 -20.34,31.03 -20.34,56.94l0 125.62 -29.82 0 0 -225.93 29.82 0 0 34.34zm329.85 -39.77c20.19,0 37.13,6.93 50.84,20.79 13.7,13.86 20.56,33.29 20.56,58.29l0 152.27 -29.82 0 0 -152.27c0,-16.87 -4.22,-29.45 -12.65,-37.73 -8.44,-8.29 -19.13,-12.43 -32.09,-12.43 -14.16,0 -26.89,5.19 -38.18,15.58 -11.3,10.39 -16.94,27.19 -16.94,50.39l0 136.46 -29.83 0 0 -152.27c0,-16.87 -4.21,-29.45 -12.65,-37.73 -8.44,-8.29 -19.13,-12.43 -32.08,-12.43 -14.16,0 -26.89,5.19 -38.19,15.58 -11.29,10.39 -16.94,27.19 -16.94,50.39l0 136.46 -29.82 0 0 -225.93 29.82 0 0 26.22c14.47,-21.1 34.64,-31.64 60.55,-31.64 12.65,0 24.4,3.31 35.24,9.94 10.84,6.63 19.28,15.96 25.31,28.01 14.76,-25.3 37.05,-37.96 66.87,-37.96zm210.57 0c25.6,0 46.31,7.61 62.13,22.82 15.81,15.22 23.72,35.77 23.72,61.68l0 146.85 -29.82 0 0 -25.31c-14.46,20.49 -37.81,30.73 -70.04,30.73 -22.29,0 -41.34,-6.33 -57.17,-18.98 -15.81,-12.65 -23.72,-30.57 -23.72,-53.77 0,-23.19 7.91,-41.11 23.72,-53.76 15.82,-12.66 34.87,-18.98 57.17,-18.98 31.33,0 54.67,9.78 70.04,29.37l0 -36.15c0,-18.98 -5.35,-32.99 -16.04,-42.02 -10.69,-9.04 -24.02,-13.56 -39.98,-13.56 -15.66,0 -28.92,3.99 -39.77,11.97 -10.84,7.99 -16.26,19.51 -16.26,34.57l-29.82 0c0,-21.69 7.98,-39.7 23.94,-54 15.96,-14.31 36.6,-21.46 61.91,-21.46zm-6.78 208.76c18.07,0 33.06,-4.21 44.96,-12.65 11.9,-8.44 17.85,-19.13 17.85,-32.09 0,-13.55 -5.88,-24.4 -17.62,-32.53 -11.75,-8.14 -26.82,-12.2 -45.19,-12.2 -19.28,0 -33.81,4.06 -43.61,12.2 -9.78,8.13 -14.69,18.98 -14.69,32.53 0,13.56 4.9,24.4 14.69,32.54 9.79,8.14 24.33,12.2 43.61,12.2zm252.13 -203.34l0 28.92 -46.99 0 0 197.01 -29.82 0 0 -197.01 -47.44 0 0 -28.92 47.44 0 0 -72.29 29.82 0 0 72.29 46.99 0zm221.18 197.24c-23.04,22.74 -51.14,34.11 -84.27,34.11 -33.14,0 -61.22,-11.37 -84.26,-34.11 -23.05,-22.74 -34.57,-50.84 -34.57,-84.27 0,-33.44 11.52,-61.53 34.57,-84.27 23.04,-22.74 51.13,-34.11 84.26,-34.11 33.14,0 61.23,11.37 84.27,34.11 23.04,22.74 34.57,50.84 34.57,84.27 0,33.44 -11.53,61.53 -34.57,84.27zm-147.53 -20.79c17.17,17.32 38.26,25.99 63.26,25.99 25.01,0 46.09,-8.67 63.27,-25.99 17.17,-17.32 25.76,-38.48 25.76,-63.49 0,-25 -8.59,-46.16 -25.76,-63.49 -17.17,-17.32 -38.26,-25.98 -63.27,-25.98 -25,0 -46.08,8.66 -63.26,25.98 -17.17,17.32 -25.76,38.49 -25.76,63.49 0,25.01 8.59,46.16 25.76,63.49zm250.78 20.56l130.14 0 0 28.92 -171.71 0 0 -19.88 125.62 -177.13 -121.09 0 0 -28.92 162.66 0 0 19.89 -125.62 177.12zm355.83 0.23c-23.04,22.74 -51.14,34.11 -84.27,34.11 -33.14,0 -61.22,-11.37 -84.26,-34.11 -23.05,-22.74 -34.57,-50.84 -34.57,-84.27 0,-33.44 11.52,-61.53 34.57,-84.27 23.04,-22.74 51.13,-34.11 84.26,-34.11 33.14,0 61.23,11.37 84.27,34.11 23.04,22.74 34.57,50.84 34.57,84.27 0,33.44 -11.53,61.53 -34.57,84.27zm-147.53 -20.79c17.17,17.32 38.26,25.99 63.26,25.99 25.01,0 46.09,-8.67 63.27,-25.99 17.17,-17.32 25.76,-38.48 25.76,-63.49 0,-25 -8.59,-46.16 -25.76,-63.49 -17.17,-17.32 -38.26,-25.98 -63.27,-25.98 -25,0 -46.08,8.66 -63.26,25.98 -17.17,17.32 -25.76,38.49 -25.76,63.49 0,25.01 8.59,46.16 25.76,63.49zm308.62 -181.87c25.6,0 46.31,7.61 62.13,22.82 15.81,15.22 23.72,35.77 23.72,61.68l0 146.85 -29.82 0 0 -25.31c-14.46,20.49 -37.81,30.73 -70.04,30.73 -22.29,0 -41.34,-6.33 -57.17,-18.98 -15.81,-12.65 -23.72,-30.57 -23.72,-53.77 0,-23.19 7.91,-41.11 23.72,-53.76 15.82,-12.66 34.87,-18.98 57.17,-18.98 31.33,0 54.67,9.78 70.04,29.37l0 -36.15c0,-18.98 -5.35,-32.99 -16.04,-42.02 -10.69,-9.04 -24.02,-13.56 -39.98,-13.56 -15.66,0 -28.92,3.99 -39.77,11.97 -10.84,7.99 -16.26,19.51 -16.26,34.57l-29.82 0c0,-21.69 7.98,-39.7 23.94,-54 15.96,-14.31 36.6,-21.46 61.91,-21.46zm-6.78 208.76c18.07,0 33.06,-4.21 44.96,-12.65 11.9,-8.44 17.85,-19.13 17.85,-32.09 0,-13.55 -5.88,-24.4 -17.62,-32.53 -11.75,-8.14 -26.82,-12.2 -45.19,-12.2 -19.28,0 -33.81,4.06 -43.61,12.2 -9.78,8.13 -14.69,18.98 -14.69,32.53 0,13.56 4.9,24.4 14.69,32.54 9.79,8.14 24.33,12.2 43.61,12.2z"/>
 </g>
</svg>
