<?xml version="1.0" encoding="UTF-8"?>
<!DOCTYPE svg PUBLIC "-//W3C//DTD SVG 1.1//EN" "http://www.w3.org/Graphics/SVG/1.1/DTD/svg11.dtd">
<!-- Creator: CorelDRAW 2020 (64-Bit) -->
<svg xmlns="http://www.w3.org/2000/svg" xml:space="preserve" width="31.5149mm" height="12.6383mm" version="1.1" style="shape-rendering:geometricPrecision; text-rendering:geometricPrecision; image-rendering:optimizeQuality; fill-rule:evenodd; clip-rule:evenodd"
viewBox="0 0 745.69 299.04"
 xmlns:xlink="http://www.w3.org/1999/xlink"
 xmlns:xodm="http://www.corel.com/coreldraw/odm/2003">
 <defs>
  <style type="text/css">
   <![CDATA[
    .fil0 {fill:#13814B}
    .fil1 {fill:#FEFEFE;fill-rule:nonzero}
   ]]>
  </style>
 </defs>
 <g id="Слой_x0020_1">
  <metadata id="CorelCorpID_0Corel-Layer"/>
  <g id="_2626028325552">
   <polygon class="fil0" points="-0,0 596.17,0 745.69,149.52 745.69,149.52 596.17,299.04 -0,299.04 "/>
   <path class="fil1" d="M215.84 102.64l-56.67 0 0 37.09 55.21 0 0 27.5 -55.21 0 0 53.75 -28.75 0 0 -145.85 28.75 0 56.67 0 0 27.5zm108.45 108.66c-10.07,8.4 -22.75,12.61 -38.03,12.61 -15.28,0 -27.95,-4.2 -38.02,-12.61 -10.07,-8.4 -15.11,-20.04 -15.11,-34.9l0 -101.26 28.75 0 0 98.97c0,14.45 8.13,21.67 24.38,21.67 16.39,0 24.59,-7.22 24.59,-21.67l0 -98.97 28.55 0 0 101.26c0,14.86 -5.04,26.5 -15.11,34.9zm68.86 -17.81l54.17 0 0 27.5 -82.92 0 0 -145.85 28.75 0 0 118.35zm98.97 0l54.17 0 0 27.5 -82.92 0 0 -145.85 28.75 0 0 118.35z"/>
  </g>
 </g>
</svg>
