<?xml version="1.0" encoding="UTF-8"?>
<!DOCTYPE svg PUBLIC "-//W3C//DTD SVG 1.1//EN" "http://www.w3.org/Graphics/SVG/1.1/DTD/svg11.dtd">
<!-- Creator: CorelDRAW 2020 (64-Bit) -->
<svg xmlns="http://www.w3.org/2000/svg" xml:space="preserve" width="166.259mm" height="20.5804mm" version="1.1" style="shape-rendering:geometricPrecision; text-rendering:geometricPrecision; image-rendering:optimizeQuality; fill-rule:evenodd; clip-rule:evenodd"
viewBox="0 0 11443.75 1416.57"
 xmlns:xlink="http://www.w3.org/1999/xlink"
 xmlns:xodm="http://www.corel.com/coreldraw/odm/2003">
 <defs>
  <style type="text/css">
   <![CDATA[
    .fil0 {fill:#FEFEFE;fill-rule:nonzero}
   ]]>
  </style>
 </defs>
 <g id="Слой_x0020_1">
  <metadata id="CorelCorpID_0Corel-Layer"/>
  <path class="fil0" d="M272.41 1400.67l-272.41 0 0 -1389.32 272.41 0 0 1389.32zm1221.34 -458.57l0 -930.76 272.41 0 0 1389.32 -272.41 0 -635.64 -930.75 0 930.75 -272.42 0 0 -1389.32 272.42 0 635.64 930.76zm1486.94 0l0 -930.76 272.41 0 0 1389.32 -272.41 0 -635.64 -930.75 0 930.75 -272.42 0 0 -1389.32 272.42 0 635.64 930.76zm803.63 -236.1c0,62.05 7.94,120.7 23.84,175.94 15.89,55.24 40.86,103.29 74.92,144.15 34.05,40.86 77.56,73.02 130.53,96.48 52.97,23.46 116.53,35.19 190.69,35.19 74.16,0 137.72,-11.73 190.7,-35.19 52.97,-23.46 96.48,-55.62 130.53,-96.48 34.05,-40.86 59.02,-88.92 74.92,-144.15 15.89,-55.24 23.84,-113.89 23.84,-175.94 0,-62.05 -7.95,-120.7 -23.84,-175.93 -15.89,-55.24 -40.86,-103.29 -74.92,-144.15 -34.05,-40.86 -77.57,-73.02 -130.53,-96.48 -52.97,-23.46 -116.54,-35.19 -190.7,-35.19 -74.16,0 -137.72,11.73 -190.69,35.19 -52.97,23.46 -96.48,55.62 -130.53,96.48 -34.05,40.86 -59.02,88.91 -74.92,144.15 -15.89,55.24 -23.84,113.88 -23.84,175.93zm-272.42 0c0,-96.86 15.51,-188.42 46.54,-274.68 31.02,-86.27 76.04,-161.18 135.07,-224.75 59.03,-63.56 131.67,-113.88 217.93,-150.96 86.27,-37.08 183.88,-55.62 292.85,-55.62 108.97,0 206.58,18.54 292.85,55.62 86.27,37.08 158.91,87.4 217.93,150.96 59.02,63.57 104.05,138.48 135.07,224.75 31.03,86.27 46.54,177.82 46.54,274.68 0,98.37 -15.51,190.32 -46.54,275.83 -31.02,85.5 -76.05,160.04 -135.07,223.6 -59.02,63.57 -131.67,113.89 -217.93,150.97 -86.27,37.08 -183.88,55.62 -292.85,55.62 -108.97,0 -206.58,-18.54 -292.85,-55.62 -86.26,-37.08 -158.9,-87.4 -217.93,-150.97 -59.02,-63.57 -104.04,-138.1 -135.07,-223.6 -31.03,-85.51 -46.54,-177.45 -46.54,-275.83zm1866.05 0c0,63.57 7.19,122.59 21.56,177.07 14.38,54.48 38.59,101.77 72.64,141.88 34.05,40.11 79.46,71.51 136.21,94.21 56.75,22.7 126.75,34.05 209.99,34.05 71.13,0 141.5,-5.67 211.12,-17.02 69.62,-11.35 126.37,-27.62 170.26,-48.81l0 279.23c-55.99,16.64 -118.05,29.13 -186.15,37.46 -68.11,8.32 -137.72,12.49 -208.85,12.49 -111.99,0 -211.5,-18.54 -298.53,-55.62 -87.02,-37.08 -160.04,-87.4 -219.07,-150.96 -59.02,-63.57 -104.04,-138.48 -135.07,-224.75 -31.03,-86.27 -46.54,-178.58 -46.54,-276.95 0,-98.37 15.51,-190.69 46.54,-276.95 31.02,-86.27 76.04,-161.18 135.07,-224.75 59.03,-63.56 132.05,-113.88 219.07,-150.96 87.02,-37.08 186.53,-55.62 298.53,-55.62 71.13,0 140.75,4.16 208.85,12.49 68.1,8.33 130.15,20.81 186.15,37.46l0 279.23c-43.89,-21.19 -100.64,-37.46 -170.26,-48.81 -69.62,-11.35 -139.99,-17.02 -211.12,-17.02 -83.24,0 -153.24,11.35 -209.99,34.05 -56.75,22.7 -102.16,54.1 -136.21,94.21 -34.05,40.11 -58.27,87.02 -72.64,140.75 -14.38,53.72 -21.56,111.61 -21.56,173.66zm2063.55 440.41l0 254.25 -998.86 0 0 -1389.32 998.86 0 0 254.26 -726.44 0 0 313.28 590.23 0 0 254.25 -590.23 0 0 313.28 726.44 0zm1135.07 -204.31l0 -930.76 272.41 0 0 1389.32 -272.41 0 -635.64 -930.75 0 930.75 -272.42 0 0 -1389.32 272.42 0 635.64 930.76zm803.63 -236.1c0,63.57 7.19,122.59 21.56,177.07 14.38,54.48 38.59,101.77 72.64,141.88 34.05,40.11 79.46,71.51 136.21,94.21 56.75,22.7 126.75,34.05 209.99,34.05 71.13,0 141.5,-5.67 211.12,-17.02 69.62,-11.35 126.37,-27.62 170.26,-48.81l0 279.23c-55.99,16.64 -118.05,29.13 -186.15,37.46 -68.11,8.32 -137.72,12.49 -208.85,12.49 -111.99,0 -211.5,-18.54 -298.53,-55.62 -87.02,-37.08 -160.04,-87.4 -219.07,-150.96 -59.02,-63.57 -104.04,-138.48 -135.07,-224.75 -31.03,-86.27 -46.54,-178.58 -46.54,-276.95 0,-98.37 15.51,-190.69 46.54,-276.95 31.02,-86.27 76.04,-161.18 135.07,-224.75 59.03,-63.56 132.05,-113.88 219.07,-150.96 87.02,-37.08 186.53,-55.62 298.53,-55.62 71.13,0 140.75,4.16 208.85,12.49 68.1,8.33 130.15,20.81 186.15,37.46l0 279.23c-43.89,-21.19 -100.64,-37.46 -170.26,-48.81 -69.62,-11.35 -139.99,-17.02 -211.12,-17.02 -83.24,0 -153.24,11.35 -209.99,34.05 -56.75,22.7 -102.16,54.1 -136.21,94.21 -34.05,40.11 -58.27,87.02 -72.64,140.75 -14.38,53.72 -21.56,111.61 -21.56,173.66zm2063.55 440.41l0 254.25 -998.86 0 0 -1389.32 998.86 0 0 254.26 -726.44 0 0 313.28 590.23 0 0 254.25 -590.23 0 0 313.28 726.44 0z"/>
 </g>
</svg>
