<?xml version="1.0" encoding="UTF-8"?>
<!DOCTYPE svg PUBLIC "-//W3C//DTD SVG 1.1//EN" "http://www.w3.org/Graphics/SVG/1.1/DTD/svg11.dtd">
<!-- Creator: CorelDRAW 2020 (64-Bit) -->
<svg xmlns="http://www.w3.org/2000/svg" xml:space="preserve" width="76.2387mm" height="82.2797mm" version="1.1" style="shape-rendering:geometricPrecision; text-rendering:geometricPrecision; image-rendering:optimizeQuality; fill-rule:evenodd; clip-rule:evenodd"
viewBox="0 0 5473.82 5907.55"
 xmlns:xlink="http://www.w3.org/1999/xlink"
 xmlns:xodm="http://www.corel.com/coreldraw/odm/2003">
 <defs>
  <style type="text/css">
   <![CDATA[
    .fil0 {fill:}
   ]]>
  </style>
 </defs>
 <g id="Слой_x0020_1">
  <metadata id="CorelCorpID_0Corel-Layer"/>
  <path class="fil0" d="M2404.42 1049.28c-5.87,10.33 -12.01,20.58 -18.47,30.82 -37.65,59.65 -82.17,117.45 -124.43,173.97 -50.1,67 -100.18,134.01 -149.93,201.28 -44.97,60.81 -90.84,122.65 -128.8,188.14 -28.92,49.89 -58.48,110.43 -73.41,166.3 -10.43,39.02 -10.36,64.6 9.84,99.94 24.36,42.63 67.23,86.77 103.45,119.65 45.92,41.7 96.46,78.51 144.85,117.3 50.57,40.55 103.71,86.16 140.27,139.95 35.57,52.33 54.01,111.24 57.18,174.26 3.33,66.37 -10.59,131.59 -34.05,193.42 -27.32,71.99 -67.51,141.77 -106.99,207.73 -42.96,71.82 -87.89,142.46 -131.69,213.77 -41.82,68.06 -82.71,136.73 -122.9,205.75 -33.73,57.92 -66.72,116.04 -97.85,175.41 -35.35,67.42 -67.72,135.45 -94.82,206.66 -31.68,83.24 -56.95,169.58 -82.4,254.91 -23.56,79.04 -47.09,158.17 -72.01,236.79 -16.16,50.98 -32.98,101.84 -50.64,152.33 -2.3,6.58 -9.28,29.71 -14.52,35.04 -10.58,10.77 -29.14,2.91 -28.48,-12.36 0.06,-1.45 0.32,-2.81 0.63,-4.22 0.88,-3.96 1.87,-7.92 2.81,-11.88 9.68,-40.48 20.29,-80.79 30.89,-121.04 28.64,-108.82 58.06,-217.84 90.42,-325.6 28.75,-95.74 60.66,-189.18 97.79,-282 38.08,-95.23 80.44,-187.89 127.73,-278.9 55.65,-107.11 116.77,-211.96 178.07,-315.93 52.58,-89.17 108.64,-179.88 154.52,-272.6 29.05,-58.7 55.91,-123.66 67.09,-188.51 7.69,-44.65 7.33,-86.44 -5.67,-129.98 -15.05,-50.42 -43.66,-88.11 -80.74,-124.76 -57.8,-57.12 -128.4,-108.45 -192.13,-159.28 -48.89,-38.99 -110.4,-87.86 -146.8,-138.87 -31.79,-44.54 -40.01,-86.45 -40.82,-140.38 -1.19,-79.32 16.96,-149.42 48.17,-222.15 47.22,-110.01 122.04,-228.64 194.02,-324.86 60.89,-81.38 129.55,-157.63 205.1,-225.67 38.9,-35.04 77.79,-65.52 120.53,-95.5 13.29,-9.33 26.54,-18.7 39.65,-28.27 14.51,-10.6 33.13,-2.36 29.47,15.67 -1.13,5.58 -5.19,13.71 -7.52,18.99 -4.23,9.59 -8.57,19.02 -13.07,28.3 5.92,1.84 10.98,7.35 12.13,16.24 1.16,8.95 3.17,18.01 5.12,26.8 6.67,30.11 15.88,57.32 29.36,85.19 22.55,46.63 53.88,93.18 83.21,135.84 36.18,52.64 73.91,104.17 106.56,159.14 36.65,61.7 64.3,124.95 87.57,192.79 25.52,74.4 44.53,151.77 70.88,225.43 3.81,10.66 17.91,53.58 33,54.64 15.44,1.09 42.91,-17.48 55.03,-25.59 46.85,-31.33 91.67,-64.61 139.27,-95.33 78.51,-50.65 160.98,-98.24 244.8,-139.57 83.83,-41.33 171.83,-77.25 261.36,-104.21 71.47,-21.53 144.1,-37 217.81,-48.49 42.7,-6.66 85.32,-11.88 128.3,-16.14 5.05,-0.5 17.55,-2.32 22.4,-1.32 18.47,3.8 16.93,28.81 -0.37,32.6 -1.03,0.22 -2.07,0.4 -3.11,0.6 -3.5,0.62 -7,1.18 -10.5,1.77 -36.78,6.13 -73.05,13.31 -109.4,21.66 -66.78,15.33 -133.6,33.8 -198.29,56.38 -74.23,25.89 -146.05,57.8 -216.04,93.52 -73.34,37.44 -146.36,79.34 -214.13,126.08 -56.79,39.15 -108.94,83.34 -164.82,123.13 -34.47,24.55 -74.96,49.67 -115.75,62.03 -26.82,8.13 -57.09,11.57 -82.65,-2.45 -22.83,-12.51 -36.37,-35.92 -45.79,-59.33 -14.55,-36.16 -24.63,-80.67 -35.31,-118.36 -25.41,-89.69 -53.55,-179.73 -91.77,-264.88 -39.07,-87.06 -88.41,-165.61 -136.71,-247.43 -28.2,-47.77 -58.57,-100.83 -77.66,-153.04 -10.15,-27.78 -17.35,-56.9 -18.65,-86.53 -0.07,-1.61 -0.13,-3.21 -0.16,-4.8zm1121.91 2502.17c-26.94,-2.84 -53.96,-6.74 -80.67,-10.53 -92.38,-13.1 -184.59,-27.23 -277.19,-38.72 -85.86,-10.65 -170.97,-18.34 -257.48,-20.28 -83.81,-1.88 -170.58,0.34 -253.69,11.11 -70.53,9.14 -139.53,25.31 -206.16,50.29 -51.79,19.42 -105.69,45.17 -149.66,79.09 -30.19,23.29 -57.98,52.59 -79.22,84.32 -5.48,8.2 -10.4,16.51 -14.86,25.3 -2.97,5.84 -5.73,12.06 -9.38,17.48 -7.42,10.99 -19.85,20.05 -33.69,18.83 -13.04,-1.15 -22.95,-11.21 -26.54,-23.41 -3.02,-10.29 -0.99,-20.61 1.29,-30.79 3.44,-15.34 5.41,-27.74 5.64,-43.67 0.41,-27.66 -2.96,-57.89 -8.38,-85.04 -5.25,-26.29 -13.57,-54.41 -25.36,-78.55 -7.23,-14.8 -15.62,-27.33 -25.89,-40.08 -1.88,-2.34 -4.02,-4.82 -5.7,-7.3 -8.66,-12.76 1.58,-29.04 16.78,-26.34 7.82,1.39 16.36,8.61 22.38,13.44 21.88,17.55 40.11,37.7 53.3,62.67 15.54,29.42 24.91,66.33 31.38,98.82 0.92,4.63 1.82,9.29 2.64,13.96 4.67,-3.9 9.4,-7.7 14.09,-11.47 36.98,-29.62 75.32,-55.08 117.62,-76.59 60,-30.51 128.38,-54.63 193.96,-70.25 66.65,-15.88 133.32,-22.65 201.58,-26 71.58,-3.53 143.12,-3.39 214.7,0.45 85.33,4.58 170.41,14.3 255.04,25.93 90.57,12.46 181.09,26.82 271.26,41.89 26.12,4.37 53.22,8.44 79.11,14.1 1.18,0.26 2.38,0.51 3.56,0.81 12.67,3.2 15.97,16.42 10.82,25.09 52.79,-6.89 105.6,-13.56 158.39,-20.2 23.56,-2.96 47.19,-6.12 70.79,-8.77 8.09,-0.9 15.92,-2.12 21.9,6.51 6.99,10.09 0.56,22.83 -10.24,25.78 -1.02,0.27 -2.05,0.52 -3.07,0.77 -34.59,8.42 -72.05,13.79 -107.13,19.46 -120.33,19.49 -240.75,37.79 -360.9,58.51 -127.89,22.06 -256.14,46.4 -382.02,78.17 -109.62,27.67 -217.08,61.49 -323.32,100.12 -92.35,33.58 -183.11,70.64 -274.42,106.85 -64.22,25.47 -138.19,55.72 -207.08,63.48 -54.83,6.19 -111.52,-1.64 -161.89,-24.46 -40.92,-18.54 -73.89,-45.51 -100.59,-81.55 -22.37,-30.18 -38.99,-64.53 -53.07,-99.23 -8.54,-21.05 -16.08,-42.21 -23.07,-63.81 -1.1,-3.39 -2.27,-6.81 -3.25,-10.22 -5.23,-18.06 16.4,-30.24 28.47,-16.28 3.7,4.3 7.8,8.51 11.66,12.66 19.5,20.97 38.24,42.15 56.38,64.34 27.12,33.17 54.48,70.26 86.13,99.08 26.57,24.19 53.07,38.16 88.46,43.92 41.76,6.78 86.24,0.85 127.04,-8.91 65.96,-15.78 133.9,-42.58 197.44,-66.41 95.33,-35.75 190.48,-71.56 287.54,-102.48 103.38,-32.94 208.59,-60.35 314.45,-84.07 113,-25.34 226.22,-45.53 340.74,-62.66 59.7,-8.92 119.52,-17.22 179.39,-25.19zm-952.41 -2812.52c-14.86,10.76 -30.5,20.43 -47.21,28.64 -37.87,18.6 -77.28,27.85 -119.5,28.29 -40.01,0.42 -88.89,-6.76 -126.35,-20.27 -22.06,-7.96 -39.55,-17.96 -55.91,-34.69 -3.22,-3.29 -6.87,-6.64 -8.61,-10.99 -6.2,-15.49 8.7,-26.38 23.64,-21.4 11.43,3.81 23.04,7.17 34.64,10.44 28.71,8.13 58.66,15.79 88.34,19.06 31.78,3.5 60.3,0.95 90.86,-8.94 36.46,-11.78 72.2,-32.29 103.39,-54.32 37.15,-26.24 72.01,-57.47 103.81,-89.98 26.39,-26.97 51.05,-55.36 75.29,-84.26 3.59,-4.29 10.42,-13.26 14.86,-16.44 14.55,-10.44 32.99,5.33 23.9,22.72 -1.25,2.38 -2.64,4.73 -3.98,7.06 -14.02,24.38 -29.11,47.04 -46.2,69.45 -28.82,37.81 -62.11,75.63 -96.16,108.79 -10.75,10.46 -21.78,20.56 -33.22,30.05 7.56,1.44 14.06,8.41 14.14,18.36 0.09,10.92 -2.19,22.82 -4.26,33.49 -6.13,31.66 -12.54,61.7 -15.4,94.03 -3.48,39.37 -2.28,81.28 6.68,119.93 9.13,39.4 26.54,75.24 49.83,108.22 23.35,33.04 53.05,64.42 84.27,90.02 26.75,21.93 54.06,38.64 86.77,49.95 34.33,11.87 71.39,17.15 107.55,19 44.42,2.27 87.05,-1.08 130.01,-13.13 54.36,-15.25 108.52,-43.43 157.57,-70.99 53.59,-30.13 105.98,-62.65 158.05,-95.33 9.53,-5.98 19.16,-12.29 28.86,-17.94 1.09,-0.64 2.19,-1.26 3.33,-1.78 13.81,-6.3 28.53,7.08 22.62,21.35 -1.46,3.51 -3.5,5.45 -6.1,7.85 -12.61,11.6 -26.26,22.3 -39.81,32.77 -38.74,29.93 -79.04,57.86 -121.19,82.81 -53.5,31.66 -113.05,60.91 -171.73,81.45 -55.85,19.56 -109.49,29.8 -168.86,25.7 -60.91,-4.2 -124.54,-22.56 -177.87,-52.6 -52.13,-29.37 -98.23,-72.14 -132.94,-120.78 -28.49,-39.91 -50.23,-85.39 -62.23,-132.98 -9.69,-38.43 -11.7,-74.33 -7.93,-113.56 3.24,-33.63 9.92,-69 19.23,-101.44 4.77,-16.63 10.38,-32.1 17.85,-47.6zm-2429.89 1579.52c-9.15,11.95 -18.58,23.89 -28.37,34.76 -0.57,0.64 -1.15,1.28 -1.76,1.89 -11.72,11.73 -33.27,0.41 -27.86,-16.54 1.03,-3.25 3.51,-6.75 5.39,-9.61 11.93,-18.19 24.22,-36.22 36.36,-54.27 63.41,-94.3 131.3,-193.39 208.82,-276.68 73.57,-79.05 151.14,-134.16 247.93,-181.08 81.02,-39.29 165.36,-68.9 248.37,-103.26 65.27,-27.02 132.65,-58.32 191.57,-97.53 47.09,-31.34 86.09,-66.94 120.85,-111.41 39.76,-50.88 74.09,-110.17 109.39,-164.46 54.16,-83.29 112.04,-166.64 175.71,-243.01 52.99,-63.56 118.94,-133.23 186.33,-181.67 37.2,-26.74 75.07,-46.54 120.64,-53.63 20.41,-3.17 40.6,-4.05 61.09,-1.23 7.62,1.05 15,2.45 22.26,5.04 16.05,5.72 16.82,26.59 1.03,32.15 -3.07,1.08 -7.08,1.51 -10.32,2 -16.48,2.44 -32.3,5.72 -48.39,10.15 -28.92,7.96 -57.61,18.9 -84.09,32.99 -37.3,19.83 -69.41,46.34 -100.05,75.2 -47,44.27 -92.18,94.35 -132.84,144.49 -44.11,54.39 -82.96,111.37 -120.27,170.61 -43.88,69.67 -86.57,143.72 -138.18,207.86 -46.47,57.76 -96.54,99.77 -160.68,136.15 -62.97,35.73 -131.79,63.33 -198.64,90.97 -63.99,26.44 -128.01,53.19 -190.09,83.9 -61,30.18 -119.21,64.04 -173.11,105.82 -60.06,46.55 -113.61,101.61 -162.93,159.25 -48.9,57.14 -94.1,117.05 -139.66,176.82 11.03,-4.11 23.49,4.65 22.45,17.3 -0.17,2.05 -0.62,4.19 -1,6.21 -2.18,12.01 -5.23,23.33 -9.2,34.91 -8.12,23.69 -19.16,46.68 -31.81,68.27 -16.87,28.79 -36.57,56 -54.26,84.31 -14.47,23.15 -28.78,48.51 -33.54,75.72 -5.5,31.4 2.46,65.9 10.71,96.12 13.13,48.14 30.16,95.43 45.42,142.95 7.14,22.23 13.83,44.5 19.01,67.28 0.43,1.9 0.9,3.83 1.23,5.76 3.15,17.7 -17.43,27.94 -28.84,14.96 -3.05,-3.47 -6.08,-10.92 -8.06,-15.19 -12.71,-27.41 -24.89,-54.95 -36.48,-82.87 -17.41,-41.89 -35.43,-86.75 -47.72,-130.37 -8.49,-30.11 -12.82,-57.09 -9.1,-88.3 3.56,-29.85 13.07,-54.55 27.81,-80.67 20.2,-35.78 45.58,-69.41 67.24,-104.51 17.22,-27.89 31.72,-56.23 46.54,-85.35 0.34,-0.66 0.71,-1.4 1.1,-2.19zm1711.12 3480.68c0.08,26.56 0.24,53.13 0.13,79.69 -0.04,9.4 1.29,19.97 -8.06,25.93 -12.38,7.9 -24.4,-2.25 -27.22,-14.26 -3.17,-13.54 -3.19,-34.78 -3.75,-48.61 -2.3,-56.79 -3.46,-113.76 -4.44,-170.57 -1.39,-80.99 -1.97,-162.17 -6.05,-243.07 -3.63,-71.98 -10.86,-142.39 -22.08,-213.55 -11.76,-74.56 -27.09,-149.17 -49.61,-221.29 -22.29,-71.4 -51.7,-140.43 -82.71,-208.42 -25.4,-55.67 -52.67,-110.99 -76.37,-167.35 -16.91,-40.19 -33.78,-85.22 -38.23,-128.83 -3.09,-30.28 -0.25,-60.58 6.34,-90.2 2.72,-12.24 5.5,-29.06 19.68,-32.83 16.15,-4.3 25.29,9.71 26.08,23.89 0.89,15.9 -0.36,28.14 2.19,44.86 5.46,35.84 20.24,73.96 34.42,107.09 30.78,71.92 64.64,140.27 92.22,214.01 35.31,94.41 62.78,194 84.21,292.46 24.78,113.82 38.26,224.66 44.68,341 7.52,136.17 8.19,273.66 8.57,410.06zm-649.51 -3867.28c6.55,-9.31 13.37,-19.4 20.69,-28.14 11.79,-14.09 32.83,-5.27 30.28,12.16 -0.43,2.99 -1.73,6.46 -2.69,9.36 -6.38,19.35 -15.09,36.62 -25.47,54.16 -23.08,38.97 -51.82,77.5 -79.82,113.05 -37.23,47.31 -76.7,92.84 -112.3,141.44 -32.95,44.97 -62.77,92.99 -83.42,144.94 -18.83,47.34 -30.39,98.62 -34.09,149.43 -3.47,47.59 0.5,92.65 11.66,139.01 11.98,49.77 31.2,98.96 54.75,144.37 27.05,52.16 60.61,99.51 97.08,145.44 40.77,51.35 84.34,100.04 126.15,150.45 12.29,14.8 29.8,35.15 38.21,52.73 9.44,19.74 -11.67,34.77 -27.24,20.23 -7.17,-6.69 -14.18,-14.45 -20.97,-21.55 -37.74,-39.36 -75.34,-79.02 -111.2,-120.1 -39.22,-44.94 -74.6,-90.62 -106.38,-141.12 -32.01,-50.86 -62.26,-107.59 -83.39,-163.79 -17.91,-47.65 -28.55,-95.24 -31.82,-146.04 -2.88,-44.9 0.02,-89.15 9.17,-133.21 10.43,-50.29 28.44,-95.97 52.51,-141.25 29.52,-55.53 67.09,-111.27 105.31,-161.26 32.94,-43.09 69.01,-82.91 102.87,-125.08 24.8,-30.88 47.37,-62.85 70.13,-95.21zm329.99 1551.75c15.8,23.94 31.66,47.9 47.21,72.01 2.86,4.42 6.68,9.84 8.96,14.6 7.02,14.68 -7.82,29.83 -22.24,22.5 -2.83,-1.44 -4.52,-3.21 -6.46,-5.51 -4.16,-4.93 -8.22,-10.02 -12.3,-15.03 -32.69,-40.15 -63.44,-81.48 -93.6,-123.57 -64.88,-90.54 -128.15,-183.96 -186.98,-278.53 -52.13,-83.8 -102.82,-172.17 -141.56,-263.06 -29.31,-68.75 -50.79,-138.31 -59.34,-212.75 -8.01,-69.67 -4.24,-138.13 10.93,-206.66 16.31,-73.74 44.95,-146.89 80.1,-213.72 34.14,-64.93 75.33,-124.58 115.18,-185.94 32.73,-50.39 63.46,-101.59 91.08,-154.96 24.24,-46.81 47.3,-95.99 66.41,-145.13 10.1,-25.98 18.56,-51.7 25.6,-78.64 0.67,-2.53 1.31,-5.08 2.02,-7.6 5.84,-20.96 34.52,-16.61 33.05,4.06 -0.42,5.81 -2.3,13.58 -3.38,19.36 -8.05,43.06 -18.3,84.06 -32.32,125.67 -22.86,67.85 -53.96,136.43 -90.98,197.73 -38.89,64.4 -86.73,122.8 -125.58,187.07 -35.94,59.47 -64.33,124.74 -85.69,190.8 -18.8,58.17 -31.23,115.19 -32.28,176.44 -1.23,70.78 13.07,138.91 35.02,205.91 35.12,107.22 89.07,211.77 145.51,309.11 72.24,124.58 152.33,245.62 231.64,365.81zm-330.42 -42.31c-40.36,-80.28 -80.71,-161.9 -127.88,-238.39 -42.68,-69.19 -89.41,-127.51 -147.65,-183.93 -51.72,-50.1 -107.35,-95.49 -162.01,-142.23 -39.81,-34.03 -80.74,-69.85 -111.66,-112.44 -27.28,-37.57 -47.66,-81.08 -59.2,-126.06 -11.84,-46.12 -13.1,-90.38 -5.56,-137.47 8.57,-53.53 27.27,-108.46 49.38,-157.92 22.57,-50.51 50.83,-99.35 84.86,-143.02 28.63,-36.74 60.78,-67.55 91.35,-102.08 14.38,-16.25 26.54,-32.43 37.56,-51.06 2.3,-3.9 4.9,-8.85 8.41,-11.72 11.7,-9.49 28.32,0.46 27.26,14.71 -0.11,1.54 -0.38,3.07 -0.64,4.58 -2.47,14.54 -7.4,27.07 -14.2,40.16 -13.47,25.89 -32.35,52.25 -50.05,75.42 -21.98,28.8 -45.6,56.29 -66.59,85.86 -22.6,31.86 -40.72,64.75 -56.27,100.58 -19.34,44.59 -34.66,92.39 -41.15,140.66 -7.17,53.33 -3.09,105.46 17.63,155.52 22.19,53.64 63.1,105.92 102.67,148.03 36.67,39.02 75.98,71.81 117.84,104.95 46.58,36.88 92.35,73 135.9,113.58 58.84,54.8 107.83,112.26 143.5,185.01 35.58,72.57 57.4,155 76.32,233.31 3.56,14.72 7.26,29.49 10.6,44.26 0.55,2.46 1.21,5.17 1.4,7.68 1.13,15.72 -17.32,24.23 -28.53,13.2 -8.35,-8.22 -28.2,-51.08 -33.29,-61.2zm-677.2 -1158.82c3.3,-6.68 6.67,-13.96 10.46,-20.39 9.73,-16.48 33.64,-7.75 31.02,11.01 -0.47,3.4 -1.22,6.92 -1.86,10.3 -4.23,22.31 -10.09,42.38 -19.95,62.99 -14.61,30.53 -36.1,60.44 -55.11,88.5 -20.28,29.96 -41.08,60.95 -57.07,93.45 -13.94,28.33 -23.83,57.91 -28.28,89.23 -4.56,32.01 -2.94,63.4 1.94,95.28 5.71,37.27 15.72,76.61 30.42,111.42 15.01,35.55 35.79,66.65 58.44,97.72 23.61,32.42 48.49,63.82 72.62,95.84 11.27,14.94 22.21,30.02 32.52,45.64 1.02,1.54 2.09,3.1 2.97,4.72 8.48,15.37 -9.74,32.49 -24.41,21.91 -4.33,-3.12 -9.51,-8.69 -13.37,-12.46 -25.34,-24.6 -49.74,-49.65 -73.03,-76.23 -34.98,-39.91 -67.55,-83.08 -91.63,-130.53 -24.02,-47.31 -41,-101.54 -49.06,-153.94 -6.64,-43.15 -6.69,-84.28 3.26,-126.9 9.69,-41.53 27.56,-79.75 49.71,-116.02 23.97,-39.26 52.23,-75.55 77.2,-114.09 16.33,-25.21 29.95,-50.58 43.18,-77.46zm-231.65 -0.21c-22.06,46.6 -43.63,92.31 -60.61,141.14 -18.66,53.67 -32.78,112.57 -37.6,169.18 -4.29,50.58 0.31,94.82 13.27,143.82 14.28,54 36.29,108.82 63.63,157.63 29.49,52.64 65.95,97.87 108.68,140.32 50.16,49.81 106.82,95.15 163.11,137.85 50.39,38.22 101.84,74.99 153.52,111.43 9.04,6.38 18.43,12.72 27.25,19.39 9.05,6.84 13.35,19.27 2.53,27.99 -6.02,4.85 -12.26,4.32 -18.49,1.87 -20.22,-7.94 -47.52,-27.15 -65.52,-38.9 -67.97,-44.31 -136.53,-90.96 -201.57,-139.41 -47.49,-35.38 -89.12,-70.92 -130.45,-113.16 -44.62,-45.64 -78.35,-88.13 -106.4,-146.16 -34.05,-70.45 -59.86,-161.56 -66.31,-239.71 -6.14,-74.26 5.37,-140.8 30.25,-210.58 19.49,-54.62 45.41,-108.95 73.73,-159.58 11.32,-20.23 23.13,-40.29 37.2,-58.75 2.1,-2.75 4.53,-6.26 7.21,-8.4 12.55,-10.05 30.3,1.42 26.68,17.01 -0.29,1.23 -0.7,2.43 -1.11,3.63 -4.96,14.49 -12.46,29.6 -18.99,43.4zm1257.81 -939.27c-19.9,33.09 -38.12,64.32 -53.94,99.8 -22.49,50.41 -40.53,105.55 -55.72,158.66 -13.07,45.69 -23.38,92.69 -37.43,137.94 -10.83,34.94 -23.36,64.12 -51.76,88.21 -32.12,27.25 -82.26,45.89 -121.48,60.26 -68.65,25.16 -138.25,47.57 -206.81,73.16 -74.71,27.88 -148.03,59.03 -220.1,93.14 -77.08,36.5 -152.69,76.21 -227.72,116.74 -68.18,36.82 -135.97,74.35 -203.68,112.03 -11.38,6.33 -23.9,13.97 -35.64,19.49 -7.93,3.72 -17.5,2.63 -22.66,-6.13 -4.8,-8.16 -1.72,-16.92 4.75,-22.18 2.58,-2.1 5.4,-4.07 8.09,-6.03 30.54,-22.24 61.58,-43.52 93.11,-64.35 65.15,-43.04 131.82,-84.64 199.43,-123.69 73.18,-42.26 148.14,-81.41 224.84,-116.9 73.51,-34.01 148.61,-64.78 224.58,-92.84 60.66,-22.42 127.77,-43.08 185.89,-70.61 35.4,-16.77 60.43,-33.8 80.08,-67.95 21.04,-36.55 35.1,-85.45 47.67,-125.73 17.96,-57.62 36.22,-118.25 62.97,-172.45 20.58,-41.69 45.93,-77.85 74.86,-113.94 4.65,-5.79 9.28,-11.75 14.07,-17.41 12.64,-14.91 33.63,-5.74 30.77,12.03 -1.35,8.38 -9.92,21.69 -14.18,28.78zm-1088.7 748.89c-12.97,12.92 -27.23,28.21 -41.21,40.04 -2.1,1.77 -3.66,3.12 -6.43,4.18 -16.34,6.3 -28.98,-13.02 -18.83,-25.92 0.32,-0.42 0.66,-0.81 1,-1.21 9.51,-11.3 19.62,-22.39 29.39,-33.44 39.37,-44.53 79.67,-88.99 123.08,-129.62 45.25,-42.35 93.75,-79.27 147.37,-110.4 54.52,-31.65 113.15,-56.83 170.79,-82.17 70.31,-30.92 142.37,-61.98 210.25,-97.85 48.82,-25.79 91.81,-53.6 133.67,-89.63 35.07,-30.18 68.09,-63.8 96.96,-99.99 27.74,-34.81 51.39,-72.21 75.09,-109.8 21.7,-34.41 43.44,-70 66.78,-103.26 7.74,-11.02 17.64,-25.04 28.66,-33.12 16.3,-11.95 34.78,4.39 24.51,23.44 -5.33,9.88 -11.48,19.75 -17.21,29.42 -32.33,54.53 -65.19,108.83 -100.48,161.52 -40.09,59.84 -83.7,117.65 -138.36,165.04 -57.88,50.18 -126.25,86.89 -195.21,119.39 -79.76,37.59 -161.86,70.27 -241.29,108.49 -69.69,33.54 -130.85,69.69 -190.96,118.45 -55.61,45.1 -106.91,95.95 -157.59,146.44zm1002.61 786.03c8.4,22.75 19.02,48.2 25.95,71.38 0.32,1.06 0.59,2.08 0.75,3.19 2.61,17.12 -20.13,25.7 -29.96,12.14 -1.29,-1.79 -2.46,-3.96 -3.58,-5.87 -10.94,-18.73 -20.3,-39.58 -29.36,-59.25 -28.89,-62.83 -55.88,-127.18 -79.22,-192.26 -25.38,-70.79 -50.1,-150.44 -59.94,-224.92 -7.44,-56.33 -4.1,-103.79 9.47,-158.65 12.77,-51.63 31.45,-99.71 53.8,-147.89 31.14,-67.15 66.56,-132.72 99.08,-199.28 32.24,-66 63.97,-134.55 89.98,-203.26 16.05,-42.39 28.35,-83.55 38.15,-127.73 6.55,-29.46 12.28,-58.8 14.24,-88.95 1.73,-26.72 1.01,-54.08 -0.65,-80.79 -0.71,-11.25 -1.58,-22.47 -3.12,-33.64 -0.83,-6.02 -1.09,-11.14 3.27,-16.48 8.33,-10.22 21.05,-6.91 28.01,2.74 7.93,10.97 11.02,26.08 13.28,39.15 5.89,34.19 8.04,72.75 6.99,107.42 -1.39,45.97 -10.27,89.03 -22.23,133.33 -17.22,63.77 -39.46,127.82 -65.94,188.32 -29.09,66.49 -64.32,130.06 -98.44,194.04 -30.75,57.66 -62.74,118.3 -84.06,180.15 -17.53,50.87 -27.28,103.21 -29.6,156.94 -2.68,62.43 9.07,114.25 26.92,173.97 27.72,92.76 62.67,185.3 96.22,276.19zm431.49 -1975.43c-46.34,53.69 -94.34,107.45 -135.14,165.52 -30.72,43.74 -59.38,94.33 -74,146.07 -8.56,30.31 -11.29,57.32 -5.16,88.32 4.88,24.62 14.34,49.24 27.88,70.41 13.66,21.35 31.71,39.62 45.93,60.71 21.37,31.71 28.02,62.47 26.88,100.58 -1.7,56.7 -18.6,123.91 -33.11,178.79 -15.04,56.91 -32.16,113.23 -49.68,169.41 -2.99,9.58 -5.97,20.75 -9.71,30 -6.68,16.56 -30.7,15.51 -32.8,-3.36 -0.27,-2.51 -0.05,-5.16 0.11,-7.66 1.41,-22.23 4.22,-44.11 7.6,-66.12 7.37,-48.03 16.66,-96.44 27.04,-143.91 9.27,-42.4 21.32,-86.07 27.83,-128.84 3.54,-23.29 5.92,-52.11 -1.67,-74.88 -5.95,-17.83 -18.22,-31.71 -29.67,-46.19 -13.63,-17.22 -26.4,-35.22 -37.39,-54.24 -12.47,-21.57 -21.7,-43.3 -27.59,-67.58 -8,-32.98 -8.37,-65.07 -2.4,-98.47 7.85,-43.8 25.98,-90.16 47.32,-129.09 24.74,-45.15 56.52,-83.97 92.15,-120.92 36.17,-37.51 75.12,-72.8 113.96,-107.53 10.85,-9.71 21.68,-19.47 32.62,-29.09 5.74,-5.05 13.07,-7.7 20.87,-3.22 9.41,5.41 9.9,15.01 5.99,23.29 -6.27,13.24 -28.45,37.11 -37.85,48zm-154.32 2547.5c7.16,19.74 15.55,40.82 21.56,60.93 4.88,16.33 -13.13,29.4 -26.2,18.58 -2.76,-2.29 -4.06,-4.76 -5.61,-7.78 -4.68,-9.05 -9.17,-18.26 -13.71,-27.38 -29.42,-59.06 -57.3,-118.4 -83.21,-179.11 -41.33,-96.78 -78.67,-196.44 -110.3,-296.82 -30.73,-97.54 -58.39,-201.38 -73.8,-302.55 -12.1,-79.44 -13.46,-149.82 -3.58,-229.2 9.37,-75.36 25.91,-153.85 47.73,-226.6 15.16,-50.53 33.82,-99.04 55.8,-146.96 6.28,-13.66 12.74,-28.09 20.3,-41.12 10.04,-17.35 34.43,-10.09 32.04,10.35 -0.93,7.96 -2.74,16.46 -4.16,24.36 -8.53,47.4 -17.67,94.57 -28.55,141.51 -14.2,61.29 -31.14,122.08 -42.1,184.08 -10.29,58.24 -14.99,117.24 -15.6,176.35 -0.6,57.12 3.17,111.78 13.43,168.11 12.33,67.68 31.99,135.51 52.19,201.24 24.25,78.92 50.79,157.12 78.25,234.98 27.95,79.22 56.85,158.08 85.51,237.03zm101.74 -262.12c-5.72,15.99 -26.87,15.39 -32.27,-0.8 -1.47,-4.41 -2.58,-9.32 -3.75,-13.83 -8.44,-32.51 -15.21,-65.01 -21.08,-98.09 -10.94,-61.78 -20.06,-125.55 -25.85,-188.01 -4.3,-46.4 -6.74,-94.78 -0.45,-141.11 4.5,-33.11 13.41,-63.86 24.8,-95.17 7.42,-20.43 16.36,-41.21 22.59,-61.96 3.27,-10.93 6.81,-25.97 5.56,-37.46 -0.84,-7.68 -4.6,-10.45 -11.12,-14.5 -17.72,-11.02 -36.52,-18.27 -54.35,-30.54 -17.81,-12.25 -34.94,-28.52 -48.88,-45.04 -5.89,-6.99 -11.61,-14.37 -15.24,-22.82 -6.87,-16.02 8.75,-30.54 23.62,-22.21 3.42,1.92 7.17,5 10.33,7.37 15.64,11.73 31.57,23.22 48.44,33.11 17.61,10.32 36.01,18.57 54.65,26.78 15.94,7.01 27.77,12.49 37.74,27.45 10.81,16.22 16.52,38.4 16.34,57.76 -0.22,24.09 -9.59,48.86 -17.96,71.17 -13.58,36.23 -23.73,66.98 -28.48,105.89 -7.19,59 -3.6,125.59 -0.08,184.9 3.98,67.43 10.08,134.59 14.91,201.93 0.76,10.6 4.26,44.69 0.51,55.18zm1745.89 -1478.15c-13.54,-1.03 -27.18,-2.06 -40.75,-2.51 -1.13,-0.04 -2.28,-0.06 -3.4,-0.16 -15.31,-1.29 -21.82,-20.3 -9.29,-29.88 3.62,-2.75 7.59,-3.4 11.83,-4.36 17.72,-3.98 35.45,-5.56 53.58,-6.42 44.57,-2.09 89.5,1.19 132.96,11.62 56.42,13.56 113.87,39.68 159.54,75.84 47.1,37.28 82.71,86.13 112.39,137.88 30.12,52.52 54.67,108.44 82.4,162.31 32.73,63.57 69.39,124.76 116.25,179.05 45.33,52.51 97.6,96.51 149.81,141.77 17.76,15.39 37.06,31.96 52.55,49.74 2.16,2.48 4.02,4.6 5.23,7.82 6.19,16.56 -12.09,28.64 -27.17,18.28 -9.97,-6.84 -19.85,-14.66 -29.53,-21.93 -53.78,-40.4 -107.83,-82.27 -156.08,-129.25 -54.24,-52.82 -95.27,-108.99 -133.43,-174.25 -38.96,-66.65 -72.19,-137.68 -113.25,-202.82 -30.49,-48.38 -63.11,-86.77 -109.04,-120.79 -40.42,-29.94 -88.8,-56.08 -136.7,-71.36 -38.78,-12.36 -77.5,-17.54 -117.89,-20.58zm-404.44 204.39c-12.56,1.01 -30.16,2.98 -42.78,1.52 -18.93,-2.19 -21.95,-25.62 -5.3,-32.47 3.54,-1.45 7.94,-2.53 11.62,-3.59 24.72,-7.12 49.41,-13.13 74.61,-18.36 47.93,-9.95 97.81,-17.24 146.86,-15.39 58.7,2.2 111.48,18.04 160.45,51.11 58.52,39.52 108.68,101.06 148.88,158.47 49.94,71.32 92.78,147.55 141.62,219.69 46.07,68.04 97.17,131.48 156.5,188.43 58.22,55.9 123.78,105.54 193.17,146.72 70.84,42.02 145.56,74.56 222.99,102.41 75.29,27.1 151.84,49.72 228.35,73.02 27.04,8.24 54.39,16.54 80.95,26.26 2.03,0.75 4.23,1.49 6.15,2.47 17.09,8.67 9.5,34.51 -11.42,31.25 -10.21,-1.59 -20.88,-4.11 -31.02,-6.21 -68,-14.03 -134.44,-30.26 -200.96,-50.32 -104.74,-31.58 -211.43,-71.69 -307.47,-124.53 -87.7,-48.25 -172.96,-111.16 -245.54,-180.18 -55.44,-52.72 -92,-101.52 -133.83,-164.96 -47.32,-71.78 -92.54,-145.15 -141.18,-216.03 -30,-43.73 -63.23,-89.62 -101.02,-127.03 -25.14,-24.88 -47.09,-40.65 -80.9,-51.64 -40.61,-13.21 -88.49,-17.75 -131.01,-18.21 -46.82,-0.51 -93.13,3.83 -139.72,7.58zm-324.41 162.95c-10,-4.26 -20.1,-8.49 -29.96,-13.04 -19.87,-9.17 -10.35,-36.62 10.25,-31.69 4.1,0.98 8.27,2.25 12.33,3.39 23.61,6.63 47.26,13.06 71.07,18.97 35.24,8.75 70.5,15.97 106.33,21.93 53.3,8.87 105.06,16.34 156.79,33.03 59.69,19.26 115.05,49.2 162.78,90.02 53.14,45.44 96.18,103.55 131.76,163.39 44.41,74.7 77.66,154.33 106.14,236.27 34.23,98.49 63.1,200.25 90.45,300.89 12.47,45.89 24.96,92.18 35.51,138.57 0.83,3.66 1.73,7.41 2.38,11.11 3.86,21.65 -24.68,29.29 -32.26,9.07 -4.88,-13.03 -8.82,-28.06 -12.82,-41.43 -24.38,-81.49 -48.85,-162.77 -75.97,-243.4 -30.42,-90.43 -63.92,-181.63 -102.45,-268.94 -26.82,-60.76 -57.27,-122.09 -99.01,-174.15 -34.56,-43.09 -76.25,-79.44 -122.3,-109.78 -44.16,-29.09 -90.43,-51.24 -141.05,-66.72 -52.31,-16 -106.38,-24.44 -159.13,-38.46 -38.33,-10.18 -74.43,-23.55 -110.84,-39.04zm-493.46 -712.84c-7.3,-2.1 -15.19,-4.41 -22.73,-5.54 -18.78,-2.81 -22.6,-28.56 -2.79,-32.95 2.39,-0.52 5.23,-0.57 7.69,-0.7 14.35,-0.74 27.59,0.36 41.76,2.99 28.68,5.33 56.54,16.06 81.76,30.69 40.82,23.69 70.1,55.55 89.73,98.68 27.18,59.75 36.04,140.24 39.98,205.26 5.13,84.69 3.17,169.92 3.42,254.74 0.18,59.96 0.66,124.56 15.15,183.01 13.2,53.23 37.16,98.19 76.11,137.34 46.3,46.55 111.67,85.45 166.62,121.56 66.11,43.44 130.63,88.91 185.33,146.55 58.87,62.05 103.78,135.39 135.68,214.59 29.84,74.09 49.45,153.38 66.1,231.37 5.51,25.8 11.29,52.18 15.14,78.31 0.43,2.94 0.89,5.62 0.43,8.64 -2.92,19.25 -27.07,18.52 -33.25,0.09 -4.33,-12.92 -8.13,-26.29 -12.1,-39.35 -20.84,-68.69 -41.94,-137.89 -66.34,-205.39 -20.57,-56.89 -43.27,-110.19 -78.58,-159.61 -34.54,-48.36 -78.18,-91.11 -123.88,-128.86 -50.14,-41.43 -104.32,-78.51 -158.21,-114.89 -42.61,-28.78 -87.91,-58 -126.16,-92.42 -36.61,-32.96 -63.48,-68.6 -81.76,-114.78 -21.62,-54.65 -29.62,-118.71 -33.44,-177.03 -4.88,-74.46 -3.77,-149.86 -3.97,-224.48 -0.17,-62.52 -0.06,-129.14 -8.71,-191.06 -6.01,-43.03 -17.15,-85.04 -39.1,-122.84 -16.69,-28.74 -40.01,-55.9 -67.67,-74.6 -20.48,-13.86 -42.61,-22.57 -66.23,-29.34zm490.03 194.6c23.66,16.97 47.41,32.75 74.4,44.1 34.99,14.7 72.41,19.97 110.19,19.43 54.67,-0.79 109.56,-13.52 161.31,-30.48 79.22,-25.97 158.09,-61.65 235.46,-93.08 87.64,-35.61 177.67,-70.86 267.65,-100.05 48.18,-15.63 95.76,-28.48 145.38,-38.4 6.75,-1.35 13.86,-2.98 20.66,-3.98 21.26,-3.12 27.69,23.12 9.61,32.15 -14.93,7.47 -34.03,13.29 -49.79,18.54 -58.54,19.51 -117.02,38.19 -175.09,59.17 -73.48,26.53 -146.16,55.78 -218.06,86.3 -67.32,28.58 -134.61,59.28 -203.54,83.7 -56.43,19.98 -119.3,37.57 -179.35,40.39 -46.39,2.18 -93.11,-4.78 -136.24,-22.22 -28.78,-11.64 -56.61,-28.32 -79.24,-49.7 -11.74,-11.08 -20.89,-22.34 -29.09,-36.17 -1.62,-2.75 -3.53,-5.71 -4.44,-8.78 -4.66,-15.96 12.93,-27.47 27,-17.49 7.75,5.49 15.46,11.04 23.17,16.57zm995.87 44.84c55.64,-2.74 112.22,-2.64 167.32,6.43 63.11,10.38 126.77,33.49 181.16,67.25 50.27,31.21 91.31,71.15 126.39,118.52 35.55,48 63.28,101.21 88.61,155.14 29.82,63.52 56.82,127.64 91.56,188.81 37.03,65.23 81.97,126.43 132.94,181.43 57.78,62.35 121.91,113.89 192.28,161.35 79.29,53.47 163.26,101.59 246.35,148.96 29.59,16.86 59.18,33.72 88.79,50.55 4.62,2.63 9.9,5.09 12.87,9.72 8.69,13.5 -4.14,29 -19.44,24.81 -1.58,-0.43 -3.14,-0.93 -4.7,-1.42 -22.41,-7.04 -44.71,-17.53 -65.87,-27.58 -61.22,-29.09 -122.14,-61.45 -180.86,-95.26 -70.89,-40.81 -139.99,-85.4 -203.28,-137.38 -60.36,-49.57 -117.3,-106.92 -166.75,-167.4 -44.47,-54.37 -78.73,-108.7 -111.72,-170.71 -36.73,-69.08 -69.49,-140.2 -105.78,-209.47 -25.07,-47.83 -51.21,-93.27 -88.81,-132.45 -34.68,-36.15 -77.03,-66.62 -122.8,-87.08 -45.91,-20.53 -97.7,-32.36 -147.53,-37.97 -37.44,-4.21 -72.49,-3.84 -109.84,-4.7 -13.88,-0.31 -28.09,-1.05 -41.64,-4.31 -2.87,-0.69 -5.54,-1.26 -8.16,-2.76 -13.76,-7.9 -9.94,-27.3 5.46,-30.99 11.77,-2.83 31.42,-2.92 43.42,-3.5zm629.61 5.23c39.09,6.3 77.94,15.08 114.44,30.81 50.6,21.81 96.07,58 138.2,92.94 60.31,50.01 118.93,102.74 183.11,147.82 53.19,37.36 112.54,70.49 173.54,93.24 43.07,16.06 82.59,24.78 128.45,25.46 42.26,0.62 86.45,-4.47 127.96,-12.01 30,-5.46 59.27,-12.56 88.65,-20.58 6.6,-1.8 15.62,-5.27 22.35,-3.02 14.78,4.93 14.18,25 1.31,31.02 -0.88,0.42 -1.8,0.8 -2.72,1.16 -2.67,1.08 -5.37,2.1 -8.06,3.13 -24.5,9.42 -49.05,18.32 -74.23,25.83 -34.13,10.19 -68.98,17.7 -104.5,20.87 -45.1,4.03 -86.83,-0.03 -130.94,-10.04 -61.07,-13.86 -123.97,-37.44 -179.37,-66.54 -60.83,-31.94 -116.64,-72.97 -170.63,-115.19 -47.42,-37.1 -93.57,-75.62 -140.63,-113.13 -29.31,-23.36 -58.96,-46.45 -92.8,-62.95 -27.3,-13.31 -56.52,-22.98 -85.44,-32.09 -8.13,-2.56 -16.46,-5.03 -24.52,-7.83 -18.29,-6.35 -15.03,-31.84 4.76,-32.73 8.65,-0.39 22.57,2.47 31.05,3.83zm-441.61 -283.7c48.37,-9.12 98.21,-17.68 147.29,-21.79 47.89,-4.01 92.81,-2.51 139.53,9.05 48.79,12.07 96.48,33.71 141.91,54.9 59.84,27.92 119.38,57.55 181.1,81.15 60.8,23.26 120.98,38.02 184.92,50.01 81.48,15.29 163.81,25.75 246.54,31.19 84.28,5.54 169.06,6.51 253.51,6.86 15.25,0.06 30.72,-0.1 45.95,0.33 25.53,0.73 26.74,30.51 1.42,33.92 -28.42,3.84 -58.58,4.87 -87.18,6.17 -91.34,4.14 -183.86,5.52 -275.15,0.42 -101.21,-5.66 -203.2,-20.1 -300.66,-48.44 -87.09,-25.32 -168.23,-61.48 -250.99,-97.87 -55.96,-24.6 -116.31,-51.6 -175.09,-68.35 -43.97,-12.54 -80.67,-15.9 -126.09,-13.79 -43.38,2.02 -87.08,7.49 -130.13,13.1 -8.24,1.08 -16.51,2.2 -24.76,3.19 -23.36,2.78 -28.8,-24.37 -10.76,-31.71 9.35,-3.8 28.79,-6.48 38.63,-8.34zm768.88 -97.13c38.82,9.48 77.56,20.22 115.86,31.58 52.15,15.47 104.97,33.05 158.19,44.2 42.77,8.96 83.95,12.45 127.42,7.06 34.36,-4.26 67.94,-13.16 101.09,-22.9 6.12,-1.79 13.19,-4.2 19.44,-5.39 17.65,-3.38 28.14,15.52 15.86,28.93 -9.82,10.71 -28.88,17.44 -42.16,22.1 -40.92,14.36 -88.48,25.98 -131.74,30.08 -51.65,4.9 -98.42,-2.38 -148.31,-15.34 -53.73,-13.95 -107.07,-32.43 -159.44,-50.83 -27.33,-9.6 -57.61,-19.34 -84.01,-31.12 -11.85,-5.29 -26.18,-13.38 -21.7,-29.08 2.08,-7.3 7.55,-12.47 14.9,-14.31 8.79,-2.2 26.07,2.93 34.6,5zm-2063.21 90.69c20.96,3.98 40.2,14.3 58.14,25.5 39.58,24.73 75.96,53.04 116.73,76.65 47.11,27.28 94.15,45.59 148.39,52.92 74.68,10.09 153.02,-2.38 225.64,-19.83 119.03,-28.6 239.68,-71.77 355.52,-111.65 125.13,-43.07 250.67,-87.09 378.09,-122.9 109.68,-30.83 222.91,-56.12 335.99,-70.51 86.17,-10.97 171.47,-14.7 258.24,-13.82 69.37,0.7 135.58,4.46 204.28,14.59 65.14,9.61 130.01,23.12 194.37,36.93 11.92,2.56 23.85,5.08 35.75,7.7 25.88,5.72 20.48,33.82 0.6,33.82 -4.16,0 -8.36,-0.17 -12.51,-0.32 -22.84,-0.83 -45.97,-4.09 -68.55,-7.37 -67.16,-9.77 -132.8,-19.76 -200.59,-25.6 -95.74,-8.25 -193.73,-10.28 -289.65,-4.05 -108.16,7.01 -212.73,26.06 -317.94,51.67 -132.68,32.3 -265.17,73.01 -394.09,117.96 -127.8,44.57 -255.23,96.57 -385.51,132.93 -96.04,26.82 -216.44,50.97 -316.49,43.72 -72.58,-5.26 -120.26,-26.74 -179.73,-65.58 -42.02,-27.45 -83.06,-56.76 -123.4,-86.62 -14.95,-11.06 -29.9,-22.19 -44.44,-33.8 -1.98,-1.59 -4.24,-3.27 -5.99,-5.1 -9.59,-10.09 -3.98,-26.18 9.61,-28.4 5.72,-0.94 11.9,0.1 17.53,1.17zm57.75 -631.61c-9.61,48.38 -11.63,92.39 -7.62,141.3 3.51,42.9 11.1,94.77 27.92,134.21 11.72,27.51 29.49,50.88 55.34,66.38 18.42,11.05 37.23,15.88 58.59,14.27 25.29,-1.91 49.99,-12.74 72.16,-24.41 29.44,-15.48 58.06,-33.94 85.99,-52.04 5.53,-3.59 11.6,-7.86 17.38,-10.97 16.28,-8.77 32.13,7.53 23.29,23.6 -6.26,11.38 -18.93,21.47 -28.98,29.29 -27.1,21.07 -59.59,42.42 -90.12,58.25 -30.92,16.04 -60.84,25.99 -95.93,24.43 -38.44,-1.7 -73.81,-16.31 -101.67,-43.01 -35.85,-34.34 -57.12,-85.52 -67.51,-133.27 -12.26,-56.32 -13.41,-122.2 -7.32,-179.4 5.1,-48 16.14,-91.87 32.35,-137.19 10.86,-30.36 23.2,-60.08 36.28,-89.55 2.5,-5.64 4.98,-11.41 7.7,-16.94 5.02,-10.21 17.43,-16.74 27.52,-8.14 7.5,6.39 6.45,14.4 4.37,22.57 -2.66,10.48 -5.95,21.02 -9.11,31.35 -14.98,49.12 -30.61,98.84 -40.63,149.26zm-774.42 199c1.62,9.98 6.93,36.05 5.82,46.31 -2.03,18.84 -28.14,21.76 -33.64,-0.93 -2.38,-9.79 -4.56,-19.67 -6.81,-29.5 -11.98,-52.32 -23.79,-105.72 -30.5,-159 -6.78,-53.77 -6.12,-103.81 -2.3,-157.68 4.45,-62.78 12.51,-122.6 28.96,-183.54 19.26,-71.27 49.93,-148.07 91.73,-209.15 37.92,-55.4 87.67,-100.6 146.45,-132.98 48.22,-26.56 99.13,-42.47 153.2,-51.81 50.45,-8.72 98.03,-10.65 148.95,-3.21 52.44,7.66 110.31,24.95 157.25,49.56 35.81,18.78 69.48,44.39 97.14,73.93 9.64,10.3 19.95,22.09 25.25,35.37 6.84,17.12 -9.21,32.19 -24.31,22.25 -3.5,-2.3 -7.5,-6.51 -10.56,-9.45 -17.4,-16.68 -34.8,-30.97 -55.34,-43.78 -33.72,-21.04 -72.7,-36.87 -110.76,-47.95 -46.2,-13.45 -97.29,-21.93 -145.43,-23.26 -47.04,-1.31 -90.88,4.7 -135.79,18.67 -46.83,14.56 -92.45,36.76 -130.84,67.51 -43.44,34.79 -75.67,79.26 -101.36,128.28 -32.07,61.19 -54.95,130.21 -69.25,197.7 -15.69,73.96 -22.17,151.36 -19.26,226.9 2.42,62.87 11.42,123.82 21.42,185.77zm142.33 72.28c0.67,10.7 5.37,55.58 -0.58,65.71 -7.19,12.26 -24.73,10.71 -30.16,-2.23 -0.97,-2.3 -1.54,-4.88 -2.06,-7.32 -2.3,-10.67 -4.15,-21.6 -6.11,-32.35 -9.51,-52.3 -18.8,-105.39 -24.4,-158.23 -4.83,-45.57 -6.23,-90.85 -2.15,-136.52 3.17,-35.53 9.64,-68.93 18.38,-103.43 10.04,-39.6 22.22,-77.5 40.25,-114.27 20.24,-41.29 47.62,-81.86 77.4,-116.92 29.22,-34.4 61.49,-63.57 97.48,-90.69 38.12,-28.73 78.94,-54.29 123.63,-71.5 44.8,-17.25 95.35,-26.95 143.31,-26.67 43.73,0.26 84.87,9.15 124.61,27.32 34.95,15.98 71.72,40.34 95.6,70.79 20.46,26.08 30.68,55.9 34.6,88.5 2.52,21.02 2.28,41.36 0.84,62.4 -0.15,2.26 -0.29,4.54 -0.52,6.81 -1.74,17.17 -22.49,23.09 -31.17,8.35 -2.8,-4.75 -3.2,-13.24 -3.83,-18.74 -2.69,-23.37 -6.43,-47.52 -15.67,-69.29 -11.37,-26.79 -30.67,-46.78 -54.45,-63.12 -30.49,-20.94 -68.16,-36.1 -104.33,-43.43 -38.46,-7.78 -79.94,-7.73 -118.34,0.24 -41.18,8.57 -76.42,26.64 -111.95,48.72 -47.81,29.7 -95.02,65.81 -132.98,107.51 -40.28,44.23 -70.86,96.17 -91.56,152.22 -23.28,63.05 -32.09,127.44 -33.89,194.37 -2,73.84 3.41,148.12 8.06,221.77z"/>
 </g>
</svg>
