<?xml version="1.0" encoding="UTF-8"?>
<!DOCTYPE svg PUBLIC "-//W3C//DTD SVG 1.1//EN" "http://www.w3.org/Graphics/SVG/1.1/DTD/svg11.dtd">
<!-- Creator: CorelDRAW 2020 (64-Bit) -->
<svg xmlns="http://www.w3.org/2000/svg" xml:space="preserve" width="124.241mm" height="86.2004mm" version="1.1" style="shape-rendering:geometricPrecision; text-rendering:geometricPrecision; image-rendering:optimizeQuality; fill-rule:evenodd; clip-rule:evenodd"
viewBox="0 0 12407.7 8608.68"
 xmlns:xlink="http://www.w3.org/1999/xlink"
 xmlns:xodm="http://www.corel.com/coreldraw/odm/2003">
 <defs>
  <style type="text/css">
   <![CDATA[
    .fil0 {fill:#2E2E2C}
   ]]>
  </style>
 </defs>
 <g id="Слой_x0020_1">
  <metadata id="CorelCorpID_0Corel-Layer"/>
  <path class="fil0" d="M12029.76 8341.58c17.46,-44.98 28.66,-80.98 25.46,-116.2 -3.2,-35.2 -20.8,-69.62 -27.6,-96.42 -6.8,-26.8 -2.81,-46.01 7.6,-82.42 10.41,-36.41 27.2,-90.02 36,-180.85 8.81,-90.82 9.61,-218.85 10.01,-298.88 0.4,-80.01 0.4,-112.02 -6.8,-144.43 -7.2,-32.41 -21.6,-65.22 -32.01,-87.23 -10.4,-22 -16.8,-33.2 -19.6,-50.8 -2.8,-17.61 -2,-41.61 1.2,-78.42 3.21,-36.81 8.81,-86.43 16.01,-146.45 7.2,-60.01 16.01,-130.43 21.2,-174.84 5.2,-44.41 6.81,-62.81 20.41,-80.01 13.6,-17.21 39.21,-33.21 57.21,-52.42 18.01,-19.2 28.4,-41.61 38.8,-69.62 10.41,-28 20.81,-61.61 32.41,-97.22 11.6,-35.6 24.41,-73.21 34.8,-110.02 10.41,-36.81 18.42,-72.81 20.01,-141.63 1.6,-68.82 -3.2,-170.45 -6.8,-276.08 -3.6,-105.62 -6,-215.26 -1.6,-282.48 4.4,-67.21 15.6,-92.01 31.2,-116.42 15.61,-24.41 35.62,-48.42 59.3,-154.85 23.69,-106.42 51.04,-295.25 58.53,-419.94 7.49,-124.69 -4.88,-185.23 -26.89,-242.32 -22.01,-57.09 -53.66,-110.74 -72.92,-153.4 -19.25,-42.64 -26.14,-74.29 -57.09,-99.06 -30.95,-24.76 -85.99,-42.64 -119.69,-62.6 -33.71,-19.94 -46.08,-41.95 -43.33,-64.65 2.76,-22.7 20.63,-46.09 44.71,-72.23 24.08,-26.14 54.34,-55.03 73.6,-89.42 19.26,-34.39 27.51,-74.29 25.45,-116.95 -2.06,-42.64 -14.43,-88.04 -16.5,-126.56 -2.07,-38.52 6.19,-70.17 20.63,-98.37 14.44,-28.2 35.08,-52.96 43.33,-92.86 8.26,-39.9 4.12,-94.93 -6.88,-134.14 -11.01,-39.21 -28.88,-62.59 -50.89,-79.78 -22.01,-17.2 -48.16,-28.21 -85.99,-33.72 -37.83,-5.5 -87.36,-5.5 -126.57,-1.38 -39.21,4.13 -68.1,12.38 -99.75,15.82 -31.64,3.45 -66.03,2.08 -108,-2.75 -41.95,-4.81 -91.49,-13.06 -147.89,-10.32 -56.41,2.76 -119.68,16.51 -189.16,35.08 -69.48,18.58 -145.14,41.95 -200.18,71.54 -55.03,29.58 -89.42,65.35 -105.25,118.32 -15.82,52.97 -13.06,123.13 -1.38,182.28 11.69,59.16 32.34,107.32 42.65,155.46 10.32,48.16 10.32,96.3 10.32,145.83 0,49.53 0,100.44 6.19,138.96 6.19,38.52 18.58,64.66 25.46,85.3 6.88,20.63 8.25,35.77 -0.7,44.02 -8.94,8.26 -28.19,9.63 -39.89,14.44 -11.69,4.82 -15.83,13.07 -22.71,22.7 -6.87,9.64 -16.51,20.64 -26.14,21.33 -9.63,0.69 -19.25,-8.95 -35.07,-36.46 -15.82,-27.51 -37.84,-72.91 -61.92,-150.65 -24.07,-77.73 -50.21,-187.78 -69.48,-268.96 -19.25,-81.17 -31.64,-133.44 -51.59,-187.1 -19.94,-53.65 -47.46,-108.69 -62.6,-186.41 -15.13,-77.73 -17.88,-178.16 -29.57,-266.22 -11.69,-88.04 -32.34,-163.7 -68.8,-250.38 -36.45,-86.68 -88.72,-184.36 -122.43,-255.9 -33.71,-71.54 -48.85,-116.94 -74.3,-151.33 -25.45,-34.39 -61.21,-57.77 -87.35,-99.05 -26.14,-41.28 -42.65,-100.43 -70.17,-196.74 -27.51,-96.3 -66.03,-229.75 -101.81,-362.51 -35.76,-132.76 -68.79,-264.83 -98.37,-358.39 -29.57,-93.55 -55.72,-148.58 -105.24,-221.5 -49.52,-72.91 -122.45,-163.71 -207.75,-220.81 -85.3,-57.09 -182.97,-80.48 -279.27,-100.44 -96.3,-19.94 -191.24,-36.45 -251.09,-52.96 -59.84,-16.51 -84.6,-33.02 -99.74,-55.03 -15.13,-22.01 -20.63,-49.53 -12.03,-120.91 8.61,-71.37 31.33,-186.59 45.8,-279.06 14.48,-92.46 20.72,-162.16 37.36,-208.97 16.65,-46.81 43.7,-70.73 50.98,-104.02 7.28,-33.29 -5.2,-75.94 -8.85,-113.39 -3.64,-37.45 1.57,-69.7 -11.43,-104.03 -13,-34.32 -44.21,-70.74 -67.62,-101.43 -23.41,-30.69 -39.01,-55.66 -50.97,-86.87 -11.96,-31.21 -20.29,-68.66 -68.67,-89.46 -48.37,-20.8 -136.79,-24.97 -223.14,-25.49 -86.35,-0.52 -170.6,2.61 -239.78,18.21 -69.18,15.6 -123.28,43.69 -173.21,93.63 -49.92,49.93 -95.7,121.71 -122.75,191.41 -27.04,69.71 -35.37,137.32 -29.65,203.9 5.72,66.58 25.49,132.12 58.77,221.58 33.3,89.47 80.1,202.86 111.31,291.81 31.21,88.94 46.82,153.45 49.93,194.53 3.13,41.1 -6.24,58.77 -50.97,82.7 -44.73,23.93 -124.84,54.1 -220.55,93.11 -95.7,39.02 -207.01,86.87 -287.11,127.43 -80.1,40.58 -129,73.86 -171.65,118.07 -42.65,44.21 -79.06,99.35 -109.23,175.81 -30.17,76.47 -54.09,174.25 -74.38,277.75 -20.28,103.51 -36.92,212.75 -75.42,371.91 -38.49,159.16 -98.82,368.26 -146.16,556.56 -47.34,188.29 -81.66,355.77 -104.55,470.72 -22.89,114.96 -34.32,177.38 -40.05,208.58 -5.72,31.21 -5.72,31.21 -11.96,23.41 -6.24,-7.8 -18.73,-23.41 -52.02,-90.51 -33.29,-67.09 -87.37,-185.69 -150.84,-292.83 -63.46,-107.15 -136.27,-202.86 -178.4,-263.72 -42.13,-60.85 -53.57,-86.86 -66.05,-123.27 -12.48,-36.41 -26.02,-83.22 -47.87,-147.73 -21.84,-64.49 -52,-146.68 -80.09,-215.34 -28.08,-68.66 -54.1,-123.8 -75.43,-198.18 -21.32,-74.38 -37.96,-168 -66.05,-249.66 -28.08,-81.66 -67.62,-151.37 -116.52,-212.75 -48.89,-61.37 -107.15,-114.43 -173.73,-148.23 -66.57,-33.81 -141.46,-48.38 -214.81,-56.7 -73.34,-8.32 -145.12,-10.41 -181.01,-11.44 -35.89,-1.04 -35.89,-1.04 -30.69,-7.8 5.2,-6.76 15.6,-20.29 55.65,-61.91 40.06,-41.61 109.77,-111.3 155.02,-188.81 45.25,-77.5 66.06,-162.8 80.1,-251.75 14.04,-88.94 21.32,-181.52 23.4,-252.27 2.09,-70.74 -1.04,-119.62 -28.08,-165.92 -27.04,-46.29 -78.03,-89.98 -143.05,-125.87 -65.01,-35.89 -144.07,-63.98 -222.62,-74.38 -78.54,-10.41 -156.56,-3.12 -240.3,27.57 -83.74,30.69 -173.21,84.78 -259.04,175.8 -85.82,91.03 -168,218.99 -230.94,345.9 -62.94,126.91 -106.63,252.79 -142.52,349.53 -35.89,96.75 -63.98,164.36 -78.03,220.54 -14.04,56.18 -14.04,100.92 -20.28,146.17 -6.24,45.25 -18.73,91.03 -49.41,138.88 -30.69,47.86 -79.58,97.79 -124.42,175.34 -44.83,77.56 -85.62,182.73 -119.76,350.76 -34.14,168.04 -61.66,398.92 -115.38,639.75 -53.72,240.83 -133.65,491.6 -175.2,669.99 -41.55,178.38 -44.71,284.38 -52.62,384.85 -7.91,100.47 -20.57,195.4 -31.65,263.43 -11.08,68.03 -20.56,109.17 -10.29,162.96 10.29,53.8 40.35,120.25 69.62,184.33 29.27,64.09 57.74,125.78 83.06,166.92 25.32,41.14 47.47,61.71 61.71,90.18 14.24,28.48 20.56,64.87 18.98,106.01 -1.58,41.14 -11.08,87.03 -37.99,133.36 -26.9,46.34 -71.23,93.15 -105.82,122.53 -34.58,29.38 -59.43,41.35 -96.24,35.36 -36.81,-5.98 -85.59,-29.91 -143.11,-52 -57.51,-22.08 -123.78,-42.33 -194.64,-50.15 -70.86,-7.82 -146.33,-3.23 -191.42,-12.43 -45.09,-9.2 -59.82,-32.2 -67.18,-63.03 -7.36,-30.83 -7.36,-69.49 9.2,-99.86 16.57,-30.37 49.7,-52.45 76.39,-77.3 26.68,-24.85 46.94,-52.46 57.51,-98.48 10.59,-46.01 11.51,-110.42 5.99,-180.37 -5.52,-69.94 -17.49,-145.41 -45.56,-200.17 -28.06,-54.76 -72.24,-88.8 -117.35,-119.64 -45.09,-30.83 -91.1,-58.43 -142.18,-65.8 -51.07,-7.36 -107.21,5.53 -161.05,41.43 -53.84,35.89 -105.37,94.78 -159.21,160.59 -53.84,65.8 -109.97,138.51 -142.18,188.66 -32.21,50.15 -40.5,77.77 -34.51,109.97 5.98,32.21 26.24,69.02 59.36,98.01 33.13,28.99 79.15,50.15 108.13,76.38 28.99,26.24 40.96,57.52 57.52,87.43 16.57,29.91 37.73,58.43 46.01,80.05 8.29,21.63 3.69,36.36 -8.28,51.08 -11.96,14.73 -31.29,29.45 -64.43,44.63 -33.13,15.19 -80.05,30.84 -118.71,49.25 -38.65,18.41 -69.02,39.57 -86.97,61.19 -17.95,21.63 -23.47,43.72 -47.4,93.42 -23.93,49.69 -66.26,127 -95.25,190.5 -28.98,63.51 -44.63,113.2 -51.07,149.09 -6.44,35.89 -3.68,57.97 -5.52,72.69 -1.84,14.73 -8.28,22.09 -31.75,33.6 -23.47,11.5 -63.96,27.14 -99.39,36.81 -35.43,9.67 -65.8,13.34 -92.96,10.58 -27.14,-2.76 -51.07,-11.95 -74.08,-32.67 -23.01,-20.7 -45.09,-52.91 -65.34,-99.39 -20.24,-46.47 -38.65,-107.21 -51.53,-179.45 -12.88,-72.24 -20.25,-155.98 -38.66,-264.58 -18.41,-108.6 -47.85,-242.04 -75.46,-334.07 -27.6,-92.03 -53.38,-142.65 -73.16,-181.3 -19.78,-38.65 -33.6,-65.34 -52.46,-85.59 -18.87,-20.24 -42.78,-34.06 -57.51,-62.13 -14.72,-28.06 -20.24,-70.4 -31.29,-106.29 -11.05,-35.89 -27.6,-65.33 -59.36,-99.39 -31.75,-34.05 -78.68,-72.7 -126.99,-100.32 -48.32,-27.6 -98.02,-44.16 -147.72,-61.19 -49.69,-17.03 -99.39,-34.51 -128.38,-59.36 -28.98,-24.85 -37.27,-57.06 -35.43,-90.66 1.85,-33.59 13.81,-68.55 37.28,-111.8 23.47,-43.25 58.43,-94.79 86.97,-157.37 28.53,-62.58 50.61,-136.21 53.83,-217.65 3.23,-81.44 -12.41,-170.71 -43.25,-245.26 -30.83,-74.54 -76.84,-134.36 -130.68,-184.06 -53.84,-49.69 -115.5,-89.27 -172.56,-101.24 -57.05,-11.96 -109.51,3.69 -170.7,33.59 -61.2,29.91 -131.15,74.09 -186.36,113.2 -55.22,39.12 -95.7,73.16 -131.14,106.29 -35.43,33.14 -65.8,65.35 -87.89,110.9 -22.08,45.56 -35.89,104.45 -31.75,160.13 4.14,55.68 26.23,108.14 48.32,147.25 22.09,39.11 44.17,64.88 60.28,94.33 16.11,29.45 26.23,62.59 36.81,94.79 10.59,32.21 21.62,63.51 44.17,98.01 22.55,34.51 56.6,72.24 68.1,94.78 11.5,22.55 0.46,29.92 -52.92,55.23 -53.38,25.31 -149.08,68.56 -230.08,121.47 -80.98,52.92 -147.24,115.51 -207.06,189.13 -59.82,73.62 -113.2,158.29 -168.42,248.01 -55.22,89.73 -112.28,184.53 -158.3,257.22 -46.01,72.7 -80.97,123.33 -100.77,155.08 -19.78,31.75 -24.38,44.63 -24.38,55.22 0,10.59 4.59,18.87 25.76,37.73 21.17,18.88 58.91,48.32 91.58,77.77 32.67,29.45 60.28,58.9 79.6,80.98 19.32,22.09 30.37,36.82 37.73,93.88 7.36,57.05 11.05,156.45 2.14,235.84 -8.91,79.4 -30.41,138.8 -38.68,196.11 -8.26,57.32 -3.31,112.58 8.38,152.6 11.69,40.03 30.11,64.81 51,77.92 20.9,13.11 44.27,14.53 63.05,6.74 18.78,-7.79 32.94,-24.8 42.14,-44.99 9.22,-20.18 13.46,-43.55 19.83,-98.81 6.38,-55.25 14.88,-142.38 24.09,-208.61 9.21,-66.23 19.12,-111.56 31.88,-144.15 12.75,-32.59 28.33,-52.42 40.38,-58.8 12.04,-6.37 20.54,0.72 29.75,16.3 9.21,15.59 19.12,39.67 23.73,75.79 4.6,36.13 3.89,84.31 4.6,154.08 0.71,69.78 2.84,161.15 4.96,245.09 2.13,83.94 4.24,160.45 15.93,218.17 11.69,57.73 32.95,96.7 52.42,134.24 19.48,37.54 37.19,73.67 48.73,123.94 11.54,50.27 16.93,114.68 28.04,195.13 11.12,80.45 27.98,176.95 35.94,277.18 7.96,100.24 7.03,204.23 9.37,275.9 2.35,71.67 7.96,111 8.43,139.58 0.47,28.57 -4.21,46.38 -20.61,58.55 -16.39,12.18 -44.49,18.74 -67.91,28.57 -23.42,9.84 -42.15,22.96 -57.61,43.09 -15.46,20.14 -27.63,47.32 -25.3,75.89 2.35,28.57 19.2,58.54 26.69,83.37 7.5,24.83 5.63,44.5 -2.81,59.02 -8.43,14.52 -23.42,23.89 -36.54,44.96 -13.11,21.08 -24.35,53.87 -41.69,78.23 -17.33,24.36 -40.75,40.28 -66.04,60.89 -25.29,20.61 -52.46,45.91 -57.61,72.6 -5.15,26.7 11.71,54.81 42.15,73.54 30.45,18.74 74.48,28.1 123.2,32.32 48.72,4.21 102.11,3.29 143.32,-8.9 41.23,-12.17 70.27,-35.6 99.31,-50.12 29.04,-14.52 58.08,-20.13 89.46,-29.04 31.39,-8.9 65.11,-21.07 86.66,-31.38 21.55,-10.31 30.92,-18.74 36.54,-42.15 5.62,-23.42 7.49,-61.83 18.27,-95.55 10.78,-33.73 30.45,-62.77 43.09,-89.47 12.65,-26.69 18.27,-51.05 18.27,-76.35 0,-25.3 -5.61,-51.52 -1.4,-73.07 4.21,-21.54 18.27,-38.41 26.69,-71.67 8.43,-33.26 11.25,-82.9 22.95,-117.1 11.71,-34.19 32.32,-52.93 41.69,-82.91 9.37,-29.98 7.5,-71.2 7.5,-117.11 0,-45.9 1.87,-96.49 8.9,-159.73 7.03,-63.23 19.2,-139.12 31.38,-215 12.18,-75.88 24.37,-151.76 30.45,-189.7 6.09,-37.94 6.09,-37.94 7.49,-25.77 1.41,12.18 4.22,36.54 8.44,75.89 4.21,39.35 9.84,93.68 24.36,151.29 14.52,57.61 37.94,118.51 54.8,166.75 16.87,48.25 27.17,83.85 28.11,128.34 0.94,44.5 -7.5,97.9 -17.81,139.59 -10.3,41.69 -22.48,71.67 -33.26,97.89 -10.77,26.24 -20.14,48.73 -24.83,78.7 -4.68,29.98 -4.68,67.46 3.75,100.72 8.44,33.26 25.3,62.3 31.86,91.81 6.56,29.51 2.81,59.48 5.61,88.52 2.82,29.04 12.18,57.14 28.57,74.47 16.4,17.34 39.83,23.89 54.35,35.13 14.52,11.25 20.13,27.16 25.29,46.84 5.15,19.67 9.84,43.1 10.78,75.42 0.94,32.32 -1.88,73.54 9.84,106.33 11.71,32.79 37.94,57.14 87.59,68.38 49.65,11.25 122.72,9.38 174.71,2.82 52,-6.56 82.91,-17.8 101.65,-45.44 18.75,-27.63 25.3,-71.66 17.8,-111 -7.49,-39.35 -29.03,-74.01 -37.47,-99.78 -8.43,-25.76 -3.75,-42.62 7.49,-58.55 11.25,-15.92 29.05,-30.91 36.54,-49.64 7.5,-18.74 4.68,-41.23 -5.15,-59.96 -9.84,-18.74 -26.69,-33.72 -36.53,-46.84 -9.84,-13.11 -12.65,-24.35 -4.22,-34.18 8.44,-9.84 28.11,-18.28 44.97,-31.39 16.87,-13.11 30.92,-30.92 40.29,-52.47 9.37,-21.54 14.05,-46.83 11.24,-80.55 -2.81,-33.73 -13.1,-75.89 -24.35,-117.12 -11.25,-41.22 -23.42,-81.49 -29.51,-134.89 -6.09,-53.4 -6.09,-119.91 -8.91,-192.99 -2.81,-73.06 -8.42,-152.7 -11.7,-257.62 -3.28,-104.92 -4.21,-235.14 2.81,-315.71 7.03,-80.56 22.02,-111.47 38.88,-149.88 16.87,-38.41 35.6,-84.32 44.5,-140.99 8.9,-56.68 7.97,-124.13 3.29,-196.73 -4.68,-72.6 -13.12,-150.35 -17.34,-208.9 -4.21,-58.55 -4.21,-97.9 -1.41,-117.57 2.82,-19.67 8.44,-19.67 16.87,-14.99 8.44,4.68 19.67,14.05 33.73,29.51 14.05,15.46 30.92,37 46.37,55.27 15.46,18.28 29.51,33.26 39.82,66.04 10.31,32.8 16.86,83.38 18.27,143.8 1.41,60.43 -2.35,130.7 8.43,181.75 10.78,51.05 36.07,82.91 59.96,102.57 23.89,19.67 46.38,27.17 80.1,27.63 33.73,0.47 78.69,-6.08 119.43,-28.1 40.76,-22.01 77.3,-59.48 104.93,-83.84 27.63,-24.36 46.37,-35.59 68.85,-37 22.49,-1.41 48.72,7.03 86.19,11.25 37.48,4.21 86.19,4.21 114.76,16.86 28.57,12.65 37.01,37.94 40.76,70.26 3.75,32.33 2.82,71.67 11.25,105.39 8.43,33.73 26.23,61.84 29.03,87.13 2.82,25.3 -9.37,47.79 -18.74,90.88 -9.37,43.09 -15.92,106.79 -12.17,157.37 3.75,50.59 17.8,88.06 59.95,139.12 42.15,51.06 112.42,115.7 153.17,162.54 40.76,46.85 51.99,75.89 57.14,109.15 5.15,33.26 4.22,70.74 6.56,141.93 2.35,71.2 7.96,176.12 4.21,263.24 -3.75,87.13 -16.86,156.44 -27.16,205.63 -10.31,49.19 -17.8,78.23 -22.02,101.18 -4.21,22.95 -5.14,39.82 -7.02,59.02 -1.87,19.2 -4.68,40.75 3.75,57.6 8.44,16.87 28.1,29.05 44.49,40.29 16.4,11.25 29.52,21.55 32.8,32.32 3.28,10.78 -3.28,22.02 -14.05,41.23 -10.78,19.2 -25.76,46.37 -32.79,81.5 -7.02,35.13 -6.09,78.23 0.46,110.07 6.56,31.86 18.75,52.46 46.85,66.04 28.1,13.59 72.13,20.14 121.78,22.95 49.65,2.82 104.93,1.88 140.99,-11.25 36.07,-13.11 52.93,-38.4 59.96,-59.48 7.03,-21.07 4.21,-37.94 2.81,-60.89 -1.4,-22.95 -1.4,-51.99 0,-74.01 1.41,-22.01 4.22,-37 7.5,-54.81 3.28,-17.8 7.03,-38.4 9.84,-66.51 2.81,-28.1 4.68,-63.7 12.17,-103.98 7.49,-40.29 20.61,-85.25 32.79,-118.97 12.18,-33.73 23.42,-56.22 28.57,-98.37 5.15,-42.15 4.22,-103.98 8.44,-149.42 4.21,-45.43 13.58,-74.47 21.54,-93.68 7.97,-19.2 14.52,-28.57 23.42,-29.98 8.91,-1.4 20.14,5.15 37.94,25.77 17.81,20.61 42.16,55.27 66.52,96.01 24.36,40.76 48.71,87.6 61.82,122.73 13.12,35.13 14.99,58.55 10.78,88.52 -4.21,29.98 -14.51,66.52 -17.8,102.58 -3.28,36.07 0.47,71.67 13.58,98.36 13.11,26.7 35.6,44.51 48.72,64.19 13.11,19.67 16.87,41.22 17.8,70.26 0.94,29.04 -0.93,65.58 14.52,89.93 15.46,24.36 48.26,36.54 81.04,44.03 32.79,7.49 65.57,10.31 86.65,10.78 21.08,0.47 30.45,-1.41 38.88,8.9 8.44,10.31 15.93,32.8 38.88,50.59 22.96,17.8 61.37,30.91 116.17,36.06 54.81,5.15 126,2.34 171.43,-8.91 45.44,-11.24 65.11,-30.91 74.48,-52.46 9.37,-21.54 8.43,-44.96 3.75,-59.95 -4.68,-14.99 -13.11,-21.54 -28.1,-35.59 -14.99,-14.05 -36.53,-35.6 -55.74,-59.96 -19.2,-24.35 -36.07,-51.52 -57.15,-74.94 -21.07,-23.42 -46.37,-43.09 -66.51,-66.05 -20.14,-22.95 -35.12,-49.18 -56.68,-91.34 -21.54,-42.15 -49.65,-100.23 -67.45,-146.14 -17.8,-45.9 -25.3,-79.62 -23.42,-111.48 1.88,-31.85 13.11,-61.83 20.13,-92.75 7.03,-30.91 9.85,-62.77 -2.81,-136.31 -12.64,-73.53 -40.75,-188.76 -57.14,-283.85 -16.39,-95.08 -21.07,-170.04 -22.48,-282.93 -1.4,-112.88 0.47,-263.7 1.41,-385.49 0.94,-121.79 0.94,-214.53 -9.84,-311.02 -10.78,-96.49 -32.32,-196.73 -40.29,-276.37 -7.96,-79.62 -2.34,-138.64 26.24,-185.02 28.57,-46.37 80.09,-80.09 148.01,-104.92 67.92,-24.83 152.23,-40.75 219.68,-88.99 67.45,-48.25 118.04,-128.82 166.75,-216.41 48.72,-87.58 95.56,-182.21 138.66,-256.22 43.09,-74 82.43,-127.4 124.12,-165.34 41.69,-37.94 85.73,-60.43 110.55,-84.79 24.83,-24.35 30.44,-50.58 34.18,-75.41 3.76,-24.82 5.62,-48.25 -0.94,-62.3 -6.55,-14.05 -21.54,-18.74 -48.25,-29.51 -26.69,-10.77 -65.1,-27.63 -111.01,-51.52 -45.9,-23.89 -99.29,-54.8 -147.54,-83.37 -48.25,-28.57 -91.34,-54.81 -117.11,-100.71 -25.76,-45.9 -34.19,-111.48 -30.92,-196.26 3.29,-84.78 18.28,-188.77 62.31,-326.95 44.03,-138.18 117.1,-310.56 170.5,-474.97 53.4,-164.4 87.13,-320.86 116.64,-473.09 29.51,-152.23 54.8,-300.25 72.12,-400.96 17.34,-100.71 26.7,-154.1 31.39,-180.8 4.68,-26.69 4.68,-26.69 6.55,-22.95 1.88,3.75 5.63,11.25 26.7,60.89 21.08,49.65 59.49,141.46 105.39,260.91 45.91,119.44 99.31,266.53 133.5,419.23 34.19,152.7 49.18,311.02 49.18,513.83 0,202.82 -14.98,450.15 -5.14,647.81 9.84,197.67 44.49,345.69 66.5,433.75 22.02,88.06 31.39,116.17 37.01,130.69 5.62,14.52 7.49,15.46 17.33,14.99 9.84,-0.47 27.64,-2.34 51.53,-3.28 23.89,-0.94 53.86,-0.94 82.9,19.66 29.04,20.61 57.14,61.84 99.77,162.08 42.62,100.24 99.78,259.5 149.89,392.52 50.12,133.03 93.22,239.82 116.64,300.71 23.42,60.9 27.17,75.89 25.77,94.16 -1.41,18.27 -7.96,39.82 -40.76,115.7 -32.79,75.88 -91.8,206.1 -129.75,325.54 -37.94,119.44 -54.8,228.12 -56.68,333.98 -1.88,105.86 11.25,208.9 26.33,307.05 15.08,98.16 32.13,191.43 39.41,294.42 7.29,103 4.8,215.76 3.1,274 -1.71,58.24 -2.65,62 -16.7,74.64 -14.05,12.64 -41.23,34.19 -59.96,61.83 -18.74,27.63 -29.03,61.36 -33.26,96.02 -4.21,34.66 -2.34,70.26 6.09,108.67 8.43,38.42 23.42,79.63 34.19,107.27 10.78,27.64 17.33,41.69 18.27,69.8 0.94,28.1 -3.75,70.27 -6.09,125.07 -2.34,54.81 -2.34,122.26 5.62,174.72 7.97,52.46 23.89,89.94 51.05,117.11 27.17,27.16 65.58,44.03 108.68,51.52 43.09,7.49 90.88,5.62 159.73,0.47 68.86,-5.15 158.8,-13.58 233.27,-19.2 74.48,-5.62 133.49,-8.43 171.9,-14.52 38.41,-6.09 56.22,-15.46 65.11,-37.95 8.9,-22.48 8.9,-58.07 0.47,-114.76 -8.43,-56.68 -25.3,-134.43 -44.03,-197.67 -18.74,-63.24 -39.35,-111.94 -44.97,-177.06 -5.62,-65.1 3.76,-146.62 21.55,-267.47 17.8,-120.85 44.03,-281.04 71.2,-426.72 27.16,-145.68 55.28,-276.83 78.7,-407.99 23.42,-131.16 42.15,-262.31 51.99,-399.56 9.84,-137.24 10.78,-280.58 10.31,-393.47 -0.47,-112.88 -2.34,-195.32 9.37,-307.74 11.71,-112.41 37,-254.81 66.04,-408.92 29.04,-154.11 61.84,-319.92 79.63,-402.83 17.8,-82.91 20.61,-82.91 46.84,-84.79 26.24,-1.87 75.88,-5.62 104.92,-8.44 29.04,-2.81 37.48,-4.67 45.44,-15.92 7.96,-11.25 15.46,-31.85 19.2,-126 3.75,-94.15 3.75,-261.84 -26.7,-450.62 -30.44,-188.77 -91.34,-398.61 -170.97,-586.92 -79.62,-188.3 -177.99,-355.06 -257.62,-493.24 -79.62,-138.18 -140.52,-247.79 -179.4,-378.01 -38.88,-130.22 -55.74,-281.05 -64.18,-356.47 -8.43,-75.41 -8.43,-75.41 -4.21,-73.54 4.21,1.88 12.65,5.63 47.78,82.92 35.13,77.29 96.97,228.11 156.45,370.97 59.49,142.87 116.64,277.78 153.17,355.07 36.54,77.29 52.47,96.95 119.26,184.57 66.8,87.62 184.48,243.18 282.09,362.98 97.62,119.8 175.2,203.83 218.29,252.85 43.09,49.03 51.71,63.04 56.56,81.34 4.85,18.32 5.93,40.95 1.62,65.18 -4.3,24.24 -14,50.09 -14,78.11 0,28.01 9.7,58.17 10.78,78.65 1.08,20.47 -6.47,31.25 -12.93,47.41 -6.46,16.16 -11.85,37.71 -14.55,53.87 -2.69,16.16 -2.69,26.93 -10.77,48.48 -8.08,21.55 -24.24,53.88 -36.63,82.96 -12.38,29.09 -21,54.95 -10.24,71.65 10.78,16.7 40.95,24.24 70.57,23.7 29.63,-0.54 58.71,-9.16 90.49,-16.7 31.79,-7.54 66.27,-14.01 99.13,-20.47 32.86,-6.46 64.11,-12.93 93.73,-39.33 29.63,-26.4 57.63,-72.71 71.64,-112.04 14.01,-39.32 14.01,-71.65 3.78,-108.28 -10.24,-36.62 -30.7,-77.57 -47.94,-115.82 -17.24,-38.24 -31.25,-73.79 -36.09,-106.65 -4.84,-32.86 -0.54,-63.03 1.08,-93.2 1.62,-30.16 0.54,-60.32 10.78,-81.87 10.24,-21.55 31.78,-34.47 47.94,-48.49 16.17,-14 26.93,-29.09 40.94,-50.1 14.01,-21 31.25,-47.93 60.33,-110.41 29.09,-62.49 70.04,-160.53 115.28,-286.04 45.25,-125.51 94.81,-278.49 131.44,-393.77 36.63,-115.28 60.34,-192.86 72.18,-231.64 11.85,-38.78 11.85,-38.78 11.85,-29.62 0,9.16 0,27.47 -5.39,123.9 -5.38,96.42 -16.15,270.96 -26.19,523.62 -10.04,252.67 -19.34,583.46 -12.59,857.86 6.75,274.4 29.54,492.39 44.5,625.61 14.96,133.22 22.09,181.66 33.49,209.44 11.39,27.78 27.07,34.91 51.29,37.76 24.22,2.85 56.99,1.43 82.64,14.25 25.65,12.82 44.16,39.9 56.98,75.52 12.83,35.62 19.95,79.78 26.37,127.51 6.42,47.74 12.11,99.03 23.51,156.02 11.4,56.99 28.5,119.68 42.03,180.23 13.54,60.56 23.51,118.98 26.36,203.04 2.86,84.07 -1.42,193.77 -9.97,394.67 -8.55,200.9 -21.37,493 -22.8,738.07 -1.42,245.07 8.55,443.13 19.23,559.24 10.69,116.13 22.09,150.32 56.29,212.3 34.19,61.98 91.18,151.74 123.24,208.73 32.06,56.99 39.19,81.21 39.9,103.29 0.71,22.09 -4.98,42.04 -24.94,76.24 -19.94,34.19 -54.14,82.63 -64.82,122.53 -10.69,39.9 2.14,71.24 33.48,91.9 31.35,20.66 81.22,30.63 135.36,34.19 54.15,3.57 112.56,0.71 166.7,-19.23 54.15,-19.94 104.02,-56.99 133.22,-92.62 29.21,-35.61 37.76,-69.81 50.58,-111.13 12.82,-41.32 29.92,-89.75 41.32,-158.86 11.4,-69.1 17.1,-158.87 6.41,-215.87 -10.69,-56.98 -37.75,-81.21 -56.98,-104.01 -19.23,-22.79 -30.64,-44.16 -32.07,-76.94 -1.42,-32.77 7.13,-76.94 12.11,-131.8 4.99,-54.86 6.41,-120.39 -0.71,-193.07 -7.12,-72.66 -22.8,-152.45 -45.6,-257.18 -22.79,-104.72 -52.71,-234.38 -66.25,-358.35 -13.53,-123.96 -10.68,-242.21 -9.97,-340.53 0.71,-98.31 -0.71,-176.67 4.98,-235.09 5.7,-58.41 18.53,-96.89 38.47,-173.83 19.95,-76.94 47.02,-192.35 64.12,-271.42 17.1,-79.08 24.23,-121.83 25.65,-190.94 1.43,-69.1 -2.85,-164.55 -2.85,-218.7 0,-54.14 4.27,-66.96 42.03,-101.88 37.76,-34.9 109,-91.9 151.03,-118.97 42.03,-27.07 54.86,-24.22 86.92,-10.69 32.06,13.53 83.35,37.76 111.13,56.99 27.78,19.23 32.06,33.48 45.59,64.11 13.54,30.64 36.33,77.67 52,135.37 15.68,57.7 24.23,126.09 12.11,276.41 -12.1,150.32 -44.88,382.58 -77.65,574.92 -32.77,192.36 -65.54,344.81 -73.38,470.9 -7.83,126.1 9.27,225.84 17.82,310.62 8.55,84.78 8.55,154.59 -1.43,216.56 -9.97,61.99 -29.92,116.13 -38.47,176.68 -8.55,60.56 -5.69,127.53 -5.69,183.1 0,55.57 -2.86,99.74 -12.83,129.66 -9.97,29.92 -27.06,45.6 -39.18,79.79 -12.1,34.19 -19.23,86.91 -12.11,133.92 7.13,47.02 28.5,88.34 40.61,121.11 12.11,32.78 14.97,56.99 7.84,95.46 -7.12,38.48 -24.22,91.19 -29.92,126.81 -5.69,35.62 0,54.14 26.36,69.1 26.37,14.96 73.38,26.37 110.42,37.76 37.05,11.39 64.12,22.8 91.9,17.81 27.78,-4.98 56.29,-26.36 76.23,-30.63 19.95,-4.27 31.35,8.55 51.29,37.04 19.95,28.5 48.46,72.66 86.21,98.31 37.76,25.65 84.78,32.78 163.14,36.33 78.37,3.57 188.07,3.57 251.48,2.85 63.41,-0.71 80.5,-2.13 89.05,-20.65 8.55,-18.53 8.55,-54.14 1.42,-88.33 -7.12,-34.19 -21.36,-66.97 -44.16,-89.77 -22.8,-22.79 -54.14,-35.61 -87.62,-49.86 -33.49,-14.24 -69.11,-29.92 -96.18,-64.12 -27.07,-34.19 -45.59,-86.92 -61.27,-124.68 -15.67,-37.76 -28.49,-60.55 -21.37,-79.08 7.13,-18.53 34.19,-32.77 56.28,-62.69 22.09,-29.92 39.19,-75.52 45.6,-114.7 6.41,-39.18 2.14,-71.96 -9.98,-94.75 -12.1,-22.79 -32.06,-35.62 -45.59,-65.54 -13.53,-29.92 -20.66,-76.94 -30.64,-130.37 -9.97,-53.43 -22.79,-113.27 -31.34,-158.15 -8.55,-44.88 -12.82,-74.81 -8.55,-101.18 4.27,-26.36 17.1,-49.15 26.36,-79.78 9.27,-30.63 14.96,-69.1 17.81,-109 2.86,-39.89 2.86,-81.21 9.27,-131.09 6.41,-49.86 19.23,-108.28 34.19,-153.17 14.96,-44.88 32.06,-76.22 42.02,-120.39 9.98,-44.17 12.83,-101.16 25.66,-251.48 12.82,-150.32 35.62,-393.96 69.82,-606.98 34.19,-213.01 79.79,-395.38 117.54,-527.89 37.76,-132.51 67.68,-215.15 71.24,-322.72 3.57,-107.57 -19.22,-240.08 -34.18,-334.84 -14.96,-94.75 -22.09,-151.73 -20.66,-219.41 1.43,-67.68 11.39,-146.05 7.83,-245.79 -3.56,-99.74 -20.65,-220.85 -57.7,-390.4 -37.04,-169.56 -94.04,-387.55 -118.97,-522.2 -24.93,-134.64 -17.81,-185.93 -9.97,-212.3 7.84,-26.36 16.39,-27.77 26.36,-16.38 9.98,11.39 21.38,35.62 59.13,103.29 37.76,67.68 101.88,178.82 173.11,304.92 71.25,126.09 149.61,267.16 204.47,351.93 54.86,84.78 86.2,113.28 102.58,143.2 16.39,29.92 17.81,61.27 0,143.19 -17.81,81.93 -54.86,214.45 -66.97,321.31 -12.1,106.86 0.72,188.07 53.43,273.56 52.72,85.49 145.34,175.26 213.01,252.91 67.68,77.66 110.43,143.19 133.22,195.91 22.8,52.72 25.66,92.62 10.69,161.72 -14.96,69.11 -47.73,167.42 -86.92,310.61 -39.18,143.2 -84.78,331.27 -103.3,463.78 -18.52,132.52 -9.97,209.45 15.68,270.72 25.65,61.27 68.39,106.86 102.58,138.21 34.19,31.35 59.85,48.45 74.09,66.96 14.25,18.53 17.11,38.48 17.82,62.7 0.71,24.22 -0.71,52.72 8.55,89.05 9.26,36.33 29.21,80.49 36.33,121.81 7.12,41.33 1.43,79.8 -0.71,171.7 -2.14,91.9 -0.72,237.24 16.38,334.83 17.1,97.6 49.87,147.48 73.38,193.07 23.51,45.59 37.75,86.92 57.69,143.19 19.95,56.29 45.6,127.52 77.66,191.64 32.06,64.13 70.53,121.11 91.18,154.6 20.66,33.49 23.52,43.45 19.24,55.57 -4.27,12.11 -15.68,26.36 -40.62,64.82 -24.93,38.48 -63.4,101.17 -89.76,165.28 -26.36,64.13 -40.6,129.66 -34.9,168.13 5.7,38.47 31.35,49.87 82.64,56.99 51.29,7.12 128.24,9.98 196.63,2.85 68.39,-7.12 128.23,-24.22 193.77,-36.33 65.54,-12.1 136.78,-19.23 184.51,-22.8 47.74,-3.56 71.97,-3.56 95.92,-30.54 23.96,-26.97 47.67,-80.94 65.11,-125.93zm-608.68 -1017.86c28.26,7.5 82.31,21.44 110.21,27.98 27.9,6.54 29.64,5.67 30.51,-0.43 0.88,-6.1 0.88,-17.44 0.44,-38.37 -0.43,-20.92 -1.31,-51.43 -4.79,-68.88 -3.49,-17.44 -9.59,-21.79 -14.38,-22.23 -4.79,-0.44 -8.29,3.06 -33.94,19.1 -25.65,16.05 -73.45,44.65 -97.36,58.95 -23.9,14.31 -23.9,14.31 -22.67,14.83 1.24,0.52 3.72,1.55 31.98,9.04z"/>
 </g>
</svg>
