<?xml version="1.0" encoding="UTF-8"?>
<!DOCTYPE svg PUBLIC "-//W3C//DTD SVG 1.1//EN" "http://www.w3.org/Graphics/SVG/1.1/DTD/svg11.dtd">
<!-- Creator: CorelDRAW 2020 (64-Bit) -->
<svg xmlns="http://www.w3.org/2000/svg" xml:space="preserve" width="17.8324mm" height="18.216mm" version="1.1" style="shape-rendering:geometricPrecision; text-rendering:geometricPrecision; image-rendering:optimizeQuality; fill-rule:evenodd; clip-rule:evenodd"
viewBox="0 0 141.22 144.25"
 xmlns:xlink="http://www.w3.org/1999/xlink"
 xmlns:xodm="http://www.corel.com/coreldraw/odm/2003">
 <defs>
  <style type="text/css">
   <![CDATA[
    .fil3 {fill:#1D5B3D;fill-rule:nonzero}
    .fil1 {fill:#57B479;fill-rule:nonzero}
    .fil4 {fill:#98873C;fill-rule:nonzero}
    .fil0 {fill:#DDA322;fill-rule:nonzero}
    .fil2 {fill:#F6C854;fill-rule:nonzero}
   ]]>
  </style>
 </defs>
 <g id="Слой_x0020_1">
  <metadata id="CorelCorpID_0Corel-Layer"/>
  <path class="fil0" d="M-0 88.06l12.19 0c4.21,0 7.72,1.48 10.53,4.42 2.83,2.92 4.25,6.56 4.25,10.91 0,4.36 -1.42,8 -4.25,10.92 -2.81,2.95 -6.31,4.42 -10.53,4.42l-12.19 0 0 -30.68zm6.05 24.89l6.14 0c2.66,0 4.82,-0.87 6.49,-2.62 1.67,-1.81 2.5,-4.13 2.5,-6.93 0,-2.83 -0.83,-5.13 -2.5,-6.88 -1.66,-1.78 -3.83,-2.67 -6.49,-2.67l-6.14 0 0 19.11zm48.58 5.79l-6.54 0 -6.18 -10.65 -4.61 0 0 10.65 -6.05 0 0 -30.68 12.28 0c2.83,0 5.24,0.99 7.23,2.97 1.99,1.99 2.98,4.39 2.98,7.2 0,1.9 -0.53,3.65 -1.62,5.28 -1.08,1.63 -2.52,2.85 -4.3,3.67l6.8 11.57zm-11.1 -25.03l-6.23 0 0 9.07 6.23 0c1.14,0 2.12,-0.45 2.95,-1.34 0.81,-0.88 1.22,-1.96 1.22,-3.22 0,-1.26 -0.41,-2.32 -1.22,-3.21 -0.82,-0.87 -1.8,-1.31 -2.95,-1.31zm20.69 12.35l0 6.88 12.94 0 0 5.79 -18.99 0 0 -30.68 18.76 0 0 5.78 -12.71 0 0 6.54 11.62 0 0 5.69 -11.62 0zm43.98 12.68l-6.57 0 -1.84 -5.53 -12.24 0 -1.84 5.53 -6.52 0 10.74 -30.68 7.49 0 10.79 30.68zm-14.51 -23.72l-4.2 12.54 8.41 0 -4.21 -12.54zm41.31 -6.96l6.23 0 0 30.68 -6 0 0 -19.91 -8.64 14.25 -0.71 0 -8.64 -14.2 0 19.86 -6.05 0 0 -30.68 6.23 0 8.81 14.5 8.77 -14.5z"/>
  <path class="fil1" d="M33.05 132.99l0 -8.54 1.95 0 0 19.47 -1.95 0 0 -9.1 -10.58 0 0 9.1 -1.95 0 0 -19.47 1.95 0 0 8.54 10.58 0zm6.12 4.31l0 -12.85 1.95 0 0 12.85c0,1.58 0.46,2.82 1.4,3.71 0.94,0.9 2.23,1.35 3.88,1.35 1.65,0 2.94,-0.45 3.88,-1.35 0.94,-0.9 1.4,-2.14 1.4,-3.71l0 -12.85 1.95 0 0 12.85c0,2.12 -0.67,3.81 -2,5.06 -1.35,1.26 -3.09,1.89 -5.23,1.89 -2.14,0 -3.88,-0.63 -5.23,-1.89 -1.33,-1.25 -2,-2.94 -2,-5.06zm31.16 3.01l0 -15.85 1.95 0 0 19.47 -1.67 0 -10.85 -15.86 0 15.86 -1.95 0 0 -19.47 1.67 0 10.85 15.85zm4.73 -15.85l13.9 0 0 1.83 -5.98 0 0 17.64 -1.95 0 0 -17.64 -5.98 0 0 -1.83zm18.63 10.57l0 7.07 9.46 0 0 1.84 -11.41 0 0 -19.47 11.27 0 0 1.83 -9.32 0 0 6.9 8.63 0 0 1.84 -8.63 0zm26.99 8.9l-2.22 0 -4.56 -7.79 -5.46 0 0 7.79 -1.95 0 0 -19.47 7.79 0c1.59,0 2.97,0.58 4.12,1.72 1.15,1.15 1.73,2.52 1.73,4.12 0,1.33 -0.4,2.52 -1.2,3.53 -0.76,1 -1.76,1.69 -3.01,2.06l4.76 8.04zm-6.4 -17.64l-5.84 0 0 8.01 5.84 0c1.08,0 2,-0.39 2.75,-1.17 0.76,-0.81 1.14,-1.76 1.14,-2.84 0,-1.1 -0.38,-2.03 -1.14,-2.83 -0.76,-0.78 -1.67,-1.18 -2.75,-1.18z"/>
  <g id="_2626020917136">
   <path class="fil2" d="M93.73 37.11c0,6.55 -2.66,12.48 -6.95,16.77 -4.29,4.29 -10.22,6.95 -16.77,6.95 -6.55,0 -12.48,-2.65 -16.77,-6.95 -4.29,-4.29 -6.95,-10.22 -6.95,-16.77 0,-6.55 2.65,-12.48 6.95,-16.77 4.29,-4.29 10.22,-6.95 16.77,-6.95 6.55,0 12.48,2.66 16.77,6.95 4.29,4.29 6.95,10.22 6.95,16.77zm-8.29 15.43c3.95,-3.95 6.39,-9.41 6.39,-15.43 0,-6.03 -2.44,-11.48 -6.39,-15.43 -3.95,-3.95 -9.41,-6.39 -15.43,-6.39 -6.03,0 -11.48,2.44 -15.43,6.39 -3.95,3.95 -6.39,9.41 -6.39,15.43 0,6.03 2.44,11.48 6.39,15.43 3.95,3.95 9.41,6.39 15.43,6.39 6.03,0 11.48,-2.44 15.43,-6.39z"/>
   <path class="fil2" d="M100.63 37.11c0,8.46 -3.43,16.11 -8.97,21.65 -5.54,5.54 -13.2,8.97 -21.65,8.97 -8.46,0 -16.11,-3.43 -21.65,-8.97 -5.54,-5.54 -8.97,-13.2 -8.97,-21.65 0,-8.46 3.43,-16.11 8.97,-21.65 5.54,-5.54 13.2,-8.97 21.65,-8.97 8.46,0 16.11,3.43 21.65,8.97 5.54,5.54 8.97,13.2 8.97,21.65zm-10.31 20.31c5.2,-5.2 8.41,-12.38 8.41,-20.31 0,-7.93 -3.22,-15.12 -8.41,-20.31 -5.2,-5.2 -12.38,-8.41 -20.31,-8.41 -7.93,0 -15.12,3.22 -20.31,8.41 -5.2,5.2 -8.41,12.38 -8.41,20.31 0,7.93 3.22,15.12 8.41,20.31 5.2,5.2 12.38,8.41 20.31,8.41 7.93,0 15.12,-3.22 20.31,-8.41z"/>
   <path class="fil3" d="M108.35 38.27c0,20.36 -16.11,36.95 -36.28,37.72 -0.48,0.02 -0.97,0.03 -1.46,0.03 -0.49,0 -0.97,-0.01 -1.46,-0.03 -20.17,-0.77 -36.29,-17.36 -36.29,-37.72 0,-3.17 0.39,-6.26 1.13,-9.2 0.11,-0.44 0.23,-0.88 0.35,-1.31 0.19,0.06 0.39,0.11 0.61,0.14 2.82,0.49 6.03,0.03 8.92,0.23 0.78,0.05 1.57,0.11 2.34,0.27 0.37,0.07 0.74,0.17 1.1,0.29 1.14,0.39 2.15,1.07 3.17,1.71 1.59,1.01 3.22,1.95 4.87,2.83 3.42,1.82 6.98,3.39 10.65,4.66 0.73,0.25 1.5,0.52 2.04,1.08 0.49,0.52 0.73,1.22 1.03,1.87 0.75,1.63 1.91,2.98 3.3,4.09 0.54,0.43 1.13,0.83 1.73,1.19 1.58,0.95 3.33,1.67 5.07,2.23 2.71,0.87 6.1,1.31 8.03,-0.79 2.26,-2.45 1.06,-6.87 3.42,-9.22 0.73,-0.73 1.7,-1.14 2.66,-1.51 1.44,-0.55 4.78,-1.43 5.67,-1.65 0.1,-0.03 0.17,-0.04 0.2,-0.05 0.07,-0.01 -0.52,-0.16 -0.45,-0.17 3.06,-0.06 6.29,-0.09 9.48,-0.13 0.05,0.57 0.09,1.14 0.12,1.72 0.02,0.57 0.04,1.14 0.04,1.71z"/>
   <path class="fil1" d="M109.49 38.88c0,10.46 -4.13,19.96 -10.86,26.95 -6.75,7.02 -16.11,11.5 -26.52,11.9 -0.23,0.01 -0.48,0.02 -0.75,0.02 -0.4,0.01 -0.65,0.01 -0.75,0.01 -0.09,0 -0.34,-0 -0.75,-0.01 -0.27,-0 -0.52,-0.01 -0.75,-0.02 -10.41,-0.4 -19.77,-4.88 -26.52,-11.9 -6.72,-6.99 -10.86,-16.49 -10.86,-26.95 0,-1.62 0.1,-3.21 0.29,-4.78 0.2,-1.59 0.49,-3.16 0.87,-4.69 0.06,-0.23 0.12,-0.46 0.18,-0.68 0.04,-0.14 0.1,-0.37 0.19,-0.67l-0 -0c0.07,-0.23 0.16,-0.55 0.29,-0.94 0.11,-0.35 0.22,-0.66 0.31,-0.95l0 0c2.67,-7.72 7.7,-14.33 14.22,-18.98 6.36,-4.53 14.13,-7.19 22.52,-7.19 9.8,0 18.76,3.63 25.6,9.62 6.93,6.07 11.68,14.55 12.94,24.14 0.04,0.3 0.07,0.56 0.1,0.79 0.04,0.33 0.06,0.6 0.08,0.8 0.02,0.24 0.04,0.53 0.07,0.88 0.02,0.25 0.03,0.55 0.05,0.89l0 0c0.01,0.26 0.02,0.56 0.03,0.88 0.01,0.41 0.01,0.71 0.01,0.88zm-12.49 25.38c6.33,-6.58 10.22,-15.52 10.22,-25.38 0,-0.41 -0,-0.68 -0.01,-0.83 -0.01,-0.25 -0.02,-0.52 -0.03,-0.82 -0.01,-0.24 -0.03,-0.52 -0.05,-0.84 -0.02,-0.22 -0.04,-0.5 -0.07,-0.83 -0.03,-0.32 -0.05,-0.57 -0.07,-0.75 -0.03,-0.28 -0.06,-0.53 -0.09,-0.74 -1.19,-9.03 -5.66,-17.02 -12.18,-22.73 -6.44,-5.64 -14.87,-9.06 -24.11,-9.06 -7.91,0 -15.23,2.5 -21.21,6.76 -6.15,4.38 -10.89,10.61 -13.4,17.87l0 0c-0.11,0.32 -0.21,0.62 -0.3,0.88 -0.07,0.21 -0.15,0.5 -0.26,0.88l-0 0c-0.04,0.13 -0.1,0.34 -0.17,0.63 -0.06,0.22 -0.11,0.43 -0.17,0.64 -0.36,1.43 -0.64,2.91 -0.82,4.42 -0.18,1.47 -0.27,2.98 -0.27,4.51 0,9.86 3.89,18.8 10.22,25.38 6.36,6.61 15.17,10.83 24.97,11.21 0.26,0.01 0.49,0.02 0.71,0.02 0.08,0 0.32,0 0.71,0 0.39,0 0.63,-0 0.71,-0 0.21,-0 0.45,-0.01 0.71,-0.02 9.8,-0.37 18.61,-4.6 24.97,-11.21z"/>
   <path class="fil2" d="M85 37.11c0,8.28 -6.71,15 -15,15 -8.28,0 -15,-6.71 -15,-15 0,-8.28 6.71,-15 15,-15 8.28,0 15,6.71 15,15z"/>
   <path class="fil4" d="M85.95 37.11c0,4.4 -1.78,8.39 -4.67,11.27 -2.88,2.88 -6.87,4.67 -11.27,4.67 -4.4,0 -8.39,-1.78 -11.27,-4.67 -2.88,-2.88 -4.67,-6.87 -4.67,-11.27 0,-4.4 1.78,-8.39 4.67,-11.27 2.89,-2.88 6.87,-4.67 11.27,-4.67 4.4,0 8.39,1.78 11.27,4.67 2.88,2.88 4.67,6.87 4.67,11.27zm-6.01 9.93c2.54,-2.54 4.11,-6.05 4.11,-9.93 0,-3.88 -1.57,-7.39 -4.11,-9.93 -2.54,-2.54 -6.05,-4.11 -9.93,-4.11 -3.88,0 -7.39,1.57 -9.93,4.11 -2.54,2.54 -4.11,6.05 -4.11,9.93 0,3.88 1.57,7.39 4.11,9.93 2.54,2.54 6.05,4.11 9.93,4.11 3.88,0 7.39,-1.57 9.93,-4.11z"/>
   <path class="fil1" d="M45.94 28.98c-1,-0.09 -1.84,0.73 -1.77,1.73 1.08,17.14 14.26,31.6 31.93,33.72 0.4,0.05 0.8,0.09 1.2,0.12 1,0.09 1.84,-0.73 1.77,-1.73 -1.08,-17.14 -14.26,-31.6 -31.93,-33.72 -0.4,-0.05 -0.8,-0.09 -1.2,-0.12z"/>
   <path class="fil3" d="M45.85 30.11c-0.04,-0 -0.06,-0 -0.08,-0 -0.12,0.01 -0.23,0.06 -0.32,0.14 -0.08,0.08 -0.13,0.19 -0.14,0.31 -0,0.03 -0,0.06 -0,0.08 0.53,8.37 4.04,16.08 9.58,21.94 5.45,5.75 12.86,9.71 21.35,10.73 0.27,0.03 0.46,0.05 0.58,0.07 0.09,0.01 0.28,0.03 0.58,0.05 0.04,0 0.06,0 0.08,0 0.12,-0.01 0.23,-0.06 0.32,-0.14 0.08,-0.08 0.13,-0.19 0.14,-0.31 0,-0.03 0,-0.06 0,-0.08 -0.53,-8.37 -4.04,-16.08 -9.58,-21.93 -5.45,-5.75 -12.86,-9.71 -21.35,-10.73 -0.28,-0.03 -0.47,-0.06 -0.58,-0.07 -0.09,-0.01 -0.28,-0.03 -0.58,-0.05zm-0.22 -2.27c0.14,-0.01 0.28,-0.01 0.42,0 0.1,0.01 0.31,0.03 0.62,0.06 0.29,0.03 0.49,0.05 0.62,0.07 9.03,1.08 16.93,5.29 22.73,11.42 5.9,6.23 9.64,14.44 10.2,23.36 0.01,0.15 0.01,0.29 -0,0.41l0 0c-0.06,0.68 -0.37,1.29 -0.83,1.74 -0.46,0.45 -1.07,0.74 -1.75,0.78 -0.15,0.01 -0.29,0.01 -0.42,-0 -0.1,-0.01 -0.3,-0.03 -0.62,-0.06 -0.28,-0.03 -0.49,-0.05 -0.61,-0.07 -9.03,-1.08 -16.93,-5.29 -22.73,-11.42 -5.9,-6.23 -9.64,-14.44 -10.2,-23.36 -0.01,-0.15 -0.01,-0.29 0,-0.41l0 -0c0.06,-0.68 0.37,-1.29 0.83,-1.74 0.46,-0.45 1.07,-0.74 1.76,-0.78z"/>
   <path class="fil1" d="M98.56 35.61c1,0.03 1.74,0.95 1.55,1.93 -3.12,16.89 -17.92,29.68 -35.71,29.68 -0.4,0 -0.8,-0.01 -1.2,-0.02 -1,-0.03 -1.74,-0.95 -1.55,-1.93 3.11,-16.89 17.92,-29.68 35.71,-29.68 0.4,0 0.8,0.01 1.2,0.02z"/>
   <path class="fil3" d="M98.59 34.48c0.14,0 0.28,0.02 0.42,0.04 0.67,0.12 1.25,0.49 1.65,0.99 0.4,0.5 0.63,1.14 0.61,1.82 -0,0.14 -0.02,0.28 -0.04,0.41 -1.62,8.78 -6.3,16.49 -12.9,21.98 -6.49,5.4 -14.83,8.64 -23.92,8.64l-0.62 -0.01c-0.23,-0 -0.43,-0.01 -0.62,-0.02 -0.14,-0 -0.28,-0.02 -0.41,-0.04 -0.67,-0.12 -1.25,-0.49 -1.65,-0.99 -0.4,-0.5 -0.63,-1.14 -0.61,-1.82 0,-0.14 0.02,-0.28 0.04,-0.41 1.62,-8.78 6.3,-16.49 12.9,-21.98 6.49,-5.4 14.83,-8.64 23.92,-8.64l0.62 0.01c0.22,0 0.43,0.01 0.62,0.02zm0.01 2.27c-0.03,-0.01 -0.05,-0.01 -0.08,-0.01 -0.21,-0.01 -0.41,-0.01 -0.58,-0.01l-0.58 -0c-8.55,0 -16.38,3.05 -22.47,8.11 -6.2,5.15 -10.6,12.39 -12.12,20.64 -0.01,0.03 -0.01,0.05 -0.01,0.08 -0,0.12 0.04,0.24 0.11,0.33 0.07,0.09 0.18,0.16 0.29,0.18 0.03,0 0.05,0.01 0.08,0.01 0.21,0.01 0.41,0.01 0.58,0.01l0.59 0c8.55,0 16.38,-3.04 22.47,-8.11 6.2,-5.15 10.6,-12.39 12.12,-20.64 0,-0.03 0.01,-0.05 0.01,-0.08 0,-0.12 -0.04,-0.24 -0.11,-0.33 -0.07,-0.09 -0.18,-0.16 -0.29,-0.18z"/>
  </g>
 </g>
</svg>
