<?xml version="1.0" encoding="UTF-8"?>
<!DOCTYPE svg PUBLIC "-//W3C//DTD SVG 1.1//EN" "http://www.w3.org/Graphics/SVG/1.1/DTD/svg11.dtd">
<!-- Creator: CorelDRAW 2020 (64-Bit) -->
<svg xmlns="http://www.w3.org/2000/svg" xml:space="preserve" width="63.5204mm" height="21.1544mm" version="1.1" style="shape-rendering:geometricPrecision; text-rendering:geometricPrecision; image-rendering:optimizeQuality; fill-rule:evenodd; clip-rule:evenodd"
viewBox="0 0 3029.38 1008.89"
 xmlns:xlink="http://www.w3.org/1999/xlink"
 xmlns:xodm="http://www.corel.com/coreldraw/odm/2003">
 <defs>
  <style type="text/css">
   <![CDATA[
    .fil3 {fill:#1D5B3D;fill-rule:nonzero}
    .fil1 {fill:#57B479;fill-rule:nonzero}
    .fil4 {fill:#98873C;fill-rule:nonzero}
    .fil0 {fill:#D3A12F;fill-rule:nonzero}
    .fil2 {fill:#F6C854;fill-rule:nonzero}
   ]]>
  </style>
 </defs>
 <g id="Слой_x0020_1">
  <metadata id="CorelCorpID_0Corel-Layer"/>
  <g id="_2626020949488">
   <g>
    <path class="fil0" d="M1197.17 142.95l158.16 0c54.66,0 100.13,19.19 136.56,57.4 36.76,37.89 55.14,85.13 55.14,141.56 0,56.6 -18.38,103.83 -55.14,141.72 -36.44,38.21 -81.91,57.4 -136.56,57.4l-158.16 0 0 -398.08zm78.52 322.95l79.64 0c34.5,0 62.56,-11.28 84.17,-34.02 21.6,-23.54 32.41,-53.53 32.41,-89.97 0,-36.76 -10.8,-66.59 -32.41,-89.32 -21.6,-23.05 -49.66,-34.67 -84.17,-34.67l-79.64 0 0 247.98zm630.26 75.13l-84.81 0 -80.13 -138.17 -59.82 0 0 138.17 -78.52 0 0 -398.08 159.3 0c36.76,0 68.04,12.9 93.84,38.53 25.8,25.8 38.7,56.92 38.7,93.35 0,24.67 -6.93,47.41 -20.97,68.53 -14.03,21.12 -32.73,36.92 -55.78,47.56l88.2 150.1zm-143.98 -324.72l-80.78 0 0 117.7 80.78 0c14.83,0 27.57,-5.8 38.21,-17.42 10.48,-11.45 15.8,-25.47 15.8,-41.76 0,-16.28 -5.32,-30.15 -15.8,-41.6 -10.64,-11.28 -23.38,-16.93 -38.21,-16.93zm268.45 160.27l0 89.32 167.85 0 0 75.13 -246.36 0 0 -398.08 243.46 0 0 74.97 -164.94 0 0 84.81 150.75 0 0 73.85 -150.75 0zm570.57 164.45l-85.29 0 -23.86 -71.75 -158.81 0 -23.86 71.75 -84.64 0 139.3 -398.08 97.22 0 139.95 398.08zm-188.32 -307.79l-54.5 162.69 109.15 0 -54.65 -162.69zm535.94 -90.29l80.78 0 0 398.08 -77.88 0 0 -258.29 -112.06 184.93 -9.19 0 -112.06 -184.29 0 257.65 -78.52 0 0 -398.08 80.78 0 114.32 188.16 113.83 -188.16z"/>
    <path class="fil1" d="M1376.45 717.73l0 -112.39 25.63 0 0 256.24 -25.63 0 0 -119.77 -139.17 0 0 119.77 -25.63 0 0 -256.24 25.63 0 0 112.39 139.17 0zm80.54 56.67l0 -169.06 25.63 0 0 169.06c0,20.76 6.12,37.05 18.48,48.88 12.35,11.83 29.37,17.75 51.06,17.75 21.69,0 38.71,-5.91 51.06,-17.75 12.35,-11.83 18.48,-28.13 18.48,-48.88l0 -169.06 25.63 0 0 169.06c0,27.92 -8.82,50.13 -26.36,66.63 -17.75,16.6 -40.68,24.91 -68.81,24.91 -28.12,0 -51.06,-8.31 -68.8,-24.91 -17.54,-16.5 -26.36,-38.71 -26.36,-66.63zm410.05 39.54l0 -208.6 25.63 0 0 256.24 -22 0 -142.8 -208.71 0 208.71 -25.63 0 0 -256.24 22 0 142.81 208.6zm62.27 -208.6l182.97 0 0 24.07 -78.67 0 0 232.17 -25.63 0 0 -232.17 -78.67 0 0 -24.07zm245.24 139.07l0 92.99 124.54 0 0 24.18 -150.18 0 0 -256.24 148.31 0 0 24.07 -122.67 0 0 90.81 113.54 0 0 24.18 -113.54 0zm355.14 117.17l-29.27 0 -59.98 -102.54 -71.82 0 0 102.54 -25.63 0 0 -256.24 102.54 0c20.97,0 39.02,7.57 54.17,22.62 15.15,15.16 22.73,33.21 22.73,54.18 0,17.54 -5.29,33.11 -15.78,46.49 -9.96,13.18 -23.14,22.21 -39.54,27.09l62.58 105.86zm-84.17 -232.17l-76.91 0 0 105.45 76.91 0c14.22,0 26.25,-5.08 36.22,-15.36 10.06,-10.69 15.05,-23.14 15.05,-37.36 0,-14.43 -4.98,-26.77 -15.05,-37.26 -9.97,-10.28 -22,-15.47 -36.22,-15.47z"/>
   </g>
   <g>
    <path class="fil2" d="M804.4 481.51c0,84.99 -34.45,161.93 -90.15,217.62 -55.69,55.69 -132.63,90.15 -217.62,90.15 -84.98,0 -161.92,-34.45 -217.62,-90.15 -55.69,-55.69 -90.14,-132.63 -90.14,-217.62 0,-84.98 34.45,-161.92 90.14,-217.62 55.69,-55.69 132.63,-90.14 217.62,-90.14 84.99,0 161.93,34.45 217.62,90.15 55.69,55.69 90.15,132.63 90.15,217.62zm-107.53 200.24c51.25,-51.24 82.95,-122.04 82.95,-200.24 0,-78.2 -31.7,-148.99 -82.95,-200.24 -51.24,-51.24 -122.04,-82.95 -200.24,-82.95 -78.19,0 -148.99,31.7 -200.24,82.94 -51.24,51.25 -82.94,122.04 -82.94,200.24 0,78.2 31.7,149 82.94,200.24 51.24,51.24 122.04,82.95 200.24,82.95 78.2,0 149,-31.7 200.24,-82.95z"/>
    <path class="fil2" d="M893.97 481.51c0,109.72 -44.48,209.05 -116.38,280.96 -71.9,71.9 -171.24,116.37 -280.95,116.37 -109.71,0 -209.05,-44.47 -280.95,-116.37 -71.9,-71.9 -116.38,-171.24 -116.38,-280.96 0,-109.71 44.48,-209.05 116.38,-280.95 71.9,-71.9 171.24,-116.37 280.95,-116.37 109.71,0 209.05,44.47 280.95,116.37 71.9,71.9 116.38,171.24 116.38,280.95zm-133.76 263.58c67.45,-67.45 109.18,-160.64 109.18,-263.58 0,-102.93 -41.72,-196.12 -109.18,-263.57 -67.45,-67.45 -160.64,-109.17 -263.57,-109.17 -102.93,0 -196.12,41.72 -263.57,109.17 -67.45,67.45 -109.18,160.64 -109.18,263.57 0,102.93 41.72,196.12 109.18,263.58 67.45,67.45 160.64,109.18 263.57,109.18 102.93,0 196.12,-41.73 263.57,-109.18z"/>
    <path class="fil3" d="M994.17 496.49c0,264.13 -209.07,479.38 -470.77,489.34 -6.28,0.23 -12.6,0.35 -18.93,0.35 -6.33,0 -12.66,-0.12 -18.93,-0.35 -261.69,-9.96 -470.8,-225.22 -470.8,-489.34 0,-41.19 5.09,-81.19 14.68,-119.39 1.44,-5.71 2.96,-11.37 4.6,-16.99 2.4,0.76 5.04,1.37 7.94,1.87 36.62,6.42 78.29,0.41 115.67,2.93 10.17,0.67 20.39,1.49 30.36,3.49 4.83,0.93 9.61,2.17 14.29,3.78 14.77,5.1 27.95,13.86 41.16,22.23 20.6,13.04 41.73,25.29 63.26,36.75 44.39,23.66 90.62,43.91 138.15,60.47 9.49,3.31 19.45,6.73 26.43,14.01 6.41,6.71 9.46,15.85 13.33,24.32 9.67,21.21 24.73,38.67 42.87,53.03 7.06,5.62 14.62,10.75 22.5,15.47 20.51,12.3 43.25,21.7 65.8,28.95 35.15,11.3 79.11,16.94 104.16,-10.2 29.38,-31.76 13.71,-89.15 44.39,-119.65 9.43,-9.4 22.09,-14.77 34.51,-19.54 18.69,-7.13 62.01,-18.59 73.55,-21.44 1.34,-0.33 2.25,-0.54 2.65,-0.62 0.85,-0.17 -6.69,-2.14 -5.81,-2.16 39.71,-0.79 81.57,-1.17 122.95,-1.75 0.64,7.38 1.14,14.83 1.49,22.3 0.32,7.35 0.5,14.74 0.5,22.15z"/>
    <path class="fil1" d="M1008.91 504.44c0,135.73 -53.64,258.96 -140.89,349.66 -87.57,91.02 -209.02,149.24 -344.1,154.38 -2.95,0.1 -6.2,0.2 -9.76,0.26 -5.25,0.1 -8.47,0.14 -9.69,0.14 -1.21,0 -4.44,-0.05 -9.69,-0.14 -3.55,-0.07 -6.81,-0.16 -9.76,-0.26 -135.08,-5.14 -256.55,-63.36 -344.12,-154.38 -87.26,-90.69 -140.9,-213.93 -140.9,-349.66 0,-20.98 1.29,-41.7 3.8,-62.08 2.54,-20.64 6.35,-40.97 11.35,-60.89 0.75,-2.99 1.51,-5.91 2.28,-8.76 0.51,-1.89 1.33,-4.76 2.47,-8.68l-0.04 -0.01c0.87,-3.03 2.12,-7.13 3.75,-12.24 1.44,-4.52 2.79,-8.61 4.07,-12.27l0.02 0.01c34.62,-100.15 99.88,-185.96 184.53,-246.25 82.5,-58.73 183.37,-93.28 292.25,-93.28 127.2,0 243.43,47.12 332.2,124.88 89.86,78.7 151.53,188.82 167.89,313.21 0.52,3.89 0.94,7.35 1.26,10.32 0.47,4.29 0.82,7.72 1.05,10.33 0.26,3.03 0.55,6.82 0.85,11.35 0.22,3.26 0.43,7.13 0.64,11.53l0 0.06c0.15,3.42 0.27,7.21 0.37,11.4 0.12,5.38 0.19,9.25 0.19,11.38zm-162.09 329.27c82.12,-85.36 132.6,-201.4 132.6,-329.27 0,-5.27 -0.03,-8.8 -0.07,-10.81 -0.07,-3.17 -0.2,-6.74 -0.36,-10.65 -0.15,-3.1 -0.37,-6.74 -0.65,-10.95 -0.19,-2.87 -0.48,-6.46 -0.85,-10.77 -0.35,-4.1 -0.67,-7.37 -0.93,-9.75 -0.41,-3.71 -0.79,-6.9 -1.15,-9.62 -15.4,-117.1 -73.47,-220.77 -158.09,-294.89 -83.53,-73.16 -192.98,-117.5 -312.84,-117.5 -102.61,0 -197.6,32.5 -275.19,87.75 -79.79,56.81 -141.27,137.63 -173.84,231.89l0 0.06c-1.46,4.19 -2.75,8.01 -3.84,11.46 -0.87,2.73 -2,6.53 -3.4,11.44l-0.06 0.06c-0.49,1.66 -1.24,4.41 -2.26,8.17 -0.76,2.82 -1.48,5.58 -2.17,8.3 -4.67,18.62 -8.25,37.75 -10.65,57.32 -2.35,19.13 -3.56,38.66 -3.56,58.5 0,127.87 50.49,243.91 132.61,329.27 82.48,85.73 196.83,140.55 323.96,145.39 3.34,0.12 6.41,0.21 9.19,0.26 1.04,0.01 4.13,0.03 9.22,0.03 5.1,0 8.18,-0.01 9.22,-0.03 2.78,-0.05 5.85,-0.14 9.19,-0.26 127.13,-4.84 241.47,-59.66 323.94,-145.39z"/>
    <path class="fil2" d="M691.2 481.51c0,107.46 -87.11,194.56 -194.56,194.56 -107.45,0 -194.56,-87.1 -194.56,-194.56 0,-107.45 87.11,-194.56 194.56,-194.56 107.45,0 194.56,87.1 194.56,194.56z"/>
    <path class="fil4" d="M703.49 481.51c0,57.12 -23.15,108.83 -60.59,146.27 -37.43,37.43 -89.14,60.59 -146.27,60.59 -57.12,0 -108.83,-23.15 -146.27,-60.59 -37.43,-37.43 -60.59,-89.14 -60.59,-146.27 0,-57.12 23.15,-108.83 60.59,-146.26 37.43,-37.43 89.14,-60.59 146.27,-60.59 57.12,0 108.83,23.15 146.27,60.59 37.43,37.43 60.59,89.14 60.59,146.26zm-77.97 128.89c32.98,-32.98 53.39,-78.55 53.39,-128.89 0,-50.33 -20.4,-95.9 -53.39,-128.89 -32.98,-32.98 -78.55,-53.38 -128.89,-53.38 -50.33,0 -95.9,20.4 -128.89,53.38 -32.98,32.98 -53.38,78.55 -53.38,128.89 0,50.34 20.4,95.91 53.38,128.89 32.99,32.99 78.56,53.39 128.89,53.39 50.33,0 95.9,-20.4 128.89,-53.39z"/>
    <path class="fil1" d="M184.46 376.01c-12.92,-1.12 -23.83,9.52 -23.01,22.47 14.07,222.38 185.02,410.05 414.22,437.5 5.18,0.62 10.36,1.15 15.52,1.6 12.92,1.12 23.83,-9.53 23.01,-22.47 -14.07,-222.38 -185.02,-410.05 -414.22,-437.5 -5.18,-0.62 -10.36,-1.15 -15.52,-1.6z"/>
    <path class="fil3" d="M183.19 390.7c-0.46,-0.04 -0.81,-0.05 -1.03,-0.04 -1.58,0.1 -3.02,0.79 -4.11,1.85 -1.04,1.02 -1.74,2.43 -1.88,4.02 -0.04,0.43 -0.05,0.78 -0.04,1.03 6.88,108.61 52.38,208.68 124.26,284.6 70.69,74.67 166.91,126 277,139.19 3.53,0.42 6.01,0.71 7.5,0.86 1.11,0.11 3.6,0.34 7.56,0.68 0.47,0.04 0.81,0.05 1.03,0.04 1.58,-0.1 3.02,-0.79 4.11,-1.86 1.04,-1.02 1.75,-2.43 1.88,-4.02 0.04,-0.44 0.05,-0.79 0.04,-1.02 -6.87,-108.62 -52.38,-208.68 -124.26,-284.6 -70.69,-74.67 -166.91,-126.01 -277,-139.19 -3.54,-0.42 -6.09,-0.72 -7.55,-0.87 -1.1,-0.11 -3.58,-0.34 -7.51,-0.68zm-2.87 -29.42c1.88,-0.12 3.69,-0.11 5.4,0.04 1.22,0.1 3.91,0.37 7.97,0.79 3.72,0.38 6.37,0.67 8.01,0.87 117.18,14.03 219.6,68.68 294.86,148.17 76.55,80.86 125.01,187.4 132.32,303.04 0.12,1.94 0.1,3.74 -0.03,5.4 -0.76,8.79 -4.75,16.71 -10.75,22.57 -5.96,5.82 -13.94,9.59 -22.77,10.15 -1.89,0.12 -3.7,0.11 -5.4,-0.04 -1.23,-0.1 -3.93,-0.38 -8.03,-0.8 -3.66,-0.38 -6.34,-0.67 -7.96,-0.86 -117.18,-14.03 -219.6,-68.69 -294.86,-148.18 -76.55,-80.85 -125.01,-187.4 -132.33,-303.04 -0.12,-1.92 -0.1,-3.7 0.04,-5.34l0 -0.06c0.76,-8.79 4.75,-16.71 10.75,-22.57 5.96,-5.82 13.94,-9.59 22.78,-10.14z"/>
    <path class="fil1" d="M867.09 462.04c12.96,0.42 22.53,12.29 20.18,25.05 -40.42,219.13 -232.47,385.14 -463.3,385.14 -5.22,0 -10.43,-0.09 -15.61,-0.25 -12.96,-0.43 -22.53,-12.29 -20.17,-25.05 40.42,-219.13 232.47,-385.14 463.3,-385.14 5.22,0 10.43,0.08 15.6,0.25z"/>
    <path class="fil3" d="M867.56 447.36c1.86,0.06 3.66,0.26 5.38,0.58 8.72,1.61 16.22,6.3 21.45,12.8 5.22,6.48 8.2,14.79 7.91,23.63 -0.06,1.81 -0.25,3.61 -0.58,5.38 -21.01,113.94 -81.79,213.96 -167.39,285.12 -84.22,70.02 -192.41,112.12 -310.37,112.12l-7.99 -0.12c-2.94,-0.05 -5.63,-0.11 -8.08,-0.19 -1.86,-0.06 -3.66,-0.26 -5.38,-0.58 -8.72,-1.61 -16.22,-6.3 -21.45,-12.8 -5.22,-6.48 -8.21,-14.79 -7.91,-23.64 0.06,-1.8 0.25,-3.6 0.57,-5.37 21.02,-113.94 81.79,-213.96 167.39,-285.12 84.22,-70.02 192.41,-112.12 310.37,-112.12l8.08 0.12c2.89,0.05 5.56,0.11 7.99,0.19zm0.09 29.49c-0.35,-0.06 -0.69,-0.1 -1.01,-0.11 -2.72,-0.09 -5.24,-0.15 -7.53,-0.19l-7.62 -0c-110.93,0 -212.57,39.51 -291.6,105.21 -80.42,66.85 -137.51,160.81 -157.25,267.84 -0.07,0.37 -0.1,0.7 -0.11,1 -0.05,1.57 0.5,3.08 1.46,4.28 0.95,1.18 2.29,2.03 3.82,2.32 0.35,0.06 0.69,0.1 1,0.11 2.77,0.09 5.32,0.15 7.62,0.19l7.53 0c110.93,0 212.57,-39.51 291.59,-105.21 80.42,-66.85 137.51,-160.81 157.25,-267.84 0.07,-0.37 0.1,-0.71 0.11,-1 0.05,-1.57 -0.5,-3.08 -1.46,-4.27 -0.95,-1.18 -2.29,-2.04 -3.82,-2.32z"/>
   </g>
  </g>
 </g>
</svg>
