<?xml version="1.0" encoding="UTF-8"?>
<!DOCTYPE svg PUBLIC "-//W3C//DTD SVG 1.1//EN" "http://www.w3.org/Graphics/SVG/1.1/DTD/svg11.dtd">
<!-- Creator: CorelDRAW 2020 (64-Bit) -->
<svg xmlns="http://www.w3.org/2000/svg" xml:space="preserve" width="58.9753mm" height="77.1746mm" version="1.1" style="shape-rendering:geometricPrecision; text-rendering:geometricPrecision; image-rendering:optimizeQuality; fill-rule:evenodd; clip-rule:evenodd"
viewBox="0 0 3297.67 4315.3"
 xmlns:xlink="http://www.w3.org/1999/xlink"
 xmlns:xodm="http://www.corel.com/coreldraw/odm/2003">
 <defs>
  <style type="text/css">
   <![CDATA[
    .fil0 {fill:#898989}
   ]]>
  </style>
 </defs>
 <g id="Слой_x0020_1">
  <metadata id="CorelCorpID_0Corel-Layer"/>
  <path class="fil0" d="M2154.15 4240.37c71.97,-73.9 213.84,-220.48 325.68,-352.05 111.84,-131.57 193.67,-248.12 259.31,-358.79 65.63,-110.67 115.08,-215.45 151.87,-317.59 36.79,-102.13 60.93,-201.61 70.05,-314.93 9.13,-113.32 3.24,-240.47 -32.38,-370.86 -35.61,-130.39 -100.96,-264.02 -156.88,-365.86 -55.92,-101.83 -102.43,-171.89 -135.09,-229.02 -32.66,-57.12 -51.47,-101.33 -60.87,-123.43 -9.41,-22.1 -9.41,-22.1 -1.48,-13.91 7.93,8.19 23.8,24.58 62.26,71.58 38.46,47 99.51,124.63 152.29,200.17 52.78,75.54 97.29,148.98 131.78,220.42 34.5,71.44 58.98,140.88 75.89,212.1 16.91,71.22 26.26,144.22 29.15,210.09 2.9,65.88 -0.67,124.63 -2.44,154.01 -1.78,29.38 -1.78,29.38 6.01,11.13 7.79,-18.25 23.37,-54.75 44.96,-121.96 21.59,-67.21 49.18,-165.14 62.09,-269.96 12.91,-104.83 11.13,-216.55 -13.8,-330.06 -24.93,-113.5 -73,-228.79 -153.12,-343.85 -80.12,-115.06 -192.3,-229.9 -307.14,-335.17 -114.84,-105.27 -232.35,-200.97 -342.96,-285.1 -110.61,-84.13 -214.32,-156.68 -298.45,-235.69 -84.13,-79.01 -148.67,-164.47 -194.22,-237.71 -45.55,-73.24 -72.13,-134.27 -85.22,-164.77 -13.1,-30.51 -12.7,-30.51 -15.99,-28 -3.29,2.52 -10.26,7.55 -41.42,23.03 -31.16,15.48 -86.51,41.42 -145.34,63.1 -58.83,21.67 -121.15,39.09 -185.4,60.18 -64.25,21.1 -130.44,45.87 -183.27,80.89 -52.84,35.03 -92.31,80.32 -119.98,130.83 -27.68,50.51 -43.55,106.25 -51.29,158.5 -7.74,52.25 -7.35,101.02 -7.16,125.41 0.2,24.39 0.2,24.39 -8.12,21.87 -8.33,-2.52 -24.97,-7.55 -79.94,-19.74 -54.97,-12.19 -148.27,-31.55 -236.99,-32.77 -88.71,-1.21 -172.84,15.7 -242.06,41.07 -69.22,25.37 -123.52,59.2 -172.93,98.6 -49.41,39.39 -93.92,84.34 -130.87,133.98 -36.94,49.63 -66.32,103.94 -88.13,168.7 -21.81,64.77 -36.06,139.99 -31.83,218.78 4.23,78.79 26.93,161.13 64.54,231.24 37.61,70.11 90.14,127.98 148.45,173.16 58.31,45.18 122.41,77.67 167.14,100.15 44.73,22.48 70.11,34.94 88.14,47.63 18.03,12.68 28.71,25.59 52.08,42.28 23.37,16.69 59.42,37.17 102.59,49.18 43.18,12.02 93.47,15.58 129.98,11.13 36.5,-4.45 59.2,-16.91 73.45,-26.26 14.24,-9.35 20.02,-15.58 27.15,-17.81 7.12,-2.23 15.58,-0.44 31.6,8.01 16.03,8.46 39.62,23.59 73.67,38.95 34.05,15.35 78.56,30.93 120.85,39.61 42.29,8.68 82.35,10.46 112.62,6.68 30.27,-3.78 50.74,-13.13 61.87,-17.36 11.13,-4.23 12.91,-3.34 13.13,2.23 0.22,5.56 -1.12,15.8 -14.69,54.75 -13.58,38.95 -39.39,106.6 -53.42,146 -14.02,39.39 -16.24,50.52 -18.47,56.3 -2.23,5.79 -4.45,6.23 -8.24,2.23 -3.79,-4.01 -9.13,-12.46 -16.03,-27.82 -6.9,-15.35 -15.35,-37.61 -29.6,-61.21 -14.25,-23.59 -34.28,-48.51 -50.75,-66.76 -16.47,-18.25 -29.37,-29.83 -36.05,-34.05 -6.68,-4.23 -7.12,-1.11 -7.12,6.01 0,7.12 0.45,18.25 5.34,30.49 4.9,12.24 14.25,25.59 20.92,42.06 6.68,16.47 10.68,36.05 12.68,57.2 2,21.15 2,43.85 -0.22,63.21 -2.23,19.36 -6.68,35.38 -7.35,52.3 -0.67,16.91 2.45,34.72 6.68,59.65 4.23,24.93 9.57,56.97 11.35,84.57 1.78,27.59 0,50.74 -6.68,76.34 -6.68,25.6 -18.25,53.63 -22.04,74.78 -3.78,21.15 0.22,35.39 13.58,70.55 13.35,35.17 36.05,91.25 60.98,154.01 24.93,62.76 52.08,132.2 76.12,196.96 24.03,64.77 44.96,124.86 69.44,171.59 24.48,46.74 52.52,80.12 83.24,99.93 30.71,19.81 64.1,26.04 95.7,29.82 31.6,3.79 61.42,5.12 84.35,12.69 22.92,7.57 38.95,21.37 57.86,35.83 18.92,14.47 40.73,29.6 54.75,36.94 14.02,7.35 20.25,6.9 22.25,3.12 2,-3.79 -0.22,-10.91 -10.24,-23.6 -10.01,-12.68 -27.82,-30.93 -40.73,-44.73 -12.91,-13.8 -20.92,-23.14 -30.49,-31.16 -9.57,-8.01 -20.7,-14.69 -46.52,-20.92 -25.82,-6.23 -66.32,-12.02 -95.48,-18.92 -29.16,-6.89 -46.96,-14.91 -60.98,-26.71 -14.02,-11.79 -24.26,-27.38 -33.16,-47.63 -8.91,-20.25 -16.47,-45.18 -18.7,-60.53 -2.23,-15.35 0.89,-21.14 7.12,-28.04 6.23,-6.9 15.57,-14.91 46.07,-39.39 30.49,-24.48 82.12,-65.43 135.32,-113.95 53.19,-48.51 107.93,-104.6 163.8,-172.7 55.86,-68.11 112.83,-148.22 172.04,-245.48 59.2,-97.25 120.63,-211.65 153.56,-277.53 32.94,-65.87 37.39,-83.23 39.17,-91.47 1.78,-8.24 0.89,-7.35 -3.11,-1.56 -4.01,5.79 -11.13,16.47 -62.76,85.02 -51.64,68.55 -147.78,194.96 -235.24,297.33 -87.47,102.38 -166.26,180.72 -227.24,238.58 -60.98,57.87 -104.15,95.26 -138.43,125.75 -34.28,30.49 -59.65,54.08 -75,65.21 -15.36,11.13 -20.7,9.79 -24.04,2.67 -3.34,-7.12 -4.67,-20.03 -14.69,-46.06 -10.01,-26.04 -28.71,-65.21 -52.52,-117.07 -23.81,-51.86 -52.75,-116.4 -66.32,-153.79 -13.58,-37.39 -11.8,-47.63 -2.67,-75.89 9.13,-28.26 25.6,-74.55 28.49,-124.86 2.9,-50.3 -7.79,-104.6 -10.01,-135.98 -2.23,-31.38 4,-39.83 33.61,-79.9 29.6,-40.06 82.57,-111.73 123.3,-173.6 40.72,-61.87 69.21,-113.95 108.83,-174.48 39.61,-60.53 90.35,-129.53 152.67,-196.75 62.32,-67.21 136.21,-132.64 214.1,-179.16 77.89,-46.51 159.8,-74.11 237.92,-85.24 78.11,-11.13 152.45,-5.79 207.42,0.45 54.97,6.23 90.58,13.35 108.39,16.91 17.8,3.56 17.8,3.56 17.8,2.23 0,-1.34 0,-4.01 -14.24,-12.46 -14.25,-8.45 -42.73,-22.7 -66.55,-34.5 -23.81,-11.79 -42.95,-21.14 -50.97,-29.15 -8.01,-8.01 -4.9,-14.69 2.23,-22.93 7.12,-8.24 18.25,-18.03 36.28,-37.61 18.03,-19.59 42.95,-48.97 57.42,-78.12 14.47,-29.15 18.47,-58.09 19.14,-80.57 0.67,-22.48 -2.01,-38.5 -4.45,-46.52 -2.45,-8.01 -4.67,-8.01 -8.01,1.78 -3.34,9.79 -7.79,29.38 -21.37,60.53 -13.58,31.16 -36.28,73.89 -64.54,104.15 -28.27,30.27 -62.09,48.08 -95.25,56.54 -33.16,8.45 -65.66,7.57 -117.96,2.89 -52.3,-4.67 -124.41,-13.13 -194.74,-0.22 -70.33,12.91 -138.88,47.18 -180.94,73 -42.06,25.82 -57.64,43.18 -65.43,51.86 -7.79,8.68 -7.79,8.68 -7.57,5.56 0.22,-3.11 0.67,-9.34 4.45,-33.38 3.79,-24.04 10.91,-65.87 10.01,-98.59 -0.89,-32.72 -9.79,-56.31 -10.43,-70.16 -0.64,-13.85 6.97,-17.96 10.6,-26.27 3.62,-8.31 3.25,-20.82 -3.92,-26.15 -7.18,-5.33 -21.16,-3.49 -30.36,-4.78 -9.2,-1.29 -13.61,-5.7 -23.73,-19.32 -10.12,-13.62 -25.94,-36.42 -39.55,-52.43 -13.62,-16.01 -25.02,-25.2 -28.52,-30.73 -3.49,-5.51 0.92,-7.36 8.1,-11.59 7.17,-4.23 17.11,-10.85 22.81,-18.02 5.7,-7.18 7.17,-14.9 6.99,-19.87 -0.18,-4.97 -2.02,-7.17 -4.79,-5.88 -2.76,1.29 -6.44,6.07 -12.69,11.22 -6.26,5.15 -15.09,10.67 -23.92,13.98 -8.83,3.31 -17.66,4.42 -26.49,2.39 -8.83,-2.02 -17.66,-7.17 -27.96,-13.98 -10.31,-6.8 -22.08,-15.27 -33.85,-23.73 -11.77,-8.46 -23.55,-16.93 -31.64,-27.78 -8.1,-10.85 -12.51,-24.09 -18.95,-37.89 -6.44,-13.79 -14.9,-28.15 -23.55,-41.39 -8.65,-13.25 -17.48,-25.39 -20.42,-34.41 -2.95,-9.01 0,-14.9 13.25,-31.09 13.24,-16.19 36.79,-42.68 60.34,-80.76 23.55,-38.08 47.09,-87.75 58.87,-125.09 11.77,-37.35 11.77,-62.36 8.1,-84.07 -3.68,-21.71 -11.04,-40.11 -23.37,-54.83 -12.32,-14.72 -29.62,-25.75 -45.81,-35.69 -16.19,-9.94 -31.27,-18.77 -40.84,-25.57 -9.57,-6.8 -13.62,-11.59 -16.93,-24.47 -3.31,-12.87 -5.88,-33.85 -7.91,-50.03 -2.02,-16.19 -3.49,-27.59 9.01,-41.03 12.51,-13.43 39,-28.88 82.78,-57.03 43.78,-28.15 104.85,-68.98 158.57,-108.17 53.72,-39.19 100.07,-76.71 127.12,-100.81 27.04,-24.1 34.77,-34.77 39.19,-41.03 4.41,-6.25 5.51,-8.09 5.53,-8.17 0.02,-0.08 -1.05,1.59 0.97,14.84 2.02,13.25 7.14,38.06 18.53,83.58 11.39,45.52 29.05,111.75 57.2,178.71 28.14,66.96 66.78,134.66 85.73,169.06 18.95,34.41 18.21,35.51 12.32,36.42 -5.89,0.92 -16.93,1.66 -47.65,2.58 -30.72,0.92 -81.13,2.02 -115.71,6.62 -34.58,4.6 -53.35,12.69 -60.89,18.4 -7.54,5.7 -3.87,9.02 16.74,10.85 20.61,1.84 58.13,2.21 98.79,4.97 40.65,2.76 84.44,7.91 110.93,12.32 26.49,4.42 35.69,8.1 43.97,15.09 8.28,6.99 15.64,17.29 37.35,46.54 21.71,29.25 57.76,77.45 108.72,134.11 50.96,56.67 116.82,121.79 175.5,183.96 58.68,62.18 110.19,121.42 150.67,169.79 40.47,48.38 69.9,85.91 86.28,118.11 16.37,32.2 19.68,59.05 24.65,109.09 4.97,50.04 11.59,123.26 36.95,216.35 25.35,93.08 69.44,206.05 99.74,326.33 30.3,120.29 46.79,247.9 55.14,398.77 8.35,150.87 8.54,325 -83.38,560.83 -91.93,235.83 -275.97,533.35 -385.15,701.94 -109.19,168.59 -143.51,208.25 -160.92,229.74 -17.4,21.49 -17.88,24.83 -17.64,27.32 0.23,2.5 1.19,4.16 2.7,4.38 1.51,0.22 3.58,-1.02 75.56,-74.92zm-948.32 -3629.28c9.48,-33.7 25.1,-94.64 62.26,-157.09 37.16,-62.44 95.88,-126.36 159.06,-173.93 63.19,-47.57 130.82,-78.79 197.35,-99.98 66.52,-21.18 131.93,-32.33 178.39,-30.84 46.46,1.49 73.95,15.61 100.35,23.41 26.39,7.81 51.66,9.29 82.14,7.06 30.47,-2.23 66.15,-8.17 108.9,-9.66 42.74,-1.49 92.54,1.49 150.52,26.39 57.98,24.9 124.13,71.73 178.39,123.76 54.26,52.04 96.63,109.27 134.53,172.45 37.91,63.18 71.36,132.31 94.4,204.78 23.04,72.47 35.68,148.29 44.97,206.64 9.29,58.35 15.24,99.23 34.94,146.8 19.7,47.57 53.15,101.83 107.78,170.59 54.64,68.75 130.45,152 191.03,224.11 60.58,72.1 105.92,133.05 138.26,197.72 32.33,64.67 51.66,133.05 59.84,195.86 8.17,62.81 5.21,120.05 0.37,167.61 -4.83,47.57 -11.52,85.48 -14.86,104.43 -3.34,18.96 -3.34,18.96 0,16.72 3.34,-2.23 10.03,-6.69 27.5,-50.91 17.47,-44.23 45.72,-128.22 53.52,-218.54 7.8,-90.31 -4.84,-186.94 -42.37,-289.52 -37.54,-102.58 -99.98,-211.1 -160.93,-305.87 -60.95,-94.77 -120.42,-175.79 -154.98,-230.42 -34.57,-54.64 -44.23,-82.88 -46.09,-144.58 -1.86,-61.69 4.09,-156.83 -6.32,-244.55 -10.41,-87.71 -37.17,-167.99 -85.11,-249.75 -47.94,-81.76 -117.07,-165.01 -194.37,-230.05 -77.31,-65.04 -162.79,-111.87 -232.29,-136.77 -69.5,-24.9 -123.02,-27.87 -173.19,-23.04 -50.17,4.83 -97,17.47 -128.96,27.5 -31.96,10.04 -49.06,17.47 -64.29,17.84 -15.24,0.37 -28.62,-6.31 -46.09,-14.12 -17.47,-7.81 -39.02,-16.73 -70.99,-24.16 -31.96,-7.43 -74.33,-13.38 -136.02,-10.03 -61.7,3.34 -142.71,15.98 -217.42,52.77 -74.7,36.79 -143.09,97.74 -185.21,135.93 -42.12,38.19 -57.97,53.62 -76.39,83.75 -18.42,30.13 -39.4,74.96 -55.61,121.95 -16.22,46.99 -27.67,96.14 -32.45,138.26 -4.78,42.12 -2.87,77.2 -1.21,96.7 1.66,19.5 3.05,23.41 3.75,25.37 0.7,1.96 0.7,1.96 2.38,-1.26 1.68,-3.22 5.04,-9.65 14.52,-43.33zm442.55 593.96c12.57,12.8 34.42,33.49 70.02,48.52 35.6,15.04 84.94,24.44 127.59,25.73 42.64,1.29 78.59,-5.52 96.57,-8.93 17.97,-3.41 17.97,-3.41 15.15,-0.47 -2.82,2.94 -8.45,8.81 -28.55,23.14 -20.09,14.34 -54.63,37.13 -86.59,50.76 -31.96,13.63 -61.32,18.09 -89.64,14.57 -28.32,-3.52 -55.57,-15.04 -76.95,-36.07 -21.38,-21.03 -36.89,-51.58 -45.35,-74.49 -8.46,-22.91 -9.87,-38.18 -9.75,-48.05 0.12,-9.87 1.77,-14.33 3.41,-16.33 1.64,-2 3.29,-1.53 5.75,1.17 2.47,2.71 5.75,7.64 18.33,20.44zm-46.14 2878.38c-18.2,-4.57 -49.68,-10.87 -108.7,-27.39 -59.03,-16.53 -145.59,-43.28 -231.9,-92.6 -86.3,-49.32 -172.34,-121.19 -248.42,-204.09 -76.07,-82.89 -142.18,-176.8 -192.02,-287.5 -49.84,-110.7 -83.42,-238.19 -103.88,-333.15 -20.47,-94.96 -27.81,-157.4 -39.35,-198.06 -11.55,-40.66 -27.29,-59.55 -42.5,-86.57 -15.21,-27.01 -29.9,-62.17 -38.82,-100.73 -8.92,-38.56 -12.07,-80.53 -10.23,-122.76 1.83,-42.24 8.66,-84.74 13.91,-110.7 5.24,-25.97 8.91,-35.42 9.18,-40.4 0.26,-4.98 -2.88,-5.51 -14.43,6.82 -11.54,12.33 -31.48,37.51 -48.79,64.79 -17.32,27.29 -32.01,56.67 -39.09,91.29 -7.08,34.63 -6.56,74.5 -8.13,97.32 -1.58,22.82 -5.25,28.6 -25.97,81.06 -20.72,52.47 -58.5,151.63 -99.46,263.25 -40.96,111.62 -85.12,235.7 -115.86,340.76 -30.75,105.06 -48.1,191.1 -53.65,274.01 -5.55,82.92 0.69,162.71 21.16,225.5 20.47,62.8 55.16,108.59 94.71,136.69 39.55,28.1 83.96,38.51 136.35,41.28 52.38,2.77 112.75,-2.08 178.66,-24.63 65.92,-22.55 137.39,-62.79 190.12,-97.84 52.73,-35.04 86.73,-64.87 107.2,-79.09 20.47,-14.23 27.4,-12.84 38.16,-9.02 10.75,3.82 25.32,10.06 53.77,27.76 28.44,17.69 70.77,46.84 151.62,77.61 80.85,30.78 200.24,63.2 282.39,79.58 82.15,16.39 127.07,16.74 149.53,16.91 22.46,0.18 22.46,0.18 20.01,-1.25 -2.45,-1.42 -7.36,-4.27 -25.56,-8.83zm-1080 -1266.13c8.53,18.44 24.5,54.02 33.85,87.55 9.35,33.53 12.09,65.01 21.9,134.36 9.81,69.35 26.69,176.57 53.15,274.2 26.46,97.64 62.5,185.69 101.05,259.6 38.55,73.91 79.61,133.67 101.06,167.21 21.44,33.53 23.27,40.84 20.53,47.45 -2.74,6.61 -10.04,12.55 -33.76,26.69 -23.73,14.14 -63.87,36.5 -109.72,55.44 -45.85,18.93 -97.41,34.44 -143.72,40.61 -46.31,6.16 -87.37,2.96 -120.9,-10.5 -33.53,-13.46 -59.54,-37.18 -81.67,-76.42 -22.13,-39.24 -40.38,-93.98 -40.15,-177.7 0.23,-83.72 18.93,-196.41 42.89,-312.98 23.95,-116.56 53.15,-237.01 75.5,-321.19 22.36,-84.17 37.87,-132.08 48.28,-161.92 10.41,-29.84 15.71,-41.61 18.36,-47.5 2.65,-5.89 2.65,-5.89 3.19,-5.24 0.54,0.64 1.63,1.92 10.15,20.35zm1024.46 1070.08c8.5,1.36 21.66,3.85 38.45,10.78 16.78,6.92 37.19,18.26 53.07,28.24 15.87,9.98 27.22,18.6 41.05,26.2 13.83,7.6 30.17,14.17 43.89,17.8 13.72,3.63 24.84,4.31 31.75,5.56 6.92,1.25 9.64,3.06 9.75,5.44 0.11,2.38 -2.38,5.33 -8.84,8.5 -6.47,3.18 -16.9,6.58 -29.15,8.62 -12.25,2.04 -26.31,2.72 -40.49,2.27 -14.17,-0.45 -28.46,-2.05 -43.43,-6.58 -14.97,-4.53 -30.63,-12.02 -46.38,-24.16 -15.77,-12.13 -31.64,-28.92 -41.97,-40.94 -10.32,-12.02 -15.08,-19.28 -18.14,-25.74 -3.06,-6.46 -4.42,-12.14 -3.18,-14.86 1.25,-2.72 5.11,-2.49 13.61,-1.14zm-264.15 -2506.66c11.01,-16.56 31.91,-48.68 52.37,-81.39 20.47,-32.71 40.49,-65.99 53.44,-89.72 12.94,-23.73 18.8,-37.91 20.19,-45.3 1.39,-7.39 -1.69,-8.01 -5.85,-4.62 -4.16,3.39 -9.4,10.79 -16.33,15.1 -6.93,4.32 -15.56,5.55 -24.04,6.48 -8.47,0.92 -16.8,1.54 -25.73,5.08 -8.94,3.55 -18.49,10.01 -28.2,20.8 -9.71,10.79 -19.57,25.89 -28.51,43.92 -8.94,18.03 -16.95,38.98 -22.04,55.93 -5.08,16.95 -7.24,29.89 -5.51,43.81 1.73,13.92 7.34,28.81 10.82,37.04 3.47,8.24 4.81,9.81 6.04,10.11 1.23,0.3 2.35,-0.68 13.36,-17.24zm137.97 -266.17c0.09,-6.91 0.27,-18.89 -3.46,-33.25 -3.72,-14.35 -11.35,-31.07 -23.8,-44.97 -12.45,-13.9 -29.71,-24.98 -42.33,-30.43 -12.63,-5.45 -20.62,-5.27 -25.53,-2.91 -4.91,2.36 -6.73,6.9 -6.09,12.44 0.64,5.54 3.72,12.08 6.54,19.35 2.82,7.27 5.36,15.26 6.18,25.53 0.82,10.27 -0.09,22.8 -0.36,32.61 -0.27,9.81 0.09,16.9 3.18,21.89 3.09,5 8.9,7.91 19.71,9.45 10.81,1.54 26.62,1.73 36.61,1.82 9.99,0.09 14.17,0.09 17.62,0.09 3.45,0 6.18,0 7.99,-0.18 1.82,-0.18 2.73,-0.54 3.18,-1.64 0.45,-1.08 0.45,-2.9 0.55,-9.81zm-215.49 187.22c0.67,-9.11 -3.62,-26.8 -1.07,-46.63 2.54,-19.83 11.93,-41.8 18.09,-56.94 6.16,-15.14 9.11,-23.45 7.77,-29.74 -1.34,-6.3 -6.97,-10.59 -7.77,-15.95 -0.81,-5.36 3.22,-11.79 8.58,-15.41 5.36,-3.62 12.06,-4.42 15.94,-6.03 3.89,-1.6 4.96,-4.02 4.83,-21.17 -0.13,-17.15 -1.48,-49.04 -2.95,-70.21 -1.48,-21.17 -3.08,-31.63 -5.63,-44.76 -2.55,-13.13 -6.03,-28.94 -8.45,-36.98 -2.41,-8.04 -3.75,-8.3 -9.65,-1.07 -5.89,7.24 -16.34,21.98 -27.2,44.75 -10.85,22.78 -22.11,53.6 -28.54,94.06 -6.43,40.47 -8.04,90.57 -7.77,124.61 0.27,34.03 2.41,51.99 8.04,64.58 5.63,12.59 14.74,19.83 22.11,23.18 7.37,3.35 12.99,2.82 13.67,-6.3zm-652.75 915.25c-18.17,-6.68 -53.16,-19.7 -97.72,-47.99 -44.56,-28.28 -98.68,-71.82 -139.78,-124.31 -41.1,-52.49 -69.17,-113.93 -84.23,-179.65 -15.05,-65.72 -17.09,-135.71 -3.86,-202.24 13.22,-66.53 41.71,-129.6 84.64,-184.13 42.93,-54.53 100.3,-100.51 167.24,-135.3 66.94,-34.8 143.44,-58.39 217.5,-66.74 74.06,-8.34 145.68,-1.42 219.94,16.89 74.26,18.31 151.17,48.02 214.94,89.11 63.77,41.1 114.39,93.59 139.56,122.15 25.17,28.56 24.9,33.19 24.22,37.13 -0.68,3.95 -1.77,7.21 -8.71,11.84 -6.94,4.62 -19.73,10.61 -31.85,21.5 -12.11,10.89 -23.54,26.68 -26.12,45.19 -2.59,18.51 3.67,39.74 10.2,53.35 6.53,13.61 13.34,19.6 17.28,20.41 3.95,0.82 5.03,-3.54 6.53,-7.49 1.5,-3.95 3.41,-7.48 9.12,-10.48 5.71,-2.99 15.24,-5.45 23.41,-6.53 8.17,-1.09 14.97,-0.82 21.91,-6.8 6.94,-5.99 14.02,-18.24 17.69,-29.94 3.67,-11.7 3.95,-22.86 1.36,-32.39 -2.59,-9.52 -8.04,-17.42 -8.44,-21.91 -0.41,-4.49 4.22,-5.58 8.17,-5.04 3.94,0.55 7.21,2.72 21.77,14.43 14.56,11.7 40.42,32.93 68.59,62.34 28.17,29.4 58.66,66.95 81.52,106.29 22.86,39.34 38.11,80.44 45.73,119.63 7.62,39.2 7.62,76.49 0.69,106.92 -6.93,30.44 -20.8,54.01 -39.97,78.22 -19.17,24.21 -43.65,49.04 -61.83,72.62 -18.18,23.58 -30.06,45.9 -46.25,75.96 -16.2,30.05 -36.72,67.85 -47.7,90.89 -10.98,23.04 -12.42,31.32 -15.3,37.08 -2.88,5.76 -7.2,9 -20.7,16.38 -13.5,7.38 -36.18,18.9 -60.3,27.18 -24.12,8.28 -49.68,13.31 -86.93,11.88 -37.26,-1.44 -86.22,-9.36 -130.49,-19.44 -44.27,-10.08 -83.87,-22.32 -111.59,-32.76 -27.72,-10.44 -43.56,-19.08 -52.91,-21.78 -9.36,-2.7 -12.25,0.54 -22.5,7.2 -10.26,6.66 -27.9,16.74 -51.3,25.02 -23.4,8.28 -52.56,14.76 -85.31,18.72 -32.76,3.96 -69.12,5.41 -98.99,1.63 -29.88,-3.78 -53.28,-12.78 -70.01,-24.66 -16.74,-11.88 -26.82,-26.64 -30.42,-40.14 -3.6,-13.5 -0.72,-25.74 4.5,-35.28 5.22,-9.54 12.78,-16.38 21.03,-23.17 8.25,-6.78 17.18,-13.52 21.86,-17.37 4.67,-3.85 5.08,-4.81 5.16,-5.5 0.07,-0.69 -0.21,-1.11 -1.02,-1.48 -0.81,-0.38 -2.15,-0.73 -20.31,-7.41zm395.71 -172.16c2.73,-9.65 7.83,-27.18 14.2,-43.43 6.37,-16.25 14.02,-31.23 19.6,-39.36 5.58,-8.13 9.08,-9.4 16.1,-7.49 7.01,1.91 17.52,7.02 28.84,10.52 11.31,3.51 23.42,5.42 33.47,0.8 10.04,-4.62 18,-15.77 19.76,-29.32 1.75,-13.54 -2.71,-29.48 -3.82,-40.47 -1.12,-11 1.11,-17.05 4.46,-22.32 3.34,-5.26 7.81,-9.72 9.4,-12.74 1.59,-3.03 0.32,-4.62 -4.94,-6.22 -5.26,-1.59 -14.5,-3.19 -22.63,-5.1 -8.13,-1.91 -15.14,-4.14 -27.89,-0.32 -12.75,3.82 -31.23,13.71 -49.4,31.72 -18.17,18 -36.02,44.14 -44.46,72.18 -8.44,28.05 -7.49,58.01 -5.49,75.98 2,17.98 5.05,23.97 6.78,26.76 1.73,2.8 2.15,2.38 2.53,1.29 0.39,-1.08 0.75,-2.84 3.48,-12.48zm393.28 64.87c11.04,-11.03 30.88,-29.05 47.89,-51.23 17.01,-22.18 31.18,-48.5 41.41,-71.58 10.23,-23.09 16.51,-42.93 20.25,-53.56 3.75,-10.63 4.96,-12.05 6.48,-12.26 1.52,-0.2 3.34,0.82 6.58,6.38 3.24,5.57 7.9,15.7 10.93,31.39 3.04,15.7 4.46,36.95 0.2,61.87 -4.25,24.91 -14.17,53.46 -26.32,73 -12.15,19.54 -26.53,30.08 -46.48,36.75 -19.95,6.69 -45.46,9.52 -59.13,8.61 -13.67,-0.91 -15.49,-5.57 -15.29,-9.93 0.2,-4.36 2.43,-8.4 13.46,-19.44z"/>
 </g>
</svg>
