<?xml version="1.0" encoding="UTF-8"?>
<!DOCTYPE svg PUBLIC "-//W3C//DTD SVG 1.1//EN" "http://www.w3.org/Graphics/SVG/1.1/DTD/svg11.dtd">
<!-- Creator: CorelDRAW 2020 (64-Bit) -->
<svg xmlns="http://www.w3.org/2000/svg" xml:space="preserve" width="79.5987mm" height="21.2736mm" version="1.1" style="shape-rendering:geometricPrecision; text-rendering:geometricPrecision; image-rendering:optimizeQuality; fill-rule:evenodd; clip-rule:evenodd"
viewBox="0 0 4757.07 1271.38"
 xmlns:xlink="http://www.w3.org/1999/xlink"
 xmlns:xodm="http://www.corel.com/coreldraw/odm/2003">
 <defs>
  <style type="text/css">
   <![CDATA[
    .fil0 {fill:#2B2A29;fill-rule:nonzero}
   ]]>
  </style>
 </defs>
 <g id="Слой_x0020_1">
  <metadata id="CorelCorpID_0Corel-Layer"/>
  <path class="fil0" d="M383.81 1154.33c-38.77,0 -73.41,-2.43 -103.95,-7.27 -30.53,-4.85 -64.21,-16.72 -101.04,-35.62 -36.83,-18.9 -67.36,-44.58 -91.59,-77.05 -24.23,-32.47 -44.83,-78.75 -61.79,-138.84 -16.96,-60.09 -25.44,-130.84 -25.44,-212.25 0,-220.98 34.17,-390.1 102.49,-507.38 68.33,-117.28 165.97,-175.91 292.94,-175.91 55.25,0 99.59,10.18 133.03,30.53 33.44,20.36 50.15,46.04 50.15,77.05 0,38.77 -19.38,60.58 -58.15,65.42 -28.11,2.91 -47.49,-1.45 -58.16,-13.08 -2.9,-2.91 -3.87,-5.81 -2.9,-8.73 8.72,-17.44 8.48,-38.77 -0.73,-63.96 -9.2,-25.2 -24.96,-37.8 -47.25,-37.8 -43.62,0 -80.2,39.01 -109.76,117.03 -29.56,78.02 -49.67,161.13 -60.33,249.33 -10.66,88.2 -15.99,172.52 -15.99,252.96 0,114.37 18.9,212.74 56.7,295.13 37.8,82.38 88.68,123.57 152.65,123.57 42.65,0 76.57,-18.42 101.77,-55.25 3.87,-2.91 8.96,-3.15 15.26,-0.73 6.3,2.43 12.36,8.24 18.17,17.44 5.81,9.21 8.24,18.66 7.27,28.35 -2.9,20.36 -23.99,38.28 -63.24,53.79 -39.25,15.5 -82.62,23.26 -130.12,23.26zm1013.31 -495.75c1.94,-11.64 8.72,-12.12 20.36,-1.46 8.72,8.73 12.11,17.93 10.17,27.62 -44.58,179.31 -89.65,316.45 -135.2,411.43 -8.73,17.45 -30.53,29.56 -65.42,36.35 -34.89,6.78 -68.57,5.81 -101.04,-2.91 -32.47,-8.72 -49.19,-23.26 -50.16,-43.61 -0.97,-14.54 -1.45,-44.1 -1.45,-88.68 0,-44.58 -0.25,-89.66 -0.73,-135.21 -0.48,-45.55 -1.94,-91.35 -4.36,-137.38 -2.42,-46.04 -7.02,-83.35 -13.81,-111.94 -6.78,-28.59 -15.5,-42.4 -26.16,-41.43 -19.39,1.94 -40.95,35.13 -64.7,99.58 -23.74,64.45 -42.16,145.87 -55.24,244.24 -13.09,98.38 -14.3,187.3 -3.64,266.78 3.88,22.29 -14.05,38.77 -53.79,49.43 -51.37,12.6 -101.77,10.66 -151.2,-5.81 -31.01,-9.69 -47.49,-23.75 -49.42,-42.16 -6.79,-98.86 -8.73,-220.25 -5.82,-364.18 2.91,-143.93 2.43,-286.89 -1.45,-428.87 -3.87,-141.99 -14.05,-221.23 -30.53,-237.7 -2.91,-2.9 -2.67,-7.27 0.72,-13.08 3.39,-5.81 11.63,-11.63 24.72,-17.44 13.08,-5.81 30.29,-8.73 51.61,-8.73 46.52,0 79.23,13.09 98.13,39.25 18.9,26.17 32.71,62.03 41.43,107.59 1.94,13.57 13.57,153.13 34.89,418.69 23.26,-47.49 50.88,-91.59 82.87,-132.3 31.99,-40.7 63.96,-61.54 95.95,-62.51 36.83,-1.94 68.57,7.75 95.23,29.07 26.65,21.32 47.73,53.55 63.24,96.68 15.51,43.13 27.38,91.83 35.62,146.11 8.24,54.28 13.81,118.73 16.72,193.36 1.94,38.77 5.33,59.12 10.18,61.06 3.88,1.94 8.73,-2.43 14.54,-13.08 2.9,-4.85 6.3,-11.15 10.18,-18.9 36.83,-75.59 72.69,-182.21 107.58,-319.83zm98.85 -308.21c-15.5,0 -28.59,-12.36 -39.25,-37.07 -10.66,-24.72 -14.53,-47.25 -11.63,-67.6 4.85,-29.07 29.56,-43.62 74.15,-43.62 15.5,0 30.28,6.54 44.34,19.63 14.06,13.09 21.08,26.9 21.08,41.43 0,14.54 -10.66,32.71 -31.98,54.52 -21.32,21.81 -40.23,32.71 -56.7,32.71zm-58.15 760.34c0,-210.32 2.42,-357.63 7.27,-441.96 2.91,-47.49 -2.42,-44.1 -15.99,10.18 -0.97,3.88 -1.45,5.81 -1.45,5.81 -1.94,6.78 -8.48,6.54 -19.63,-0.72 -11.15,-7.27 -15.26,-15.75 -12.36,-25.44 4.85,-16.48 10.91,-38.28 18.17,-65.42 7.27,-27.14 13.33,-49.68 18.17,-67.6 4.85,-17.93 8.24,-28.84 10.18,-32.71 8.72,-15.51 32.95,-25.2 72.69,-29.08 7.75,-1.94 16.48,-2.18 26.16,-0.72 9.69,1.45 18.66,4.12 26.9,8 8.24,3.87 15.99,12.35 23.26,25.44 7.27,13.08 12.84,30.77 16.72,53.06 2.9,17.44 10.17,59.36 21.8,125.75 11.64,66.39 22.78,129.39 33.44,189 10.66,59.61 18.42,106.37 23.27,140.29 7.75,28.11 13.08,42.4 15.99,42.89 2.9,0.48 8.24,-12.84 15.99,-39.98 3.88,-12.6 19.63,-69.54 47.25,-170.82 27.62,-101.28 43.38,-160.64 47.25,-178.09 1.94,-11.64 9.21,-11.64 21.81,0 8.73,8.72 12.12,17.44 10.18,26.16 -63.96,243.27 -106.61,385.26 -127.94,425.97 -14.53,27.14 -44.58,47 -90.13,59.61 -45.55,12.6 -88.44,13.57 -128.66,2.9 -40.22,-10.66 -60.33,-31.5 -60.33,-62.51zm754.53 -452.13c1.94,-10.66 8.48,-11.64 19.63,-2.91 11.15,8.73 15.26,18.41 12.35,29.07 -59.12,234.55 -101.28,376.54 -126.48,425.97 -9.69,14.54 -60.58,21.81 -152.65,21.81 -85.29,0 -130.36,-24.23 -135.2,-72.69 0,-55.25 1.94,-144.66 5.81,-268.23 3.87,-123.57 5.81,-210.56 5.81,-260.96 -80.45,-6.78 -131.81,-17.44 -154.11,-31.98 -7.75,-7.76 -9.93,-18.17 -6.54,-31.26 3.39,-13.09 9.94,-25.45 19.63,-37.08 9.69,-11.63 17.45,-15.99 23.27,-13.08 32.95,16.48 71.72,30.04 116.31,40.7 0,-119.21 -8.73,-187.05 -26.17,-203.53 -8.73,-7.76 -2.43,-15.51 18.9,-23.27 13.57,-4.84 29.08,-7.27 46.53,-7.27 15.5,0 29.56,1.21 42.16,3.63 12.6,2.43 23.02,4.85 31.26,7.27 8.24,2.42 15.75,7.27 22.54,14.53 6.78,7.27 12.11,12.84 15.99,16.72 3.88,3.87 7.51,11.15 10.9,21.81 3.39,10.66 5.58,17.93 6.54,21.81 0.97,3.87 2.42,12.6 4.36,26.16 1.94,13.57 3.39,22.29 4.36,26.17l11.63 113.4c53.3,-4.85 92.56,-11.64 117.76,-20.36 11.63,-3.88 17.44,-0.48 17.44,10.18 -0.97,15.5 -9.21,26.65 -24.71,33.44 -20.36,7.75 -55.74,15.5 -106.13,23.26 4.85,48.46 10.91,110.25 18.17,185.36 7.27,75.11 13.33,140.29 18.17,195.54 4.85,55.24 8.24,90.13 10.18,104.67 1.94,19.39 4.85,32.23 8.72,38.53 3.88,6.3 8,6.05 12.36,-0.73 4.36,-6.78 9.45,-19.38 15.26,-37.8 47.49,-157.98 79.48,-274.28 95.96,-348.91zm479.75 0c2.9,-11.64 10.18,-11.64 21.81,0 7.75,9.69 11.15,18.41 10.17,26.16 -21.32,82.38 -68.81,135.69 -142.47,159.92 -1.94,31.99 -6.06,63.24 -12.36,93.77 -6.3,30.53 -15.51,60.82 -27.62,90.86 -12.11,30.05 -28.84,54.04 -50.15,71.97 -21.32,17.93 -45.56,26.89 -72.7,26.89 -53.3,0 -98.37,-18.41 -135.2,-55.25 -36.83,-36.83 -62.03,-78.5 -75.6,-125.02 -13.57,-46.53 -19.38,-94.01 -17.44,-142.48 0.97,-48.46 10.18,-92.08 27.62,-130.85 -8.72,-23.26 -13.08,-47 -13.08,-71.23 0,-54.28 13.81,-93.29 41.43,-117.03 27.62,-23.74 55.97,-35.62 85.05,-35.62 39.74,0 75.11,9.45 106.13,28.35 31.01,18.9 55,41.67 71.96,68.33 16.96,26.65 31.02,57.67 42.16,93.05 11.15,35.37 18.66,65.66 22.53,90.86 3.88,25.2 6.31,49.43 7.27,72.69 57.18,-25.2 94.01,-73.66 110.49,-145.38zm-434.69 -52.34l0 2.91c20.36,-22.29 42.16,-33.44 65.42,-33.44 18.41,0 33.92,6.54 46.53,19.63 12.6,13.08 15.5,28.35 8.72,45.79 -13.57,39.74 -17.44,90.62 -11.63,152.65 33.92,18.41 72.69,27.62 116.31,27.62 22.29,0 41.19,-1.94 56.7,-5.81 0,-16.48 -2.18,-37.8 -6.54,-63.97 -4.36,-26.16 -12.6,-58.63 -24.72,-97.4 -12.11,-38.77 -32.71,-71.24 -61.79,-97.41 -29.07,-26.17 -63.96,-39.25 -104.67,-39.25 -21.32,0 -40.71,8.73 -58.16,26.17 -17.44,17.44 -26.17,38.28 -26.17,62.51zm213.71 375.09c39.74,0 62.03,-42.16 66.87,-126.48 -17.44,2.9 -36.83,4.36 -58.16,4.36 -34.89,0 -70.26,-7.27 -106.13,-21.81 7.76,41.67 20.11,76.08 37.08,103.22 16.96,27.14 37.07,40.71 60.33,40.71zm667.3 -322.75c1.94,-7.76 8.72,-6.31 20.35,4.36 7.76,8.73 11.63,15.99 11.63,21.81 -17.44,86.26 -77.05,166.7 -178.82,241.34 14.54,53.3 21.81,98.37 21.81,135.2 0,36.83 -7.27,69.06 -21.81,96.68 -14.53,27.62 -33.19,48.22 -55.97,61.79 -22.78,13.57 -45.31,23.5 -67.6,29.8 -22.29,6.3 -44.1,9.45 -65.42,9.45 -40.7,0 -71.24,-9.45 -91.59,-28.35 -20.36,-18.9 -30.53,-41.92 -30.53,-69.06 0,-35.86 11.63,-66.39 34.89,-91.59 23.27,-25.2 58.64,-52.82 106.13,-82.87 -9.69,-38.77 -35.13,-103.95 -76.33,-195.54 -41.19,-91.59 -61.78,-165.01 -61.78,-220.25 0,-58.16 17.68,-103.71 53.06,-136.66 35.37,-32.95 78.74,-44.58 130.12,-34.89 27.14,5.81 41.67,25.44 43.62,58.88 1.94,33.44 -14.06,63.73 -47.98,90.86 11.63,38.77 31.5,96.19 59.61,172.27 28.11,76.08 47.49,131.09 58.15,165.01 86.26,-63.97 139.08,-140.06 158.47,-228.25zm-296.58 484.12c0,-32.95 -3.39,-69.79 -10.18,-110.49 -68.81,48.46 -103.22,91.59 -103.22,129.39 0,18.41 5.09,32.71 15.26,42.89 10.18,10.18 23.5,15.27 39.98,15.27 15.51,0 29.07,-8 40.7,-23.99 11.63,-15.99 17.44,-33.68 17.44,-53.06zm1133.97 -484.12c2.91,-12.6 10.18,-13.09 21.81,-1.46 9.69,8.73 13.08,17.93 10.18,27.62 0,0.97 -4.36,20.36 -13.08,58.16 -8.73,37.8 -18.66,79.23 -29.8,124.3 -11.15,45.07 -23.5,93.04 -37.07,143.93 -13.57,50.88 -27.87,96.92 -42.89,138.11 -15.02,41.19 -28.35,70.03 -39.98,86.51 -15.51,20.35 -44.83,31.98 -87.96,34.89 -43.13,2.9 -83.84,-2.67 -122.12,-16.72 -38.28,-14.05 -57.91,-32.22 -58.88,-54.52 -4.85,-79.47 -3.88,-218.07 2.91,-415.79 -24.23,76.57 -61.54,140.05 -111.95,190.45 -50.4,50.4 -103.22,75.6 -158.46,75.6 -34.89,0 -66.87,-6.3 -95.95,-18.9 -29.08,-12.6 -55.01,-37.8 -77.78,-75.6 -22.78,-37.8 -34.17,-86.75 -34.17,-146.83 0,-104.68 33.44,-191.91 100.32,-261.69 66.87,-69.78 146.35,-104.68 238.42,-104.68 34.9,0 59.61,18.42 74.15,55.25 7.75,22.29 7.75,34.41 0,36.35 -48.46,0 -94.01,26.65 -136.66,79.96 -42.64,53.31 -63.96,111.95 -63.96,175.91 0,42.65 7.27,74.87 21.81,96.68 14.53,21.81 30.53,32.71 47.97,32.71 39.74,0 78.5,-26.65 116.31,-79.96 37.8,-53.31 66.87,-131.33 87.23,-234.06 3.88,-114.37 5.81,-172.52 5.81,-174.46 0,-15.5 11.15,-24.96 33.44,-28.35 22.29,-3.39 45.31,-0.97 69.06,7.27 23.74,8.24 37.07,19.63 39.98,34.17 35.86,196.75 71.72,381.38 107.58,553.9 2.91,13.57 5.33,22.53 7.27,26.89 1.94,4.36 4.85,5.09 8.73,2.18 3.88,-2.91 9.21,-11.63 15.99,-26.17 23.26,-49.43 57.18,-163.31 101.76,-341.64zm769.07 0c4.85,-15.51 13.08,-14.54 24.71,2.9 5.81,10.66 8.24,18.41 7.27,23.26 -41.68,163.8 -79.96,287.37 -114.85,370.72 -12.6,30.04 -30.04,49.91 -52.34,59.61 -22.29,9.69 -60.09,13.57 -113.39,11.63 -13.57,-0.97 -25.44,-2.43 -35.62,-4.36 -10.18,-1.94 -18.66,-3.88 -25.44,-5.81 -6.78,-1.94 -12.84,-6.06 -18.17,-12.36 -5.33,-6.3 -9.45,-10.66 -12.35,-13.08 -2.91,-2.42 -5.58,-8 -8,-16.72 -2.43,-8.72 -3.88,-14.05 -4.36,-15.99 -0.48,-1.94 -1.21,-8.24 -2.18,-18.9 -0.97,-10.66 -1.45,-16.96 -1.45,-18.9 -0.97,-5.81 -2.18,-24.96 -3.63,-57.43 -1.46,-32.47 -3.39,-65.18 -5.82,-98.13 -2.42,-32.95 -6.05,-67.12 -10.9,-102.49 -4.85,-35.38 -12.11,-64.21 -21.81,-86.5 -9.69,-22.29 -21.32,-33.44 -34.89,-33.44 -23.26,0 -41.43,48.94 -54.52,146.83 -13.08,97.89 -15.75,204.99 -7.99,321.29 2.9,20.36 -15.02,35.86 -53.79,46.52 -38.77,10.66 -78.02,11.63 -117.76,2.91 -39.74,-8.73 -59.61,-25.2 -59.61,-49.43 0,-216.13 2.42,-363.45 7.27,-441.96 0.97,-14.53 0,-21.81 -2.9,-21.81 -2.91,-0.97 -7.76,11.64 -14.54,37.8 -1.94,7.76 -8.73,6.78 -20.36,-2.9 -9.69,-6.79 -13.57,-14.54 -11.63,-23.26 5.81,-26.17 15.51,-83.36 29.08,-171.55 2.9,-20.36 28.11,-32.95 75.59,-37.8 59.12,-4.85 94.98,28.59 107.59,100.31 2.9,17.44 9.2,73.17 18.9,167.19 7.75,-49.43 23.74,-92.08 47.98,-127.94 24.23,-35.86 59.12,-53.79 104.67,-53.79 126.97,0 208.87,141.02 245.7,423.06 3.87,34.9 7.75,52.82 11.63,53.79 2.9,0.97 7.27,-4.85 13.08,-17.44l10.18 -21.81c25.2,-59.12 60.09,-163.79 104.68,-314.02z"/>
 </g>
</svg>
