<?xml version="1.0" encoding="UTF-8"?>
<!DOCTYPE svg PUBLIC "-//W3C//DTD SVG 1.1//EN" "http://www.w3.org/Graphics/SVG/1.1/DTD/svg11.dtd">
<!-- Creator: CorelDRAW 2020 (64-Bit) -->
<svg xmlns="http://www.w3.org/2000/svg" xml:space="preserve" width="154.979mm" height="20.5474mm" version="1.1" style="shape-rendering:geometricPrecision; text-rendering:geometricPrecision; image-rendering:optimizeQuality; fill-rule:evenodd; clip-rule:evenodd"
viewBox="0 0 10081.54 1336.63"
 xmlns:xlink="http://www.w3.org/1999/xlink"
 xmlns:xodm="http://www.corel.com/coreldraw/odm/2003">
 <defs>
  <style type="text/css">
   <![CDATA[
    .fil0 {fill:black;fill-rule:nonzero}
   ]]>
  </style>
 </defs>
 <g id="Слой_x0020_1">
  <metadata id="CorelCorpID_0Corel-Layer"/>
  <path class="fil0" d="M540.66 559.97c55.78,14.3 110.85,29.32 165.2,45.05 54.35,15.73 102.98,36.83 145.89,63.29 42.91,26.46 77.59,61.15 104.06,104.06 26.46,42.91 39.69,98.69 39.69,167.34 0,71.52 -15.01,132.31 -45.05,182.37 -30.03,50.06 -70.8,91.18 -122.29,123.36 -51.49,32.18 -112.28,55.42 -182.36,69.73 -70.09,14.3 -145.18,21.45 -225.28,21.45 -31.47,0 -65.43,-1.07 -101.91,-3.22 -36.47,-2.15 -73.3,-5.36 -110.49,-9.65 -37.19,-4.29 -73.66,-9.3 -109.42,-15.02 -35.75,-5.72 -68.65,-12.16 -98.69,-19.31l0 -242.44c24.32,7.16 53.99,13.23 89.04,18.24 35.04,5 72.23,9.3 111.57,12.87 39.33,3.58 79.02,6.44 119.07,8.59 40.05,2.14 77.95,3.21 113.71,3.21 110.14,0 190.23,-10.01 240.29,-30.03 50.06,-20.02 75.09,-55.07 75.09,-105.13 0,-12.87 -2.86,-26.46 -8.58,-40.76 -5.72,-14.3 -19.31,-28.97 -40.77,-43.98 -21.45,-15.02 -53.28,-30.04 -95.48,-45.06 -42.19,-15.01 -99.05,-31.11 -170.56,-48.27 -34.33,-8.59 -75.8,-19.31 -124.44,-32.19 -48.63,-12.87 -95.12,-33.25 -139.46,-61.14 -44.34,-27.89 -82.24,-65.43 -113.71,-112.64 -31.47,-47.2 -47.2,-108.71 -47.2,-184.51 0,-67.22 13.59,-125.15 40.77,-173.78 27.17,-48.63 64.72,-88.68 112.64,-120.15 47.92,-31.47 104.77,-54.71 170.56,-69.73 65.79,-15.01 137.31,-22.53 214.54,-22.53 27.18,0 57.93,1.07 92.26,3.22 34.33,2.15 69.01,5.01 104.06,8.58 35.04,3.58 69.37,8.23 102.98,13.95 33.61,5.72 64.73,12.87 93.33,21.45l0 242.44c-20.02,-5.72 -46.13,-11.08 -78.31,-16.09 -32.18,-5.01 -66.87,-9.66 -104.06,-13.95 -37.19,-4.29 -75.45,-7.51 -114.78,-9.65 -39.33,-2.15 -76.16,-3.22 -110.49,-3.22 -107.28,0 -180.22,11.44 -218.84,34.33 -38.62,22.88 -57.93,55.78 -57.93,98.69 0,24.32 5,44.7 15.02,61.15 10.01,16.45 26.1,31.11 48.27,43.98 22.17,12.87 51.49,25.03 87.97,36.47 36.47,11.44 81.17,24.32 134.09,38.62zm933.28 763.78l-257.46 0 0 -1313.03 579.28 0c62.93,0 121.93,11.44 177,34.33 55.07,22.88 102.98,54 143.74,93.33 40.76,39.34 72.95,85.11 96.55,137.31 23.6,52.21 35.4,107.63 35.4,166.28 0,58.64 -11.8,114.07 -35.4,166.27 -23.6,52.21 -55.79,97.98 -96.55,137.31 -40.76,39.34 -88.68,70.44 -143.74,93.33 -55.07,22.88 -114.07,34.33 -177,34.33l-321.82 0 0 450.55zm321.82 -690.84c55.78,0 102.27,-18.23 139.46,-54.71 37.19,-36.47 55.78,-81.89 55.78,-136.24 0,-54.35 -18.59,-99.76 -55.78,-136.24 -37.19,-36.47 -83.67,-54.71 -139.46,-54.71l-321.82 0 0 381.89 321.82 0zm1600.51 450.55l0 240.29 -944.01 0 0 -1313.03 944.01 0 0 240.3 -686.55 0 0 296.07 557.82 0 0 240.29 -557.82 0 0 296.07 686.55 0zm1321.61 240.29l-319.67 0 -525.64 -656.51 274.62 0c68.65,0 125.51,-15.73 170.56,-47.2 45.05,-31.47 67.58,-85.1 67.58,-160.91 0,-71.51 -19.66,-124.08 -59,-157.69 -39.33,-33.61 -84.75,-50.41 -136.24,-50.41l-321.82 0 0 1072.73 -257.46 0 0 -1313.03 579.28 0c62.93,0 121.93,11.44 177,34.33 55.07,22.88 102.98,54 143.74,93.33 40.76,39.34 72.95,85.11 96.55,137.31 23.6,52.21 35.4,107.63 35.4,166.28 0,47.2 -7.87,92.26 -23.6,135.16 -15.74,42.91 -37.19,81.89 -64.37,116.93 -27.17,35.04 -59.72,65.79 -97.62,92.26 -37.91,26.46 -78.31,48.27 -121.22,65.43l381.89 472zm1001.93 -296.07l-549.24 0 -111.56 296.07 -278.91 0 536.37 -1313.03 257.45 0 536.36 1313.03 -278.91 0 -111.57 -296.07zm-459.13 -240.29l369.02 0 -184.51 -491.31 -184.51 491.31zm1881.58 102.98l0 -879.64 257.45 0 0 1313.03 -257.45 0 -600.73 -879.64 0 879.64 -257.46 0 0 -1313.03 257.46 0 600.73 879.64zm465.57 197.38l699.42 -841.02 -656.51 0 0 -236 965.46 0 0 236 -699.42 841.02 742.33 0 0 236 -1051.27 0 0 -236zm2083.24 -60.07l-549.24 0 -111.56 296.07 -278.91 0 536.37 -1313.03 257.45 0 536.36 1313.03 -278.91 0 -111.57 -296.07zm-459.13 -240.29l369.02 0 -184.51 -491.31 -184.51 491.31z"/>
 </g>
</svg>
