<?xml version="1.0" encoding="UTF-8"?>
<!DOCTYPE svg PUBLIC "-//W3C//DTD SVG 1.1//EN" "http://www.w3.org/Graphics/SVG/1.1/DTD/svg11.dtd">
<!-- Creator: CorelDRAW 2020 (64-Bit) -->
<svg xmlns="http://www.w3.org/2000/svg" xml:space="preserve" width="61.7265mm" height="14.5057mm" version="1.1" style="shape-rendering:geometricPrecision; text-rendering:geometricPrecision; image-rendering:optimizeQuality; fill-rule:evenodd; clip-rule:evenodd"
viewBox="0 0 2859.06 671.88"
 xmlns:xlink="http://www.w3.org/1999/xlink"
 xmlns:xodm="http://www.corel.com/coreldraw/odm/2003">
 <defs>
  <style type="text/css">
   <![CDATA[
    .str0 {stroke:#E31E24;stroke-width:3.53;stroke-miterlimit:22.9256}
    .fil0 {fill:#2B2A29;fill-rule:nonzero}
    .fil1 {fill:#E31E24;fill-rule:nonzero}
   ]]>
  </style>
 </defs>
 <g id="Слой_x0020_1">
  <metadata id="CorelCorpID_0Corel-Layer"/>
  <g id="_2626028325456">
   <path class="fil0" d="M582.39 1.04l26.14 0 0 196.74 -26.14 0 0 -88.81 -83.47 0 0 88.81 -26.14 0 0 -196.74 26.14 0 0 83.19 83.47 0 0 -83.19zm184.37 179.03c-14.43,14.24 -31.95,21.36 -52.56,21.36 -20.61,0 -38.08,-7.12 -52.41,-21.36 -14.34,-14.24 -21.5,-31.76 -21.5,-52.56 0,-20.8 7.17,-38.31 21.5,-52.55 14.33,-14.24 31.8,-21.36 52.41,-21.36 20.61,0 38.13,7.12 52.56,21.36 14.43,14.24 21.64,31.76 21.64,52.55 0,20.8 -7.21,38.32 -21.64,52.56zm-52.56 -2.53c14.05,0 25.85,-4.78 35.41,-14.33 9.56,-9.56 14.33,-21.45 14.33,-35.7 0,-14.24 -4.78,-26.14 -14.33,-35.69 -9.56,-9.56 -21.36,-14.33 -35.41,-14.33 -13.86,0 -25.58,4.78 -35.13,14.33 -9.56,9.56 -14.33,21.45 -14.33,35.69 0,14.24 4.78,26.14 14.33,35.7 9.56,9.56 21.27,14.33 35.13,14.33zm123.1 -3.09l74.76 0 0 23.33 -108.2 0 0 -16.3 71.67 -100.9 -68.86 0 0 -23.33 102.58 0 0 16.3 -71.95 100.9zm101.18 -142.49l0 -30.92 24.45 0 0 30.92 -24.45 0zm0 165.82l0 -140.52 24.45 0 0 140.52 -24.45 0zm86.28 -119.45c8.81,-15.74 22.95,-23.61 42.44,-23.61l0 25.58c-11.8,-0.57 -21.83,2.58 -30.07,9.41 -8.24,6.84 -12.37,17.75 -12.37,32.74l0 75.32 -24.45 0 0 -140.52 24.45 0 0 21.08zm175.09 -77.29l24.45 0 0 196.74 -24.45 0 0 -23.89c-12.18,18.37 -29.88,27.55 -53.12,27.55 -19.49,0 -36.21,-7.17 -50.17,-21.5 -13.96,-14.34 -20.94,-31.81 -20.94,-52.42 0,-20.61 6.98,-38.08 20.94,-52.41 13.96,-14.34 30.68,-21.5 50.17,-21.5 23.23,0 40.94,9.18 53.12,27.55l0 -80.1zm-50.02 176.78c14.24,0 26.14,-4.83 35.69,-14.47 9.56,-9.65 14.33,-21.59 14.33,-35.84 0,-14.24 -4.78,-26.18 -14.33,-35.83 -9.56,-9.65 -21.45,-14.47 -35.69,-14.47 -14.05,0 -25.86,4.83 -35.41,14.47 -9.56,9.65 -14.33,21.59 -14.33,35.83 0,14.24 4.78,26.19 14.33,35.84 9.56,9.65 21.36,14.47 35.41,14.47zm164.13 -124.23c16.11,0 29.27,4.78 39.49,14.34 10.21,9.56 15.32,22.58 15.32,39.06l0 90.78 -24.17 0 0 -14.61c-9.18,12.18 -23.14,18.27 -41.88,18.27 -13.68,0 -25.29,-3.94 -34.85,-11.81 -9.56,-7.87 -14.33,-18.92 -14.33,-33.16 0,-14.24 4.78,-25.29 14.33,-33.16 9.56,-7.87 21.17,-11.8 34.85,-11.8 18.18,0 32.14,5.43 41.88,16.3l0 -19.95c0,-10.49 -2.85,-18.27 -8.57,-23.33 -5.72,-5.06 -13.07,-7.59 -22.06,-7.59 -8.62,0 -15.84,2.2 -21.64,6.6 -5.81,4.4 -8.71,10.63 -8.71,18.69l-24.17 0c0,-14.42 5.15,-26.14 15.46,-35.13 10.31,-8.99 23.33,-13.49 39.07,-13.49zm-4.22 127.04c10.31,0 18.69,-2.25 25.16,-6.75 6.47,-4.49 9.69,-10.3 9.69,-17.42 0,-7.49 -3.23,-13.44 -9.69,-17.85 -6.47,-4.4 -14.85,-6.6 -25.16,-6.6 -10.49,0 -18.41,2.25 -23.75,6.75 -5.34,4.49 -8.01,10.4 -8.01,17.7 0,7.31 2.67,13.16 8.01,17.57 5.34,4.4 13.26,6.6 23.75,6.6zm158.79 -127.04c13.49,0 24.73,4.78 33.72,14.34 8.99,9.56 13.49,22.39 13.49,38.5l0 91.34 -24.45 0 0 -90.22c0,-9.74 -2.67,-17.28 -8.01,-22.62 -5.34,-5.34 -12.41,-8.01 -21.22,-8.01 -9.74,0 -18.03,3.33 -24.87,9.98 -6.84,6.65 -10.25,16.91 -10.25,30.77l0 80.1 -24.45 0 0 -140.52 24.45 0 0 17.42c9.18,-14.05 23.04,-21.08 41.59,-21.08zm171.45 41.88c0,5.81 2.76,10.35 8.29,13.63 5.53,3.28 12.22,5.81 20.09,7.59 7.87,1.78 15.74,3.89 23.61,6.33 7.87,2.44 14.57,6.7 20.09,12.79 5.53,6.09 8.29,14 8.29,23.75 0,12.55 -5.01,22.67 -15.03,30.35 -10.02,7.68 -22.9,11.52 -38.64,11.52 -15.74,0 -28.57,-4.08 -38.5,-12.23 -9.93,-8.15 -14.9,-19.34 -14.9,-33.59l24.17 0c0,7.87 2.67,13.68 8.01,17.42 5.34,3.75 12.41,5.62 21.22,5.62 8.62,0 15.65,-1.59 21.08,-4.78 5.43,-3.18 8.15,-7.96 8.15,-14.33 0,-4.87 -1.96,-8.9 -5.9,-12.08 -3.93,-3.19 -8.9,-5.48 -14.9,-6.89 -5.99,-1.4 -12.46,-3.14 -19.39,-5.2 -6.93,-2.06 -13.4,-4.35 -19.39,-6.88 -6,-2.53 -10.96,-6.6 -14.9,-12.23 -3.94,-5.62 -5.9,-12.55 -5.9,-20.8 0,-12.37 4.87,-22.44 14.61,-30.21 9.74,-7.77 21.92,-11.66 36.54,-11.66 14.61,0 26.74,4.12 36.4,12.37 9.65,8.24 14.47,19.39 14.47,33.45l-24.17 0c0,-7.87 -2.58,-13.68 -7.73,-17.42 -5.16,-3.75 -11.48,-5.62 -18.97,-5.62 -7.49,0 -13.82,1.64 -18.97,4.92 -5.15,3.28 -7.73,8.01 -7.73,14.19zm111.02 -63.52l0 -30.92 24.45 0 0 30.92 -24.45 0zm0 165.82l0 -140.52 24.45 0 0 140.52 -24.45 0zm87.4 -23.33l74.76 0 0 23.33 -108.2 0 0 -16.3 71.67 -100.9 -68.86 0 0 -23.33 102.58 0 0 16.3 -71.95 100.9zm212.19 -117.2l24.17 0 0 134.62c0,20.8 -6.93,36.96 -20.8,48.48 -13.86,11.52 -30.63,17.28 -50.31,17.28 -17.99,0 -33.82,-5.1 -47.5,-15.32 -13.68,-10.21 -20.51,-23.09 -20.51,-38.64l24.45 0c0,7.68 3.98,14.8 11.95,21.36 7.96,6.56 18.5,9.83 31.62,9.83 14.99,0 26.56,-3.84 34.71,-11.52 8.15,-7.68 12.22,-18.18 12.22,-31.48l0 -19.68c-12.37,18.55 -30.17,27.82 -53.4,27.82 -19.67,0 -36.44,-7.12 -50.31,-21.36 -13.87,-14.24 -20.8,-31.57 -20.8,-52 0,-20.23 6.93,-37.47 20.8,-51.71 13.86,-14.24 30.63,-21.36 50.31,-21.36 23.23,0 41.03,9.28 53.4,27.82l0 -24.17zm-85.72 105.11c9.56,9.56 21.45,14.33 35.69,14.33 14.24,0 26.14,-4.78 35.7,-14.33 9.56,-9.56 14.33,-21.45 14.33,-35.7 0,-14.05 -4.78,-25.85 -14.33,-35.41 -9.56,-9.56 -21.45,-14.34 -35.7,-14.34 -14.24,0 -26.14,4.78 -35.69,14.34 -9.56,9.56 -14.33,21.36 -14.33,35.41 0,14.24 4.78,26.14 14.33,35.7zm199.27 -108.77c16.11,0 29.27,4.78 39.49,14.34 10.21,9.56 15.32,22.58 15.32,39.06l0 90.78 -24.17 0 0 -14.61c-9.18,12.18 -23.14,18.27 -41.88,18.27 -13.68,0 -25.29,-3.94 -34.85,-11.81 -9.56,-7.87 -14.33,-18.92 -14.33,-33.16 0,-14.24 4.78,-25.29 14.33,-33.16 9.56,-7.87 21.17,-11.8 34.85,-11.8 18.18,0 32.14,5.43 41.88,16.3l0 -19.95c0,-10.49 -2.85,-18.27 -8.57,-23.33 -5.72,-5.06 -13.07,-7.59 -22.06,-7.59 -8.62,0 -15.84,2.2 -21.64,6.6 -5.81,4.4 -8.71,10.63 -8.71,18.69l-24.17 0c0,-14.42 5.15,-26.14 15.46,-35.13 10.31,-8.99 23.33,-13.49 39.07,-13.49zm-4.22 127.04c10.31,0 18.69,-2.25 25.16,-6.75 6.47,-4.49 9.69,-10.3 9.69,-17.42 0,-7.49 -3.23,-13.44 -9.69,-17.85 -6.47,-4.4 -14.85,-6.6 -25.16,-6.6 -10.49,0 -18.41,2.25 -23.75,6.75 -5.34,4.49 -8.01,10.4 -8.01,17.7 0,7.31 2.67,13.16 8.01,17.57 5.34,4.4 13.26,6.6 23.75,6.6z"/>
   <path class="fil1" d="M915.28 261.76l0 54.29 -69.5 0 0 233.61 -56.76 0 0 -233.61 -69.1 0 0 -54.29 125.86 0 69.5 0zm39.49 206.88c3.29,13.98 9.94,24.61 19.95,31.88 10.01,7.26 21.87,10.9 35.58,10.9 9.32,0 17.82,-1.92 25.5,-5.76 7.68,-3.84 13.3,-8.78 16.86,-14.81l52.24 -0.41c-6.31,20.57 -17.89,36.54 -34.76,47.92 -16.86,11.38 -36.95,17.07 -60.26,17.07 -32.9,0 -59.5,-10.28 -79.79,-30.85 -20.29,-20.57 -30.44,-46.48 -30.44,-77.73 0,-30.99 10.15,-56.83 30.44,-77.53 20.29,-20.7 46.48,-31.05 78.56,-31.05 29.88,0 54.43,10.42 73.62,31.26 19.19,20.84 28.79,46.61 28.79,77.33 0,8.77 -0.69,16.04 -2.06,21.8l-154.24 0zm-0.41 -41.54l103.65 0c-3.02,-13.98 -9.05,-24.34 -18.1,-31.05 -9.05,-6.72 -19.6,-10.08 -31.67,-10.08 -13.98,0 -25.64,3.57 -34.96,10.69 -9.32,7.13 -15.63,17.28 -18.92,30.44zm253.36 72.8l91.31 0 0 49.77 -162.47 0 0 -35.37 86.79 -120.51 -82.67 0 0 -49.77 154.24 0 0 35.37 -87.2 120.51zm352.89 -155.88l56.76 0 -97.48 287.91 -56.35 0 28.79 -85.14 -78.56 -202.77 56.35 0 48.53 129.56 41.95 -129.56zm252.12 179.94c-21.11,20.98 -46.89,31.46 -77.32,31.46 -30.44,0 -56.14,-10.49 -77.12,-31.46 -20.97,-20.98 -31.46,-46.68 -31.46,-77.12 0,-30.44 10.49,-56.14 31.46,-77.12 20.98,-20.98 46.68,-31.46 77.12,-31.46 30.44,0 56.21,10.49 77.32,31.46 21.11,20.98 31.67,46.68 31.67,77.12 0,30.44 -10.56,56.14 -31.67,77.12zm-117.01 -36.4c10.56,10.69 23.78,16.04 39.69,16.04 15.91,0 29.2,-5.35 39.89,-16.04 10.69,-10.69 16.04,-24.27 16.04,-40.72 0,-16.45 -5.35,-30.03 -16.04,-40.72 -10.69,-10.69 -23.99,-16.04 -39.89,-16.04 -15.91,0 -29.13,5.35 -39.69,16.04 -10.56,10.69 -15.84,24.27 -15.84,40.72 0,16.45 5.28,30.02 15.84,40.72zm239.17 -112.7c9.87,-23.31 28.65,-34.96 56.35,-34.96l0 59.23c-15.35,-1.92 -28.58,1.1 -39.69,9.05 -11.1,7.95 -16.66,21.25 -16.66,39.9l0 101.59 -53.06 0 0 -205.65 53.06 0 0 30.85zm235.26 -113.11l53.06 0 0 287.91 -53.06 0 0 -24.27c-15.9,20.01 -38.25,30.02 -67.04,30.02 -27.42,0 -50.93,-10.49 -70.54,-31.46 -19.6,-20.98 -29.41,-46.68 -29.41,-77.12 0,-30.44 9.81,-56.14 29.41,-77.12 19.61,-20.98 43.12,-31.46 70.54,-31.46 28.79,0 51.14,10.01 67.04,30.02l0 -106.53zm-97.89 226.83c10.69,10.83 24.27,16.25 40.72,16.25 16.45,0 30.09,-5.41 40.93,-16.25 10.83,-10.83 16.24,-24.74 16.24,-41.74 0,-17 -5.41,-30.92 -16.24,-41.75 -10.83,-10.83 -24.47,-16.25 -40.93,-16.25 -16.45,0 -30.02,5.41 -40.72,16.25 -10.69,10.83 -16.04,24.74 -16.04,41.75 0,17 5.35,30.91 16.04,41.74zm281.74 -150.33c24.13,0 44.15,7.06 60.05,21.18 15.91,14.12 23.85,33.93 23.85,59.43l0 130.79 -51.82 0 0 -17.68c-12.89,15.63 -31.53,23.44 -55.94,23.44 -19.47,0 -35.85,-5.69 -49.15,-17.07 -13.3,-11.38 -19.95,-27.35 -19.95,-47.92 0,-20.57 6.65,-36.47 19.95,-47.71 13.3,-11.25 29.68,-16.86 49.15,-16.86 23.31,0 41.95,6.03 55.94,18.1l0 -21.8c0,-23.03 -10.69,-34.55 -32.08,-34.55 -9.6,0 -17.28,2.4 -23.03,7.2 -5.76,4.8 -8.64,11.17 -8.64,19.12l-51.82 0c0,-23.31 8.02,-41.75 24.06,-55.32 16.04,-13.57 35.85,-20.36 59.44,-20.36zm-5.76 177.68c11.51,0 20.7,-2.4 27.55,-7.2 6.86,-4.8 10.28,-10.9 10.28,-18.3 0,-7.95 -3.36,-14.19 -10.08,-18.71 -6.72,-4.53 -15.97,-6.79 -27.76,-6.79 -11.25,0 -19.75,2.33 -25.5,6.99 -5.76,4.66 -8.64,10.83 -8.64,18.51 0,7.68 2.88,13.85 8.64,18.51 5.76,4.66 14.26,6.99 25.5,6.99zm341.37 -177.68c19.74,0 35.3,6.3 46.68,18.92 11.38,12.61 17.07,30.57 17.07,53.88l0 138.61 -53.06 0 0 -134.49c0,-18.37 -8.63,-27.55 -25.91,-27.55 -8.5,0 -15.7,2.67 -21.59,8.02 -5.9,5.35 -8.84,14.19 -8.84,26.53l0 127.5 -53.06 0 0 -134.49c0,-18.37 -8.77,-27.55 -26.32,-27.55 -8.5,0 -15.7,2.67 -21.59,8.02 -5.9,5.35 -8.84,14.19 -8.84,26.53l0 127.5 -53.06 0 0 -205.65 53.06 0 0 20.15c11.24,-17.27 27.69,-25.91 49.36,-25.91 21.94,0 38.39,9.05 49.36,27.14 14.53,-18.1 33.45,-27.14 56.76,-27.14zm116.81 114.75l-11.1 -108.99 0 -82.26 63.75 0 0 82.26 -10.69 108.99 -41.95 0zm-8.23 96.66l0 -58.81 58.41 0 0 58.81 -58.41 0z"/>
   <polygon class="fil1 str0" points="670.11,245.34 425.05,245.34 425.05,1.76 245.34,1.76 245.34,245.34 1.76,245.34 1.76,425.05 245.34,425.05 245.34,670.11 425.05,670.11 425.05,425.05 670.11,425.05 "/>
  </g>
 </g>
</svg>
